  0
SECTION
  2
HEADER
  9
$ACADVER
  1
AC1009
  9
$DWGCODEPAGE
  3
ansi_1252
  9
$INSBASE
 10
0.0
 20
0.0
 30
0.0
  9
$EXTMIN
 10
-164.1196424415396
 20
-64.18125370433262
 30
0.0
  9
$EXTMAX
 10
115.0809976486523
 20
193.5045765786268
 30
0.0000000000000009
  9
$LIMMIN
 10
0.0
 20
0.0
  9
$LIMMAX
 10
12.0
 20
9.0
  9
$ORTHOMODE
 70
     0
  9
$REGENMODE
 70
     1
  9
$FILLMODE
 70
     1
  9
$QTEXTMODE
 70
     0
  9
$MIRRTEXT
 70
     1
  9
$DRAGMODE
 70
     2
  9
$LTSCALE
 40
1.0
  9
$OSMODE
 70
    37
  9
$ATTMODE
 70
     1
  9
$TEXTSIZE
 40
0.2
  9
$TRACEWID
 40
0.05
  9
$TEXTSTYLE
  7
STANDARD
  9
$CLAYER
  8
0
  9
$CELTYPE
  6
BYLAYER
  9
$CECOLOR
 62
   256
  9
$DIMSCALE
 40
1.0
  9
$DIMASZ
 40
0.18
  9
$DIMEXO
 40
0.0625
  9
$DIMDLI
 40
0.38
  9
$DIMRND
 40
0.0
  9
$DIMDLE
 40
0.0
  9
$DIMEXE
 40
0.18
  9
$DIMTP
 40
0.0
  9
$DIMTM
 40
0.0
  9
$DIMTXT
 40
0.18
  9
$DIMCEN
 40
0.09
  9
$DIMTSZ
 40
0.0
  9
$DIMTOL
 70
     0
  9
$DIMLIM
 70
     0
  9
$DIMTIH
 70
     1
  9
$DIMTOH
 70
     1
  9
$DIMSE1
 70
     0
  9
$DIMSE2
 70
     0
  9
$DIMTAD
 70
     0
  9
$DIMZIN
 70
     0
  9
$DIMBLK
  1

  9
$DIMASO
 70
     1
  9
$DIMSHO
 70
     1
  9
$DIMPOST
  1

  9
$DIMAPOST
  1

  9
$DIMALT
 70
     0
  9
$DIMALTD
 70
     2
  9
$DIMALTF
 40
25.4
  9
$DIMLFAC
 40
1.0
  9
$DIMTOFL
 70
     0
  9
$DIMTVP
 40
0.0
  9
$DIMTIX
 70
     0
  9
$DIMSOXD
 70
     0
  9
$DIMSAH
 70
     0
  9
$DIMBLK1
  1

  9
$DIMBLK2
  1

  9
$DIMSTYLE
  2
STANDARD
  9
$DIMCLRD
 70
     0
  9
$DIMCLRE
 70
     0
  9
$DIMCLRT
 70
     0
  9
$DIMTFAC
 40
1.0
  9
$DIMGAP
 40
0.09
  9
$LUNITS
 70
     2
  9
$LUPREC
 70
     3
  9
$SKETCHINC
 40
0.1
  9
$FILLETRAD
 40
0.5
  9
$AUNITS
 70
     0
  9
$AUPREC
 70
     0
  9
$MENU
  1
.
  9
$ELEVATION
 40
0.0
  9
$PELEVATION
 40
0.0
  9
$THICKNESS
 40
0.0
  9
$LIMCHECK
 70
     0
  9
$CHAMFERA
 40
0.0
  9
$CHAMFERB
 40
0.0
  9
$SKPOLY
 70
     0
  9
$TDCREATE
 40
2458046.947599317
  9
$TDUPDATE
 40
2458046.947632454
  9
$TDINDWG
 40
0.0000000116
  9
$TDUSRTIMER
 40
0.0000000116
  9
$USRTIMER
 70
     1
  9
$ANGBASE
 50
0.0
  9
$ANGDIR
 70
     0
  9
$PDMODE
 70
     0
  9
$PDSIZE
 40
0.0
  9
$PLINEWID
 40
0.0
  9
$COORDS
 70
     1
  9
$SPLFRAME
 70
     0
  9
$SPLINETYPE
 70
     6
  9
$SPLINESEGS
 70
     8
  9
$ATTDIA
 70
     0
  9
$ATTREQ
 70
     1
  9
$HANDLING
 70
     1
  9
$HANDSEED
  5
6FE
  9
$SURFTAB1
 70
     6
  9
$SURFTAB2
 70
     6
  9
$SURFTYPE
 70
     6
  9
$SURFU
 70
     6
  9
$SURFV
 70
     6
  9
$UCSNAME
  2

  9
$UCSORG
 10
0.0
 20
0.0
 30
0.0
  9
$UCSXDIR
 10
1.0
 20
0.0
 30
0.0
  9
$UCSYDIR
 10
0.0
 20
1.0
 30
0.0
  9
$PUCSNAME
  2

  9
$PUCSORG
 10
0.0
 20
0.0
 30
0.0
  9
$PUCSXDIR
 10
1.0
 20
0.0
 30
0.0
  9
$PUCSYDIR
 10
0.0
 20
1.0
 30
0.0
  9
$USERI1
 70
     0
  9
$USERI2
 70
     0
  9
$USERI3
 70
     0
  9
$USERI4
 70
     0
  9
$USERI5
 70
     0
  9
$USERR1
 40
0.0
  9
$USERR2
 40
0.0
  9
$USERR3
 40
0.0
  9
$USERR4
 40
0.0
  9
$USERR5
 40
0.0
  9
$WORLDVIEW
 70
     1
  9
$SHADEDGE
 70
     3
  9
$SHADEDIF
 70
    70
  9
$TILEMODE
 70
     1
  9
$MAXACTVP
 70
    64
  9
$PLIMCHECK
 70
     0
  9
$PEXTMIN
 10
1.000000000000000E+20
 20
1.000000000000000E+20
 30
1.000000000000000E+20
  9
$PEXTMAX
 10
-1.000000000000000E+20
 20
-1.000000000000000E+20
 30
-1.000000000000000E+20
  9
$PLIMMIN
 10
0.0
 20
0.0
  9
$PLIMMAX
 10
12.0
 20
9.0
  9
$UNITMODE
 70
     0
  9
$VISRETAIN
 70
     1
  9
$PLINEGEN
 70
     0
  9
$PSLTSCALE
 70
     1
  0
ENDSEC
  0
SECTION
  2
TABLES
  0
TABLE
  2
VPORT
 70
     1
  0
VPORT
  2
*ACTIVE
 70
     0
 10
0.0
 20
0.0
 11
1.0
 21
1.0
 12
-24.51932239644361
 22
64.6616614371471
 13
0.0
 23
0.0
 14
0.5
 24
0.5
 15
0.5
 25
0.5
 16
0.0
 26
0.0
 36
1.0
 17
0.0
 27
0.0
 37
0.0
 40
262.8395468886187
 41
1.083492405397718
 42
50.0
 43
0.0
 44
0.0
 50
0.0
 51
0.0
 71
     0
 72
   100
 73
     1
 74
     3
 75
     0
 76
     0
 77
     0
 78
     0
  0
ENDTAB
  0
TABLE
  2
LTYPE
 70
     1
  0
LTYPE
  2
CONTINUOUS
 70
     0
  3
Solid line
 72
    65
 73
     0
 40
0.0
  0
ENDTAB
  0
TABLE
  2
LAYER
 70
     5
  0
LAYER
  2
0
 70
     0
 62
     7
  6
CONTINUOUS
  0
LAYER
  2
LIVELLO_01
 70
     0
 62
     5
  6
CONTINUOUS
  0
LAYER
  2
INFO
 70
     0
 62
     1
  6
CONTINUOUS
  0
LAYER
  2
LIVELLO_02
 70
     0
 62
   104
  6
CONTINUOUS
  0
LAYER
  2
DEFAULT
 70
     0
 62
    18
  6
CONTINUOUS
  0
ENDTAB
  0
TABLE
  2
STYLE
 70
     1
  0
STYLE
  2
STANDARD
 70
     0
 40
0.0
 41
1.0
 50
0.0
 71
     0
 42
0.2
  3
txt
  4

  0
ENDTAB
  0
TABLE
  2
VIEW
 70
     0
  0
ENDTAB
  0
TABLE
  2
UCS
 70
     0
  0
ENDTAB
  0
TABLE
  2
APPID
 70
     1
  0
APPID
  2
ACAD
 70
     0
  0
ENDTAB
  0
TABLE
  2
DIMSTYLE
 70
     1
  0
DIMSTYLE
  2
STANDARD
 70
     0
  3

  4

  5

  6

  7

 40
1.0
 41
0.18
 42
0.0625
 43
0.38
 44
0.18
 45
0.0
 46
0.0
 47
0.0
 48
0.0
140
0.18
141
0.09
142
0.0
143
25.4
144
1.0
145
0.0
146
1.0
147
0.09
 71
     0
 72
     0
 73
     1
 74
     1
 75
     0
 76
     0
 77
     0
 78
     0
170
     0
171
     2
172
     0
173
     0
174
     0
175
     0
176
     0
177
     0
178
     0
  0
ENDTAB
  0
ENDSEC
  0
SECTION
  2
BLOCKS
  0
BLOCK
  8
0
  2
$MODEL_SPACE
 70
     0
 10
0.0
 20
0.0
 30
0.0
  3
$MODEL_SPACE
  1

  0
ENDBLK
  5
21
  8
0
  0
BLOCK
 67
     1
  8
0
  2
$PAPER_SPACE
 70
     0
 10
0.0
 20
0.0
 30
0.0
  3
$PAPER_SPACE
  1

  0
ENDBLK
  5
1D
 67
     1
  8
0
  0
ENDSEC
  0
SECTION
  2
ENTITIES
  0
POLYLINE
  5
6B
  8
LIVELLO_01
 66
     1
 10
0.0
 20
0.0
 30
0.0
 70
     1
  0
VERTEX
  5
6C
  8
LIVELLO_01
 10
-35.53649334710347
 20
179.7006088286181
 30
0.0
  0
VERTEX
  5
6D
  8
LIVELLO_01
 10
-33.68945473599227
 20
179.7006088286182
 30
0.0
  0
VERTEX
  5
6E
  8
LIVELLO_01
 10
-32.61101659710357
 20
179.7006053008403
 30
0.0
  0
VERTEX
  5
6F
  8
LIVELLO_01
 10
-32.61101659710356
 20
114.9826858841737
 30
0.0
  0
VERTEX
  5
70
  8
LIVELLO_01
 10
-42.60805795821453
 20
114.9727763563959
 30
0.0
  0
VERTEX
  5
71
  8
LIVELLO_01
 10
-52.61291687488129
 20
114.972776356396
 30
0.0
  0
VERTEX
  5
72
  8
LIVELLO_01
 10
-57.61283279154786
 20
119.9726887452848
 30
0.0
  0
VERTEX
  5
73
  8
LIVELLO_01
 10
-62.61330962488124
 20
124.9731655786181
 30
0.0
  0
VERTEX
  5
74
  8
LIVELLO_01
 10
-62.6138670137701
 20
127.2922490786182
 30
0.0
  0
VERTEX
  5
75
  8
LIVELLO_01
 10
-62.6138670137701
 20
157.3343213286181
 30
0.0
  0
VERTEX
  5
76
  8
LIVELLO_01
 10
-61.37263251377014
 20
160.1102273563959
 30
0.0
  0
VERTEX
  5
77
  8
LIVELLO_01
 10
-60.1136285971035
 20
162.925894967507
 30
0.0
  0
VERTEX
  5
78
  8
LIVELLO_01
 10
-59.68839026377013
 20
163.8768991897292
 30
0.0
  0
VERTEX
  5
79
  8
LIVELLO_01
 10
-59.48839348599243
 20
146.2457220230626
 30
0.0
  0
VERTEX
  5
7A
  8
LIVELLO_01
 10
-55.73839040265902
 20
146.2457220230626
 30
0.0
  0
VERTEX
  5
7B
  8
LIVELLO_01
 10
-55.73839040265902
 20
172.7107440230626
 30
0.0
  0
VERTEX
  5
7C
  8
LIVELLO_01
 10
-55.11315176377018
 20
174.1090387175069
 30
0.0
  0
VERTEX
  5
7D
  8
LIVELLO_01
 10
-54.6131950971034
 20
175.2271467175071
 30
0.0
  0
VERTEX
  5
7E
  8
LIVELLO_01
 10
-53.85875865265909
 20
176.9143805230626
 30
0.0
  0
VERTEX
  5
7F
  8
LIVELLO_01
 10
-52.61291687488124
 20
179.7006088286181
 30
0.0
  0
VERTEX
  5
80
  8
LIVELLO_01
 10
-49.68744012488115
 20
179.7006088286182
 30
0.0
  0
VERTEX
  5
81
  8
LIVELLO_01
 10
-49.48743981932573
 20
147.4616941063959
 30
0.0
  0
VERTEX
  5
82
  8
LIVELLO_01
 10
-45.73744026377021
 20
147.4616941063959
 30
0.0
  0
VERTEX
  5
83
  8
LIVELLO_01
 10
-45.73744026377021
 20
179.6381107175071
 30
0.0
  0
VERTEX
  5
84
  8
LIVELLO_01
 10
-43.73254770821454
 20
179.7006123563959
 30
0.0
  0
VERTEX
  5
85
  8
LIVELLO_01
 10
-39.68649351377012
 20
179.7006123563959
 30
0.0
  0
VERTEX
  5
86
  8
LIVELLO_01
 10
-39.48649320821464
 20
147.4616941063959
 30
0.0
  0
VERTEX
  5
87
  8
LIVELLO_01
 10
-35.73649012488123
 20
147.4616941063959
 30
0.0
  0
VERTEX
  5
88
  8
LIVELLO_01
 10
-35.73649012488123
 20
179.6381107175071
 30
0.0
  0
SEQEND
  5
89
  8
LIVELLO_01
  0
POLYLINE
  5
8A
  8
LIVELLO_01
 66
     1
 10
0.0
 20
0.0
 30
0.0
 70
     1
  0
VERTEX
  5
8B
  8
LIVELLO_01
 10
-15.98979799932287
 20
40.69434123782781
 30
0.0
  0
VERTEX
  5
8C
  8
LIVELLO_01
 10
-12.23979844376736
 20
40.69434123782784
 30
0.0
  0
VERTEX
  5
8D
  8
LIVELLO_01
 10
-12.23979844376736
 20
72.86942787671677
 30
0.0
  0
VERTEX
  5
8E
  8
LIVELLO_01
 10
-12.03979813821188
 20
72.93192951560565
 30
0.0
  0
VERTEX
  5
8F
  8
LIVELLO_01
 10
-6.188851693767319
 20
72.93192951560565
 30
0.0
  0
VERTEX
  5
90
  8
LIVELLO_01
 10
-5.988851388211842
 20
40.69434476560565
 30
0.0
  0
VERTEX
  5
91
  8
LIVELLO_01
 10
-2.238848304878545
 20
40.69434476560565
 30
0.0
  0
VERTEX
  5
92
  8
LIVELLO_01
 10
-2.238848304878601
 20
72.86942787671677
 30
0.0
  0
VERTEX
  5
93
  8
LIVELLO_01
 10
0.8866252228992977
 20
72.93192951560565
 30
0.0
  0
VERTEX
  5
94
  8
LIVELLO_01
 10
0.8866252228992977
 20
8.21371729338341
 30
0.0
  0
VERTEX
  5
95
  8
LIVELLO_01
 10
-19.10978936043402
 20
8.206756987827845
 30
0.0
  0
VERTEX
  5
96
  8
LIVELLO_01
 10
-24.11536030487848
 20
13.20683871005008
 30
0.0
  0
VERTEX
  5
97
  8
LIVELLO_01
 10
-29.11583361043408
 20
18.20731554338337
 30
0.0
  0
VERTEX
  5
98
  8
LIVELLO_01
 10
-29.11622519376742
 20
19.9935634878278
 30
0.0
  0
VERTEX
  5
99
  8
LIVELLO_01
 10
-29.11622519376742
 20
50.56563848782787
 30
0.0
  0
VERTEX
  5
9A
  8
LIVELLO_01
 10
-27.87518119376738
 20
53.34113176560561
 30
0.0
  0
VERTEX
  5
9B
  8
LIVELLO_01
 10
-26.61598677710076
 20
56.15720507116117
 30
0.0
  0
VERTEX
  5
9C
  8
LIVELLO_01
 10
-26.19074844376733
 20
57.10821282116115
 30
0.0
  0
VERTEX
  5
9D
  8
LIVELLO_01
 10
-25.99075166598958
 20
39.47837268227232
 30
0.0
  0
VERTEX
  5
9E
  8
LIVELLO_01
 10
-24.29075166598956
 20
39.47837268227232
 30
0.0
  0
VERTEX
  5
9F
  8
LIVELLO_01
 10
-24.29075166598957
 20
25.47837268227232
 30
0.0
  0
VERTEX
  5
A0
  8
LIVELLO_01
 10
-15.98979799932287
 20
25.47837268227232
 30
0.0
  0
SEQEND
  5
A1
  8
LIVELLO_01
  0
POLYLINE
  5
A2
  8
LIVELLO_01
 66
     1
 10
0.0
 20
0.0
 30
0.0
  0
VERTEX
  5
A3
  8
LIVELLO_01
 10
-142.3931676274728
 20
-22.11495341460474
 30
0.0
  0
VERTEX
  5
A4
  8
LIVELLO_01
 10
-132.4577980804285
 20
-2.240352997937947
 30
0.0
  0
VERTEX
  5
A5
  8
LIVELLO_01
 10
-125.7928839415396
 20
11.09206114095092
 30
0.0
  0
VERTEX
  5
A6
  8
LIVELLO_01
 10
-115.160151135984
 20
2.20829119650648
 30
0.0
  0
VERTEX
  5
A7
  8
LIVELLO_01
 10
-112.7144733304285
 20
5.051030974284274
 30
0.0
  0
VERTEX
  5
A8
  8
LIVELLO_01
 10
-123.9622706637617
 20
14.72778186317318
 30
0.0
  0
VERTEX
  5
A9
  8
LIVELLO_01
 10
-122.5001761082062
 20
17.67876091872871
 30
0.0
  0
VERTEX
  5
AA
  8
LIVELLO_01
 10
-112.5425576637618
 20
37.59787836317315
 30
0.0
  0
VERTEX
  5
AB
  8
LIVELLO_01
 10
-112.0466191359841
 20
38.50963605761758
 30
0.0
  0
VERTEX
  5
AC
  8
LIVELLO_01
 10
-111.488771635984
 20
39.3849165298398
 30
0.0
  0
VERTEX
  5
AD
  8
LIVELLO_01
 10
-110.8970292470952
 20
40.1878140576176
 30
0.0
  0
VERTEX
  5
AE
  8
LIVELLO_01
 10
-110.2532556637618
 20
40.94960591872868
 30
0.0
  0
VERTEX
  5
AF
  8
LIVELLO_01
 10
-109.5016908304284
 20
41.72301122428425
 30
0.0
  0
VERTEX
  5
B0
  8
LIVELLO_01
 10
-108.6965284693173
 20
42.44050125206201
 30
0.0
  0
VERTEX
  5
B1
  8
LIVELLO_01
 10
-107.875018385984
 20
43.0748556687287
 30
0.0
  0
VERTEX
  5
B2
  8
LIVELLO_01
 10
-107.0116441637618
 20
43.65088533539534
 30
0.0
  0
VERTEX
  5
B3
  8
LIVELLO_01
 10
-106.110353385984
 20
44.16558105761757
 30
0.0
  0
VERTEX
  5
B4
  8
LIVELLO_01
 10
-105.1756051637618
 20
44.61675561317317
 30
0.0
  0
VERTEX
  5
B5
  8
LIVELLO_01
 10
-104.1738221082062
 20
45.01611769650647
 30
0.0
  0
VERTEX
  5
B6
  8
LIVELLO_01
 10
-103.1459864137619
 20
45.34252180761757
 30
0.0
  0
VERTEX
  5
B7
  8
LIVELLO_01
 10
-102.1767294693174
 20
45.57769405761756
 30
0.0
  0
VERTEX
  5
B8
  8
LIVELLO_01
 10
-101.416655635984
 20
20.87689255761759
 30
0.0
  0
VERTEX
  5
B9
  8
LIVELLO_01
 10
-97.66701944153952
 20
20.92895902983983
 30
0.0
  0
VERTEX
  5
BA
  8
LIVELLO_01
 10
-98.01148577487287
 20
45.73527636317314
 30
0.0
  0
VERTEX
  5
BB
  8
LIVELLO_01
 10
-97.05473127487294
 20
45.74795872428427
 30
0.0
  0
VERTEX
  5
BC
  8
LIVELLO_01
 10
-96.07196999709514
 20
45.57769405761756
 30
0.0
  0
VERTEX
  5
BD
  8
LIVELLO_01
 10
-95.10271658042846
 20
45.34252180761757
 30
0.0
  0
VERTEX
  5
BE
  8
LIVELLO_01
 10
-94.07487030265064
 20
45.01611064095093
 30
0.0
  0
VERTEX
  5
BF
  8
LIVELLO_01
 10
-93.07308019153957
 20
44.61674855761757
 30
0.0
  0
VERTEX
  5
C0
  8
LIVELLO_01
 10
-92.13833902487293
 20
44.16557047428427
 30
0.0
  0
VERTEX
  5
C1
  8
LIVELLO_01
 10
-91.2370588304285
 20
43.65088533539534
 30
0.0
  0
VERTEX
  5
C2
  8
LIVELLO_01
 10
-90.37368108042845
 20
43.07484861317316
 30
0.0
  0
VERTEX
  5
C3
  8
LIVELLO_01
 10
-89.55216041376183
 20
42.44048361317314
 30
0.0
  0
VERTEX
  5
C4
  8
LIVELLO_01
 10
-88.74700510820621
 20
41.72300416872872
 30
0.0
  0
VERTEX
  5
C5
  8
LIVELLO_01
 10
-87.99545438598408
 20
40.94960591872865
 30
0.0
  0
VERTEX
  5
C6
  8
LIVELLO_01
 10
-87.35167021931737
 20
40.18780700206203
 30
0.0
  0
VERTEX
  5
C7
  8
LIVELLO_01
 10
-86.7599207748729
 20
39.38489889095095
 30
0.0
  0
VERTEX
  5
C8
  8
LIVELLO_01
 10
-86.20208033042847
 20
38.50962900206204
 30
0.0
  0
VERTEX
  5
C9
  8
LIVELLO_01
 10
-85.7061453304285
 20
37.59787836317315
 30
0.0
  0
VERTEX
  5
CA
  8
LIVELLO_01
 10
-75.76267680265066
 20
17.70707133539536
 30
0.0
  0
VERTEX
  5
CB
  8
LIVELLO_01
 10
-86.29788771931736
 20
6.663775752062037
 30
0.0
  0
VERTEX
  5
CC
  8
LIVELLO_01
 10
-83.61870630265064
 20
4.039945168728707
 30
0.0
  0
VERTEX
  5
CD
  8
LIVELLO_01
 10
-73.98628899709512
 20
13.87556600206203
 30
0.0
  0
VERTEX
  5
CE
  8
LIVELLO_01
 10
-65.79090491376182
 20
-2.240356525715768
 30
0.0
  0
VERTEX
  5
CF
  8
LIVELLO_01
 10
-55.8555424097592
 20
-22.1149534146046
 30
0.0
  0
VERTEX
  5
D0
  8
LIVELLO_01
 10
-45.50142451636178
 20
-42.73497680349362
 30
0.0
  0
VERTEX
  5
D1
  8
LIVELLO_01
 10
-45.11992709969512
 20
-43.62786794238249
 30
0.0
  0
VERTEX
  5
D2
  8
LIVELLO_01
 10
-44.51516015525071
 20
-45.55503297016028
 30
0.0
  0
VERTEX
  5
D3
  8
LIVELLO_01
 10
-44.32505526636179
 20
-46.46698116460473
 30
0.0
  0
VERTEX
  5
D4
  8
LIVELLO_01
 10
-44.19182873858402
 20
-47.38902938682696
 30
0.0
  0
VERTEX
  5
D5
  8
LIVELLO_01
 10
-44.09886473858403
 20
-49.32789605349359
 30
0.0
  0
VERTEX
  5
D6
  8
LIVELLO_01
 10
-44.14687426636179
 20
-50.29774566460472
 30
0.0
  0
VERTEX
  5
D7
  8
LIVELLO_01
 10
-44.25759357191735
 20
-51.26245883127137
 30
0.0
  0
VERTEX
  5
D8
  8
LIVELLO_01
 10
-44.66442043302844
 20
-53.16044913682691
 30
0.0
  0
VERTEX
  5
D9
  8
LIVELLO_01
 10
-44.95913098858396
 20
-54.08568294238253
 30
0.0
  0
VERTEX
  5
DA
  8
LIVELLO_01
 10
-45.31311879413958
 20
-54.98992294238252
 30
0.0
  0
VERTEX
  5
DB
  8
LIVELLO_01
 10
-46.23460609969509
 20
-56.79121333127139
 30
0.0
  0
VERTEX
  5
DC
  8
LIVELLO_01
 10
-46.73757901636178
 20
-57.57330402571586
 30
0.0
  0
VERTEX
  5
DD
  8
LIVELLO_01
 10
-47.28803582191732
 20
-58.32275219238244
 30
0.0
  0
VERTEX
  5
DE
  8
LIVELLO_01
 10
-48.62527526636175
 20
-59.81364752571582
 30
0.0
  0
VERTEX
  5
DF
  8
LIVELLO_01
 10
-49.31870232191731
 20
-60.44850288682693
 30
0.0
  0
VERTEX
  5
E0
  8
LIVELLO_01
 10
-50.05055393302847
 20
-61.03870363682691
 30
0.0
  0
VERTEX
  5
E1
  8
LIVELLO_01
 10
-51.70706784969512
 20
-62.12731941460473
 30
0.0
  0
VERTEX
  5
E2
  8
LIVELLO_01
 10
-52.57718012747289
 20
-62.58294602571584
 30
0.0
  0
VERTEX
  5
E3
  8
LIVELLO_01
 10
-53.47525357191732
 20
-62.9806500534936
 30
0.0
  0
VERTEX
  5
E4
  8
LIVELLO_01
 10
-54.39738998858398
 20
-63.31881930349357
 30
0.0
  0
VERTEX
  5
E5
  8
LIVELLO_01
 10
-55.33965943302842
 20
-63.59596505349356
 30
0.0
  0
VERTEX
  5
E6
  8
LIVELLO_01
 10
-56.26607151636175
 20
-63.80464016460468
 30
0.0
  0
VERTEX
  5
E7
  8
LIVELLO_01
 10
-57.02776107191737
 20
-63.92621091460472
 30
0.0
  0
VERTEX
  5
E8
  8
LIVELLO_01
 10
-57.2277613774729
 20
-38.05195058127137
 30
0.0
  0
VERTEX
  5
E9
  8
LIVELLO_01
 10
-60.97776093302842
 20
-38.05195058127137
 30
0.0
  0
VERTEX
  5
EA
  8
LIVELLO_01
 10
-60.97776093302842
 20
-64.01191827571583
 30
0.0
  0
VERTEX
  5
EB
  8
LIVELLO_01
 10
-79.10019879413959
 20
-64.07442344238245
 30
0.0
  0
VERTEX
  5
EC
  8
LIVELLO_01
 10
-137.0277633496952
 20
-64.07442344238245
 30
0.0
  0
VERTEX
  5
ED
  8
LIVELLO_01
 10
-137.2277636552507
 20
-38.05328055349361
 30
0.0
  0
VERTEX
  5
EE
  8
LIVELLO_01
 10
-140.9777596830285
 20
-38.05328055349361
 30
0.0
  0
VERTEX
  5
EF
  8
LIVELLO_01
 10
-140.9777596830285
 20
-63.86393858127138
 30
0.0
  0
VERTEX
  5
F0
  8
LIVELLO_01
 10
-141.8680049885841
 20
-63.81794694238255
 30
0.0
  0
VERTEX
  5
F1
  8
LIVELLO_01
 10
-142.7261686830285
 20
-63.63103116460468
 30
0.0
  0
VERTEX
  5
F2
  8
LIVELLO_01
 10
-143.6059576552507
 20
-63.38352227571588
 30
0.0
  0
VERTEX
  5
F3
  8
LIVELLO_01
 10
-144.4690531830284
 20
-63.08291327571584
 30
0.0
  0
VERTEX
  5
F4
  8
LIVELLO_01
 10
-146.1324744885841
 20
-62.32715744238251
 30
0.0
  0
VERTEX
  5
F5
  8
LIVELLO_01
 10
-146.9265243496951
 20
-61.87462469238253
 30
0.0
  0
VERTEX
  5
F6
  8
LIVELLO_01
 10
-147.6915088496951
 20
-61.37453397016029
 30
0.0
  0
VERTEX
  5
F7
  8
LIVELLO_01
 10
-149.1233774052507
 20
-60.23966549793809
 30
0.0
  0
VERTEX
  5
F8
  8
LIVELLO_01
 10
-149.782517988584
 20
-59.61128008127136
 30
0.0
  0
VERTEX
  5
F9
  8
LIVELLO_01
 10
-150.4021968496952
 20
-58.9439338868269
 30
0.0
  0
VERTEX
  5
FA
  8
LIVELLO_01
 10
-151.5220757941396
 20
-57.49208399793804
 30
0.0
  0
VERTEX
  5
FB
  8
LIVELLO_01
 10
-152.0117983774729
 20
-56.72042494238252
 30
0.0
  0
VERTEX
  5
FC
  8
LIVELLO_01
 10
-152.4534796830284
 20
-55.92030377571587
 30
0.0
  0
VERTEX
  5
FD
  8
LIVELLO_01
 10
-153.1868341274729
 20
-54.24689180349364
 30
0.0
  0
VERTEX
  5
FE
  8
LIVELLO_01
 10
-153.4758332108063
 20
-53.37983458127138
 30
0.0
  0
VERTEX
  5
FF
  8
LIVELLO_01
 10
-153.7114040996952
 20
-52.49677183127136
 30
0.0
  0
VERTEX
  5
100
  8
LIVELLO_01
 10
-154.0193297108063
 20
-50.69584833127141
 30
0.0
  0
VERTEX
  5
101
  8
LIVELLO_01
 10
-154.0905237941396
 20
-49.7846727201603
 30
0.0
  0
VERTEX
  5
102
  8
LIVELLO_01
 10
-154.1059754608063
 20
-48.87087244238251
 30
0.0
  0
VERTEX
  5
103
  8
LIVELLO_01
 10
-153.9700537108063
 20
-47.04887047016027
 30
0.0
  0
VERTEX
  5
104
  8
LIVELLO_01
 10
-153.8193435163618
 20
-46.14743858127139
 30
0.0
  0
VERTEX
  5
105
  8
LIVELLO_01
 10
-153.6139280719174
 20
-45.25688283127135
 30
0.0
  0
VERTEX
  5
106
  8
LIVELLO_01
 10
-153.0422799052507
 20
-43.52155483127137
 30
0.0
  0
VERTEX
  5
107
  8
LIVELLO_01
 10
-152.6784460719174
 20
-42.68317491460476
 30
0.0
  0
VERTEX
  5
108
  8
LIVELLO_01
 10
-152.3133634052507
 20
-41.95920435904921
 30
0.0
  0
VERTEX
  5
109
  8
LIVELLO_01
 10
-149.8613814608062
 20
-37.0542879701603
 30
0.0
  0
VERTEX
  5
10A
  8
LIVELLO_01
 10
-147.3719768496951
 20
-32.07451566460468
 30
0.0
  0
VERTEX
  5
10B
  8
LIVELLO_01
 10
-142.3931676274728
 20
-22.11495341460474
 30
0.0
  0
VERTEX
  5
10C
  8
LIVELLO_01
 10
-142.3709116745173
 20
-22.07043285904928
 30
0.0
  0
SEQEND
  5
10D
  8
LIVELLO_01
  0
POLYLINE
  5
10E
  8
LIVELLO_01
 66
     1
 10
0.0
 20
0.0
 30
0.0
 70
     1
  0
VERTEX
  5
10F
  8
LIVELLO_01
 10
-132.4694934608062
 20
-33.25311352571578
 30
0.0
  0
VERTEX
  5
110
  8
LIVELLO_01
 10
-124.8545417108062
 20
-33.25311352571578
 30
0.0
  0
VERTEX
  5
111
  8
LIVELLO_01
 10
-124.8545417108062
 20
-26.07081291460472
 30
0.0
  0
VERTEX
  5
112
  8
LIVELLO_01
 10
-95.42317718302841
 20
-26.07081291460472
 30
0.0
  0
VERTEX
  5
113
  8
LIVELLO_01
 10
-88.06533340525071
 20
-26.07081644238254
 30
0.0
  0
VERTEX
  5
114
  8
LIVELLO_01
 10
-80.21696976636177
 20
-26.07081644238254
 30
0.0
  0
VERTEX
  5
115
  8
LIVELLO_01
 10
-73.34964937747291
 20
-26.07081291460472
 30
0.0
  0
VERTEX
  5
116
  8
LIVELLO_01
 10
-73.34964937747291
 20
-58.25444724793806
 30
0.0
  0
VERTEX
  5
117
  8
LIVELLO_01
 10
-132.4694704293906
 20
-58.25444724793806
 30
0.0
  0
VERTEX
  5
118
  8
LIVELLO_01
 10
-132.4694934608062
 20
-50.25434694238254
 30
0.0
  0
SEQEND
  5
119
  8
LIVELLO_01
  0
POLYLINE
  5
11A
  8
LIVELLO_01
 66
     1
 10
0.0
 20
0.0
 30
0.0
 70
     1
  0
VERTEX
  5
11B
  8
LIVELLO_01
 10
-80.04501096931737
 20
-22.1149534146046
 30
0.0
  0
VERTEX
  5
11C
  8
LIVELLO_01
 10
-80.04501096931737
 20
-10.11380972016022
 30
0.0
  0
VERTEX
  5
11D
  8
LIVELLO_01
 10
-127.3574921915395
 20
-10.11380972016022
 30
0.0
  0
VERTEX
  5
11E
  8
LIVELLO_01
 10
-127.3574921915395
 20
-22.1149534146046
 30
0.0
  0
SEQEND
  5
11F
  8
LIVELLO_01
  0
POLYLINE
  5
121
  8
INFO
 66
     1
 10
0.0
 20
0.0
 30
0.0
  0
VERTEX
  5
122
  8
INFO
 10
5.114746532637071
 20
156.5545821333174
 30
0.0
  0
VERTEX
  5
123
  8
INFO
 10
-1.285252661807419
 20
156.5545821333174
 30
0.0
  0
VERTEX
  5
124
  8
INFO
 10
0.1379516715259683
 20
157.977384299984
 30
0.0
  0
SEQEND
  5
125
  8
INFO
  0
POLYLINE
  5
126
  8
INFO
 66
     1
 10
0.0
 20
0.0
 30
0.0
  0
VERTEX
  5
127
  8
INFO
 10
-4.886150689585179
 20
145.1512133277618
 30
0.0
  0
VERTEX
  5
128
  8
INFO
 10
-4.886150689585179
 20
147.9936038555395
 30
0.0
  0
VERTEX
  5
129
  8
INFO
 10
-9.114421661807455
 20
145.367141549984
 30
0.0
  0
VERTEX
  5
12A
  8
INFO
 10
-9.118305745140788
 20
145.3640018277617
 30
0.0
  0
VERTEX
  5
12B
  8
INFO
 10
-9.12222510625179
 20
145.3609891055395
 30
0.0
  0
VERTEX
  5
12C
  8
INFO
 10
-9.126211495140751
 20
145.3580892722062
 30
0.0
  0
VERTEX
  5
12D
  8
INFO
 10
-9.130293134029671
 20
145.3552776333173
 30
0.0
  0
VERTEX
  5
12E
  8
INFO
 10
-9.134508828474111
 20
145.3525330222062
 30
0.0
  0
VERTEX
  5
12F
  8
INFO
 10
-9.13889032847402
 20
145.3498413277617
 30
0.0
  0
VERTEX
  5
130
  8
INFO
 10
-9.143469384029686
 20
145.3471778555395
 30
0.0
  0
VERTEX
  5
131
  8
INFO
 10
-9.148277745140774
 20
145.3445214388729
 30
0.0
  0
VERTEX
  5
132
  8
INFO
 10
-9.15335421736296
 20
145.3418579666507
 30
0.0
  0
VERTEX
  5
133
  8
INFO
 10
-9.386194606251877
 20
145.2334070222062
 30
0.0
  0
VERTEX
  5
134
  8
INFO
 10
-9.627558106251854
 20
145.1700551888729
 30
0.0
  0
VERTEX
  5
135
  8
INFO
 10
-9.871983717362923
 20
145.1502467166507
 30
0.0
  0
VERTEX
  5
136
  8
INFO
 10
-10.11402455069623
 20
145.1724223277618
 30
0.0
  0
VERTEX
  5
137
  8
INFO
 10
-10.34822313402964
 20
145.2350368555396
 30
0.0
  0
VERTEX
  5
138
  8
INFO
 10
-10.56912199514068
 20
145.336534549984
 30
0.0
  0
VERTEX
  5
139
  8
INFO
 10
-10.77127424514072
 20
145.4753596610951
 30
0.0
  0
VERTEX
  5
13A
  8
INFO
 10
-10.94922241180734
 20
145.6499670222062
 30
0.0
  0
VERTEX
  5
13B
  8
INFO
 10
-11.09751607847409
 20
145.8588008833173
 30
0.0
  0
VERTEX
  5
13C
  8
INFO
 10
-11.20441832847411
 20
146.0922903833174
 30
0.0
  0
VERTEX
  5
13D
  8
INFO
 10
-11.26679649514068
 20
146.334024299984
 30
0.0
  0
VERTEX
  5
13E
  8
INFO
 10
-11.2860475784741
 20
146.578594549984
 30
0.0
  0
VERTEX
  5
13F
  8
INFO
 10
-11.2635791618074
 20
146.8205965777618
 30
0.0
  0
VERTEX
  5
140
  8
INFO
 10
-11.20078824514076
 20
147.0546293555395
 30
0.0
  0
VERTEX
  5
141
  8
INFO
 10
-11.09908946736294
 20
147.275284799984
 30
0.0
  0
VERTEX
  5
142
  8
INFO
 10
-10.95987982847407
 20
147.4771618833174
 30
0.0
  0
VERTEX
  5
143
  8
INFO
 10
-10.78456691180742
 20
147.654856049984
 30
0.0
  0
VERTEX
  5
144
  8
INFO
 10
-10.57454771736298
 20
147.8029627444284
 30
0.0
  0
VERTEX
  5
145
  8
INFO
 10
-10.21654177291845
 20
147.9895927722062
 30
0.0
  0
SEQEND
  5
146
  8
INFO
  0
POLYLINE
  5
147
  8
INFO
 66
     1
 10
0.0
 20
0.0
 30
0.0
  0
VERTEX
  5
148
  8
INFO
 10
-14.88735482847414
 20
161.1901032999841
 30
0.0
  0
VERTEX
  5
149
  8
INFO
 10
-14.88735482847414
 20
159.7689062722063
 30
0.0
  0
VERTEX
  5
14A
  8
INFO
 10
-14.9102818562518
 20
159.5133011333173
 30
0.0
  0
VERTEX
  5
14B
  8
INFO
 10
-14.9763677173629
 20
159.272784299984
 30
0.0
  0
VERTEX
  5
14C
  8
INFO
 10
-15.08154841180738
 20
159.0513562722062
 30
0.0
  0
VERTEX
  5
14D
  8
INFO
 10
-15.2217740506963
 20
158.8530210777618
 30
0.0
  0
VERTEX
  5
14E
  8
INFO
 10
-15.39298416180736
 20
158.6817756888729
 30
0.0
  0
VERTEX
  5
14F
  8
INFO
 10
-15.59112180069627
 20
158.5416241333173
 30
0.0
  0
VERTEX
  5
150
  8
INFO
 10
-15.81213355069633
 20
158.4365598555395
 30
0.0
  0
VERTEX
  5
151
  8
INFO
 10
-16.05195893958518
 20
158.3705868833173
 30
0.0
  0
VERTEX
  5
152
  8
INFO
 10
-16.30654455069629
 20
158.3477092444284
 30
0.0
  0
VERTEX
  5
153
  8
INFO
 10
-17.0181431895852
 20
158.3477092444284
 30
0.0
  0
VERTEX
  5
154
  8
INFO
 10
-17.27262296736296
 20
158.3705868833173
 30
0.0
  0
VERTEX
  5
155
  8
INFO
 10
-17.51239543958513
 20
158.4365598555395
 30
0.0
  0
VERTEX
  5
156
  8
INFO
 10
-17.7333895506963
 20
158.5416241333173
 30
0.0
  0
VERTEX
  5
157
  8
INFO
 10
-17.93154130069632
 20
158.6817756888729
 30
0.0
  0
VERTEX
  5
158
  8
INFO
 10
-18.10278316180739
 20
158.8530210777618
 30
0.0
  0
VERTEX
  5
159
  8
INFO
 10
-18.24305113402966
 20
159.0513562722062
 30
0.0
  0
VERTEX
  5
15A
  8
INFO
 10
-18.34827416180741
 20
159.272784299984
 30
0.0
  0
VERTEX
  5
15B
  8
INFO
 10
-18.41439177291858
 20
159.5133011333173
 30
0.0
  0
VERTEX
  5
15C
  8
INFO
 10
-18.43733643958518
 20
159.7689062722063
 30
0.0
  0
VERTEX
  5
15D
  8
INFO
 10
-18.43733643958518
 20
160.4805049110951
 30
0.0
  0
VERTEX
  5
15E
  8
INFO
 10
-18.43733643958518
 20
159.7689062722063
 30
0.0
  0
VERTEX
  5
15F
  8
INFO
 10
-18.46028110625178
 20
159.5133011333173
 30
0.0
  0
VERTEX
  5
160
  8
INFO
 10
-18.52644105069623
 20
159.272784299984
 30
0.0
  0
VERTEX
  5
161
  8
INFO
 10
-18.63176638402956
 20
159.0513562722062
 30
0.0
  0
VERTEX
  5
162
  8
INFO
 10
-18.77223896736291
 20
158.8530210777618
 30
0.0
  0
VERTEX
  5
163
  8
INFO
 10
-18.94381949514081
 20
158.6817756888729
 30
0.0
  0
VERTEX
  5
164
  8
INFO
 10
-19.14247218958519
 20
158.5416241333173
 30
0.0
  0
VERTEX
  5
165
  8
INFO
 10
-19.36416127291847
 20
158.4365598555395
 30
0.0
  0
VERTEX
  5
166
  8
INFO
 10
-19.60486507847401
 20
158.3705868833173
 30
0.0
  0
VERTEX
  5
167
  8
INFO
 10
-19.86054077291851
 20
158.3477092444284
 30
0.0
  0
VERTEX
  5
168
  8
INFO
 10
-20.11501702291849
 20
158.3705868833173
 30
0.0
  0
VERTEX
  5
169
  8
INFO
 10
-20.35478949514066
 20
158.4365598555395
 30
0.0
  0
VERTEX
  5
16A
  8
INFO
 10
-20.57578007847405
 20
158.5416241333173
 30
0.0
  0
VERTEX
  5
16B
  8
INFO
 10
-20.77393535625185
 20
158.6817756888729
 30
0.0
  0
VERTEX
  5
16C
  8
INFO
 10
-20.94517721736293
 20
158.8530210777618
 30
0.0
  0
VERTEX
  5
16D
  8
INFO
 10
-21.08544166180747
 20
159.0513562722062
 30
0.0
  0
VERTEX
  5
16E
  8
INFO
 10
-21.19066821736294
 20
159.272784299984
 30
0.0
  0
VERTEX
  5
16F
  8
INFO
 10
-21.25678582847411
 20
159.5133011333173
 30
0.0
  0
VERTEX
  5
170
  8
INFO
 10
-21.27972696736299
 20
159.7689062722063
 30
0.0
  0
VERTEX
  5
171
  8
INFO
 10
-21.27972696736299
 20
161.1901032999841
 30
0.0
  0
SEQEND
  5
172
  8
INFO
  0
POLYLINE
  5
173
  8
INFO
 66
     1
 10
0.0
 20
0.0
 30
0.0
  0
VERTEX
  5
174
  8
INFO
 10
-1.580859272918588
 20
155.5319252166508
 30
0.0
  0
VERTEX
  5
175
  8
INFO
 10
1.294367810414826
 20
157.5197644944285
 30
0.0
  0
VERTEX
  5
176
  8
INFO
 10
-1.580859272918474
 20
159.5079777166507
 30
0.0
  0
SEQEND
  5
177
  8
INFO
  0
LINE
  5
178
  8
INFO
 10
1.062987921525917
 20
157.5197644944285
 30
0.0
 11
4.380040949303691
 21
157.5197644944285
 31
0.0
  0
POLYLINE
  5
179
  8
INFO
 66
     1
 10
0.0
 20
0.0
 30
0.0
  0
VERTEX
  5
17A
  8
INFO
 10
4.379903365970335
 20
145.1545647166507
 30
0.0
  0
VERTEX
  5
17B
  8
INFO
 10
4.379903365970335
 20
147.8017774110951
 30
0.0
  0
VERTEX
  5
17C
  8
INFO
 10
0.4419790881926247
 20
145.3556656888729
 30
0.0
  0
VERTEX
  5
17D
  8
INFO
 10
0.4383595881926112
 20
145.3527411610952
 30
0.0
  0
VERTEX
  5
17E
  8
INFO
 10
0.434711865970371
 20
145.3499365777618
 30
0.0
  0
VERTEX
  5
17F
  8
INFO
 10
0.4310006437481775
 20
145.347234299984
 30
0.0
  0
VERTEX
  5
180
  8
INFO
 10
0.427197699303747
 20
145.3446131610951
 30
0.0
  0
VERTEX
  5
181
  8
INFO
 10
0.4232712826369607
 20
145.3420555222062
 30
0.0
  0
VERTEX
  5
182
  8
INFO
 10
0.4191896437482114
 20
145.3395472722062
 30
0.0
  0
VERTEX
  5
183
  8
INFO
 10
0.4149280881925961
 20
145.3370672444284
 30
0.0
  0
VERTEX
  5
184
  8
INFO
 10
0.410447810414837
 20
145.334597799984
 30
0.0
  0
VERTEX
  5
185
  8
INFO
 10
0.405720588192537
 20
145.3321142444285
 30
0.0
  0
VERTEX
  5
186
  8
INFO
 10
0.1888645604147428
 20
145.2311139666506
 30
0.0
  0
VERTEX
  5
187
  8
INFO
 10
-0.0359219118074066
 20
145.1721154110951
 30
0.0
  0
VERTEX
  5
188
  8
INFO
 10
-0.2635658840295605
 20
145.1536651333174
 30
0.0
  0
VERTEX
  5
189
  8
INFO
 10
-0.4889838284740904
 20
145.1743202722063
 30
0.0
  0
VERTEX
  5
18A
  8
INFO
 10
-0.7070992729185264
 20
145.2326309110951
 30
0.0
  0
VERTEX
  5
18B
  8
INFO
 10
-0.9128322173630181
 20
145.3271612444285
 30
0.0
  0
VERTEX
  5
18C
  8
INFO
 10
-1.101102661807374
 20
145.456454299984
 30
0.0
  0
VERTEX
  5
18D
  8
INFO
 10
-1.266834134029693
 20
145.6190707444285
 30
0.0
  0
VERTEX
  5
18E
  8
INFO
 10
-1.404939578474057
 20
145.8135606610951
 30
0.0
  0
VERTEX
  5
18F
  8
INFO
 10
-1.504504050696312
 20
146.0310234666507
 30
0.0
  0
VERTEX
  5
190
  8
INFO
 10
-1.562599495140773
 20
146.2561556610951
 30
0.0
  0
VERTEX
  5
191
  8
INFO
 10
-1.580527661807423
 20
146.4839301610951
 30
0.0
  0
VERTEX
  5
192
  8
INFO
 10
-1.559600884029578
 20
146.7093128277618
 30
0.0
  0
VERTEX
  5
193
  8
INFO
 10
-1.501124439585169
 20
146.9272730499841
 30
0.0
  0
VERTEX
  5
194
  8
INFO
 10
-1.406407134029621
 20
147.1327802166507
 30
0.0
  0
VERTEX
  5
195
  8
INFO
 10
-1.276757772918529
 20
147.3207966610951
 30
0.0
  0
VERTEX
  5
196
  8
INFO
 10
-1.113481634029597
 20
147.4862882444285
 30
0.0
  0
VERTEX
  5
197
  8
INFO
 10
-0.9178875229185905
 20
147.6242243555396
 30
0.0
  0
VERTEX
  5
198
  8
INFO
 10
-0.5844631340296473
 20
147.7980379666507
 30
0.0
  0
SEQEND
  5
199
  8
INFO
  0
LINE
  5
19A
  8
INFO
 10
1.399590838192523
 20
150.0368645222063
 30
0.0
 11
1.399590838192523
 21
153.2959808555395
 31
0.0
  0
POLYLINE
  5
19B
  8
LIVELLO_01
 66
     1
 10
0.0
 20
0.0
 30
0.0
 70
     1
  0
VERTEX
  5
19C
  8
LIVELLO_01
 10
6.915222004859231
 20
188.661776688873
 30
0.0
  0
VERTEX
  5
19D
  8
LIVELLO_01
 10
6.915222004859231
 20
137.6953608277618
 30
0.0
  0
VERTEX
  5
19E
  8
LIVELLO_01
 10
2.953820365970387
 20
137.673100549984
 30
0.0
  0
VERTEX
  5
19F
  8
LIVELLO_01
 10
-5.163874995140759
 20
137.673100549984
 30
0.0
  0
VERTEX
  5
1A0
  8
LIVELLO_01
 10
-13.0866782729185
 20
137.7069566333174
 30
0.0
  0
VERTEX
  5
1A1
  8
LIVELLO_01
 10
-16.85289149514074
 20
141.4447888833173
 30
0.0
  0
VERTEX
  5
1A2
  8
LIVELLO_01
 10
-18.08715157847411
 20
142.6785444944285
 30
0.0
  0
VERTEX
  5
1A3
  8
LIVELLO_01
 10
-18.76836193958519
 20
143.3594973277617
 30
0.0
  0
VERTEX
  5
1A4
  8
LIVELLO_01
 10
-20.58738999514071
 20
145.1778339388729
 30
0.0
  0
VERTEX
  5
1A5
  8
LIVELLO_01
 10
-20.99415335625184
 20
145.5844420777618
 30
0.0
  0
VERTEX
  5
1A6
  8
LIVELLO_01
 10
-22.06033952291858
 20
146.6747935222063
 30
0.0
  0
VERTEX
  5
1A7
  8
LIVELLO_01
 10
-23.08762841180749
 20
147.7011934110951
 30
0.0
  0
VERTEX
  5
1A8
  8
LIVELLO_01
 10
-23.08762841180749
 20
192.8576591333174
 30
0.0
  0
VERTEX
  5
1A9
  8
LIVELLO_01
 10
-20.1621516618074
 20
192.8576591333174
 30
0.0
  0
VERTEX
  5
1AA
  8
LIVELLO_01
 10
-19.96215488402964
 20
167.8931033277618
 30
0.0
  0
VERTEX
  5
1AB
  8
LIVELLO_01
 10
-16.21215180069629
 20
167.8931033277618
 30
0.0
  0
VERTEX
  5
1AC
  8
LIVELLO_01
 10
-16.21215180069629
 20
192.7951574944286
 30
0.0
  0
VERTEX
  5
1AD
  8
LIVELLO_01
 10
-13.58672313402957
 20
192.8576591333174
 30
0.0
  0
VERTEX
  5
1AE
  8
LIVELLO_01
 10
-13.58672313402957
 20
171.457626438873
 30
0.0
  0
VERTEX
  5
1AF
  8
LIVELLO_01
 10
-10.16120152291859
 20
171.457626438873
 30
0.0
  0
VERTEX
  5
1B0
  8
LIVELLO_01
 10
-9.961201217362941
 20
154.6966038833173
 30
0.0
  0
VERTEX
  5
1B1
  8
LIVELLO_01
 10
-6.211201661807422
 20
154.6966038833173
 30
0.0
  0
VERTEX
  5
1B2
  8
LIVELLO_01
 10
-6.211201661807422
 20
171.395124799984
 30
0.0
  0
VERTEX
  5
1B3
  8
LIVELLO_01
 10
-3.005330078474003
 20
171.457626438873
 30
0.0
  0
VERTEX
  5
1B4
  8
LIVELLO_01
 10
-1.085538106251875
 20
171.457626438873
 30
0.0
  0
VERTEX
  5
1B5
  8
LIVELLO_01
 10
-1.085538106251875
 20
192.8576591333174
 30
0.0
  0
VERTEX
  5
1B6
  8
LIVELLO_01
 10
-0.1602549118073853
 20
192.8576591333174
 30
0.0
  0
VERTEX
  5
1B7
  8
LIVELLO_01
 10
0.0397453937481487
 20
165.3903778277618
 30
0.0
  0
VERTEX
  5
1B8
  8
LIVELLO_01
 10
3.789748477081559
 20
165.3903778277618
 30
0.0
  0
VERTEX
  5
1B9
  8
LIVELLO_01
 10
3.789748477081559
 20
192.7951574944286
 30
0.0
  0
VERTEX
  5
1BA
  8
LIVELLO_01
 10
6.915222004859231
 20
192.8576591333174
 30
0.0
  0
SEQEND
  5
1BB
  8
LIVELLO_01
  0
POLYLINE
  5
1BC
  8
INFO
 66
     1
 10
0.0
 20
0.0
 30
0.0
  0
VERTEX
  5
1BD
  8
INFO
 10
-0.9138502493228629
 20
31.85854201560562
 30
0.0
  0
VERTEX
  5
1BE
  8
INFO
 10
-7.313849443767353
 20
31.85854201560565
 30
0.0
  0
VERTEX
  5
1BF
  8
INFO
 10
-5.890645110434193
 20
33.28134418227231
 30
0.0
  0
SEQEND
  5
1C0
  8
INFO
  0
POLYLINE
  5
1C1
  8
INFO
 66
     1
 10
0.0
 20
0.0
 30
0.0
  0
VERTEX
  5
1C2
  8
INFO
 10
-10.91474747154517
 20
31.14894715449452
 30
0.0
  0
VERTEX
  5
1C3
  8
INFO
 10
-10.91474747154517
 20
33.99134121005011
 30
0.0
  0
VERTEX
  5
1C4
  8
INFO
 10
-15.14301844376739
 20
31.36487537671667
 30
0.0
  0
VERTEX
  5
1C5
  8
INFO
 10
-15.14690252710078
 20
31.36173565449451
 30
0.0
  0
VERTEX
  5
1C6
  8
INFO
 10
-15.15082188821178
 20
31.35872646005012
 30
0.0
  0
VERTEX
  5
1C7
  8
INFO
 10
-15.15480827710074
 20
31.35582662671672
 30
0.0
  0
VERTEX
  5
1C8
  8
INFO
 10
-15.15888991598966
 20
31.35301146005006
 30
0.0
  0
VERTEX
  5
1C9
  8
INFO
 10
-15.16310561043404
 20
31.35026684893899
 30
0.0
  0
VERTEX
  5
1CA
  8
INFO
 10
-15.16748711043401
 20
31.34757162671673
 30
0.0
  0
VERTEX
  5
1CB
  8
INFO
 10
-15.17206616598968
 20
31.34490815449456
 30
0.0
  0
VERTEX
  5
1CC
  8
INFO
 10
-15.17687452710071
 20
31.34225526560562
 30
0.0
  0
VERTEX
  5
1CD
  8
INFO
 10
-15.18195099932295
 20
31.33959179338351
 30
0.0
  0
VERTEX
  5
1CE
  8
INFO
 10
-15.41479138821181
 20
31.23114437671671
 30
0.0
  0
VERTEX
  5
1CF
  8
INFO
 10
-15.6561548882119
 20
31.1677925433834
 30
0.0
  0
VERTEX
  5
1D0
  8
INFO
 10
-15.90058049932291
 20
31.14798054338334
 30
0.0
  0
VERTEX
  5
1D1
  8
INFO
 10
-16.14262133265622
 20
31.17015968227227
 30
0.0
  0
VERTEX
  5
1D2
  8
INFO
 10
-16.37681991598963
 20
31.23277421005005
 30
0.0
  0
VERTEX
  5
1D3
  8
INFO
 10
-16.59771877710067
 20
31.33426837671675
 30
0.0
  0
VERTEX
  5
1D4
  8
INFO
 10
-16.79987102710065
 20
31.47309701560562
 30
0.0
  0
VERTEX
  5
1D5
  8
INFO
 10
-16.97781919376733
 20
31.64770437671675
 30
0.0
  0
VERTEX
  5
1D6
  8
INFO
 10
-17.12611286043408
 20
31.85653471005008
 30
0.0
  0
VERTEX
  5
1D7
  8
INFO
 10
-17.23301511043415
 20
32.09002773782785
 30
0.0
  0
VERTEX
  5
1D8
  8
INFO
 10
-17.29539327710067
 20
32.33175812671675
 30
0.0
  0
VERTEX
  5
1D9
  8
INFO
 10
-17.31464436043403
 20
32.5763283767167
 30
0.0
  0
VERTEX
  5
1DA
  8
INFO
 10
-17.29217241598955
 20
32.81833040449445
 30
0.0
  0
VERTEX
  5
1DB
  8
INFO
 10
-17.22938502710075
 20
33.0523631822723
 30
0.0
  0
VERTEX
  5
1DC
  8
INFO
 10
-17.12768624932288
 20
33.27302215449447
 30
0.0
  0
VERTEX
  5
1DD
  8
INFO
 10
-16.98847661043412
 20
33.47489923782777
 30
0.0
  0
VERTEX
  5
1DE
  8
INFO
 10
-16.81316369376741
 20
33.6525934044945
 30
0.0
  0
VERTEX
  5
1DF
  8
INFO
 10
-16.60314449932297
 20
33.80069657116115
 30
0.0
  0
VERTEX
  5
1E0
  8
INFO
 10
-16.24513855487855
 20
33.98732659893892
 30
0.0
  0
SEQEND
  5
1E1
  8
INFO
  0
POLYLINE
  5
1E2
  8
INFO
 66
     1
 10
0.0
 20
0.0
 30
0.0
  0
VERTEX
  5
1E3
  8
INFO
 10
-20.91595161043408
 20
32.77537265449453
 30
0.0
  0
VERTEX
  5
1E4
  8
INFO
 10
-20.91595161043408
 20
31.35417562671677
 30
0.0
  0
VERTEX
  5
1E5
  8
INFO
 10
-20.9388786382119
 20
31.09856696005011
 30
0.0
  0
VERTEX
  5
1E6
  8
INFO
 10
-21.0049644993229
 20
30.85805365449448
 30
0.0
  0
VERTEX
  5
1E7
  8
INFO
 10
-21.11014519376731
 20
30.63662562671672
 30
0.0
  0
VERTEX
  5
1E8
  8
INFO
 10
-21.25037083265634
 20
30.43829043227223
 30
0.0
  0
VERTEX
  5
1E9
  8
INFO
 10
-21.42158094376735
 20
30.26704504338343
 30
0.0
  0
VERTEX
  5
1EA
  8
INFO
 10
-21.61971858265626
 20
30.12689348782783
 30
0.0
  0
VERTEX
  5
1EB
  8
INFO
 10
-21.84073033265626
 20
30.02182921005007
 30
0.0
  0
VERTEX
  5
1EC
  8
INFO
 10
-22.08055572154517
 20
29.95585623782787
 30
0.0
  0
VERTEX
  5
1ED
  8
INFO
 10
-22.33514133265622
 20
29.93297859893892
 30
0.0
  0
VERTEX
  5
1EE
  8
INFO
 10
-23.04673997154519
 20
29.93297859893894
 30
0.0
  0
VERTEX
  5
1EF
  8
INFO
 10
-23.3012197493229
 20
29.9558562378279
 30
0.0
  0
VERTEX
  5
1F0
  8
INFO
 10
-23.54099222154512
 20
30.02182921005004
 30
0.0
  0
VERTEX
  5
1F1
  8
INFO
 10
-23.76198633265624
 20
30.12689348782786
 30
0.0
  0
VERTEX
  5
1F2
  8
INFO
 10
-23.96013808265631
 20
30.2670450433834
 30
0.0
  0
VERTEX
  5
1F3
  8
INFO
 10
-24.13137994376733
 20
30.43829043227223
 30
0.0
  0
VERTEX
  5
1F4
  8
INFO
 10
-24.27164791598965
 20
30.63662562671672
 30
0.0
  0
VERTEX
  5
1F5
  8
INFO
 10
-24.37687094376734
 20
30.85805365449448
 30
0.0
  0
VERTEX
  5
1F6
  8
INFO
 10
-24.44298855487851
 20
31.09856696005011
 30
0.0
  0
VERTEX
  5
1F7
  8
INFO
 10
-24.46593322154523
 20
31.35417562671677
 30
0.0
  0
VERTEX
  5
1F8
  8
INFO
 10
-24.46593322154523
 20
32.06577779338338
 30
0.0
  0
VERTEX
  5
1F9
  8
INFO
 10
-24.46593322154523
 20
31.35417562671677
 30
0.0
  0
VERTEX
  5
1FA
  8
INFO
 10
-24.48887788821177
 20
31.09856696005008
 30
0.0
  0
VERTEX
  5
1FB
  8
INFO
 10
-24.55503783265623
 20
30.85805365449448
 30
0.0
  0
VERTEX
  5
1FC
  8
INFO
 10
-24.66036316598955
 20
30.63662562671672
 30
0.0
  0
VERTEX
  5
1FD
  8
INFO
 10
-24.8008357493229
 20
30.4382904322722
 30
0.0
  0
VERTEX
  5
1FE
  8
INFO
 10
-24.97241627710075
 20
30.2670450433834
 30
0.0
  0
VERTEX
  5
1FF
  8
INFO
 10
-25.17106897154513
 20
30.12689348782786
 30
0.0
  0
VERTEX
  5
200
  8
INFO
 10
-25.39275805487857
 20
30.02182921005007
 30
0.0
  0
VERTEX
  5
201
  8
INFO
 10
-25.633461860434
 20
29.9558562378279
 30
0.0
  0
VERTEX
  5
202
  8
INFO
 10
-25.88913755487845
 20
29.93297859893892
 30
0.0
  0
VERTEX
  5
203
  8
INFO
 10
-26.14361380487843
 20
29.95585623782785
 30
0.0
  0
VERTEX
  5
204
  8
INFO
 10
-26.38338627710077
 20
30.02182921005007
 30
0.0
  0
VERTEX
  5
205
  8
INFO
 10
-26.60437686043404
 20
30.1268934878278
 30
0.0
  0
VERTEX
  5
206
  8
INFO
 10
-26.80253213821184
 20
30.2670450433834
 30
0.0
  0
VERTEX
  5
207
  8
INFO
 10
-26.97377399932286
 20
30.43829043227225
 30
0.0
  0
VERTEX
  5
208
  8
INFO
 10
-27.1140384437674
 20
30.63662562671672
 30
0.0
  0
VERTEX
  5
209
  8
INFO
 10
-27.21926499932287
 20
30.85805365449454
 30
0.0
  0
VERTEX
  5
20A
  8
INFO
 10
-27.28538261043404
 20
31.09856696005008
 30
0.0
  0
VERTEX
  5
20B
  8
INFO
 10
-27.30832374932298
 20
31.35417562671674
 30
0.0
  0
VERTEX
  5
20C
  8
INFO
 10
-27.30832374932298
 20
32.7753726544945
 30
0.0
  0
SEQEND
  5
20D
  8
INFO
  0
POLYLINE
  5
20E
  8
INFO
 66
     1
 10
0.0
 20
0.0
 30
0.0
  0
VERTEX
  5
20F
  8
INFO
 10
-15.58766308265625
 20
29.15311393227228
 30
0.0
  0
VERTEX
  5
210
  8
INFO
 10
-12.21535094376746
 20
31.48462226560565
 30
0.0
  0
VERTEX
  5
211
  8
INFO
 10
-15.58766308265625
 20
33.81656804338337
 30
0.0
  0
SEQEND
  5
212
  8
INFO
  0
LINE
  5
213
  8
INFO
 10
-12.48673230487849
 20
31.48462226560565
 30
0.0
 11
-8.596207249322944
 21
31.48462226560568
 31
0.0
  0
LINE
  5
214
  8
INFO
 10
-12.09193516598968
 20
22.7080367933834
 30
0.0
 11
-12.09193516598974
 21
26.5306062656056
 31
0.0
  0
POLYLINE
  5
215
  8
INFO
 66
     1
 10
0.0
 20
0.0
 30
0.0
  0
VERTEX
  5
216
  8
INFO
 10
-8.596369527100691
 20
16.98165618227225
 30
0.0
  0
VERTEX
  5
217
  8
INFO
 10
-8.596369527100691
 20
20.08653454338335
 30
0.0
  0
VERTEX
  5
218
  8
INFO
 10
-13.21510552710076
 20
17.21752693227234
 30
0.0
  0
VERTEX
  5
219
  8
INFO
 10
-13.21934944376743
 20
17.21409793227224
 30
0.0
  0
VERTEX
  5
21A
  8
INFO
 10
-13.22363216598966
 20
17.21080298782786
 30
0.0
  0
VERTEX
  5
21B
  8
INFO
 10
-13.22798191598956
 20
17.20763857116123
 30
0.0
  0
VERTEX
  5
21C
  8
INFO
 10
-13.23244455487848
 20
17.20456587671674
 30
0.0
  0
VERTEX
  5
21D
  8
INFO
 10
-13.23704830487848
 20
17.20156726560558
 30
0.0
  0
VERTEX
  5
21E
  8
INFO
 10
-13.24183549932296
 20
17.19862157116114
 30
0.0
  0
VERTEX
  5
21F
  8
INFO
 10
-13.24683436043408
 20
17.19571468227227
 30
0.0
  0
VERTEX
  5
220
  8
INFO
 10
-13.25209074932296
 20
17.19281484893898
 30
0.0
  0
VERTEX
  5
221
  8
INFO
 10
-13.25763288821189
 20
17.18990796005002
 30
0.0
  0
VERTEX
  5
222
  8
INFO
 10
-13.51197861043413
 20
17.0714451822723
 30
0.0
  0
VERTEX
  5
223
  8
INFO
 10
-13.77563061043411
 20
17.00224076560556
 30
0.0
  0
VERTEX
  5
224
  8
INFO
 10
-14.04263047154517
 20
16.98060137671675
 30
0.0
  0
VERTEX
  5
225
  8
INFO
 10
-14.30701977710065
 20
17.00482662671675
 30
0.0
  0
VERTEX
  5
226
  8
INFO
 10
-14.56284363821179
 20
17.07321965449455
 30
0.0
  0
VERTEX
  5
227
  8
INFO
 10
-14.80414716598965
 20
17.18409418227225
 30
0.0
  0
VERTEX
  5
228
  8
INFO
 10
-15.0249648882119
 20
17.33574276560566
 30
0.0
  0
VERTEX
  5
229
  8
INFO
 10
-15.21934544376744
 20
17.52647207116118
 30
0.0
  0
VERTEX
  5
22A
  8
INFO
 10
-15.38133041598961
 20
17.7545852378278
 30
0.0
  0
VERTEX
  5
22B
  8
INFO
 10
-15.49811044376735
 20
18.0096400433834
 30
0.0
  0
VERTEX
  5
22C
  8
INFO
 10
-15.56624594376738
 20
18.27369773782789
 30
0.0
  0
VERTEX
  5
22D
  8
INFO
 10
-15.58727502710063
 20
18.5408528211612
 30
0.0
  0
VERTEX
  5
22E
  8
INFO
 10
-15.562728749323
 20
18.80519979338334
 30
0.0
  0
VERTEX
  5
22F
  8
INFO
 10
-15.49414522154517
 20
19.06084726560564
 30
0.0
  0
VERTEX
  5
230
  8
INFO
 10
-15.38305197154521
 20
19.30187915449457
 30
0.0
  0
VERTEX
  5
231
  8
INFO
 10
-15.2309871104341
 20
19.52240054338333
 30
0.0
  0
VERTEX
  5
232
  8
INFO
 10
-15.03948169376734
 20
19.71650240449449
 30
0.0
  0
VERTEX
  5
233
  8
INFO
 10
-14.8100738326563
 20
19.87828629338335
 30
0.0
  0
VERTEX
  5
234
  8
INFO
 10
-14.41900202710069
 20
20.08215304338336
 30
0.0
  0
SEQEND
  5
235
  8
INFO
  0
POLYLINE
  5
236
  8
INFO
 66
     1
 10
0.0
 20
0.0
 30
0.0
  0
VERTEX
  5
237
  8
INFO
 10
-34.41149206932572
 20
138.6258948841737
 30
0.0
  0
VERTEX
  5
238
  8
INFO
 10
-40.81149126377015
 20
138.6258948841737
 30
0.0
  0
VERTEX
  5
239
  8
INFO
 10
-39.38828693043682
 20
140.0486970508404
 30
0.0
  0
SEQEND
  5
23A
  8
INFO
  0
POLYLINE
  5
23B
  8
INFO
 66
     1
 10
0.0
 20
0.0
 30
0.0
  0
VERTEX
  5
23C
  8
INFO
 10
-44.41238929154791
 20
137.9163000230626
 30
0.0
  0
VERTEX
  5
23D
  8
INFO
 10
-44.41238929154797
 20
140.7586940786182
 30
0.0
  0
VERTEX
  5
23E
  8
INFO
 10
-48.64066026377007
 20
138.1322282452848
 30
0.0
  0
VERTEX
  5
23F
  8
INFO
 10
-48.64454434710341
 20
138.1290885230626
 30
0.0
  0
VERTEX
  5
240
  8
INFO
 10
-48.64846370821452
 20
138.1260758008404
 30
0.0
  0
VERTEX
  5
241
  8
INFO
 10
-48.65245009710343
 20
138.123175967507
 30
0.0
  0
VERTEX
  5
242
  8
INFO
 10
-48.65653173599229
 20
138.1203643286181
 30
0.0
  0
VERTEX
  5
243
  8
INFO
 10
-48.66074743043673
 20
138.117619717507
 30
0.0
  0
VERTEX
  5
244
  8
INFO
 10
-48.66512893043681
 20
138.1149280230626
 30
0.0
  0
VERTEX
  5
245
  8
INFO
 10
-48.6697079859923
 20
138.1122610230626
 30
0.0
  0
VERTEX
  5
246
  8
INFO
 10
-48.67451634710334
 20
138.1096081341737
 30
0.0
  0
VERTEX
  5
247
  8
INFO
 10
-48.6795928193258
 20
138.1069446619515
 30
0.0
  0
VERTEX
  5
248
  8
INFO
 10
-48.91243320821467
 20
137.9984972452848
 30
0.0
  0
VERTEX
  5
249
  8
INFO
 10
-49.15379670821453
 20
137.9351454119515
 30
0.0
  0
VERTEX
  5
24A
  8
INFO
 10
-49.39822231932565
 20
137.9153334119515
 30
0.0
  0
VERTEX
  5
24B
  8
INFO
 10
-49.64026315265902
 20
137.9375090230626
 30
0.0
  0
VERTEX
  5
24C
  8
INFO
 10
-49.87446173599231
 20
138.0001235508403
 30
0.0
  0
VERTEX
  5
24D
  8
INFO
 10
-50.09536059710341
 20
138.1016212452847
 30
0.0
  0
VERTEX
  5
24E
  8
INFO
 10
-50.2975128471035
 20
138.2404498841738
 30
0.0
  0
VERTEX
  5
24F
  8
INFO
 10
-50.47546101377013
 20
138.4150572452849
 30
0.0
  0
VERTEX
  5
250
  8
INFO
 10
-50.62375468043676
 20
138.6238875786182
 30
0.0
  0
VERTEX
  5
251
  8
INFO
 10
-50.73065693043684
 20
138.8573770786181
 30
0.0
  0
VERTEX
  5
252
  8
INFO
 10
-50.79303509710347
 20
139.0991109952848
 30
0.0
  0
VERTEX
  5
253
  8
INFO
 10
-50.81228618043689
 20
139.343677717507
 30
0.0
  0
VERTEX
  5
254
  8
INFO
 10
-50.7898142359923
 20
139.5856832730626
 30
0.0
  0
VERTEX
  5
255
  8
INFO
 10
-50.72702684710337
 20
139.8197160508404
 30
0.0
  0
VERTEX
  5
256
  8
INFO
 10
-50.62532806932573
 20
140.0403714952848
 30
0.0
  0
VERTEX
  5
257
  8
INFO
 10
-50.4861184304368
 20
140.2422485786182
 30
0.0
  0
VERTEX
  5
258
  8
INFO
 10
-50.31080551377015
 20
140.4199427452848
 30
0.0
  0
VERTEX
  5
259
  8
INFO
 10
-50.10078631932565
 20
140.5680494397292
 30
0.0
  0
VERTEX
  5
25A
  8
INFO
 10
-49.74278037488124
 20
140.754679467507
 30
0.0
  0
SEQEND
  5
25B
  8
INFO
  0
POLYLINE
  5
25C
  8
INFO
 66
     1
 10
0.0
 20
0.0
 30
0.0
  0
VERTEX
  5
25D
  8
INFO
 10
-54.41359343043671
 20
139.5427219952848
 30
0.0
  0
VERTEX
  5
25E
  8
INFO
 10
-54.41359343043671
 20
138.1215249675071
 30
0.0
  0
VERTEX
  5
25F
  8
INFO
 10
-54.43652045821459
 20
137.8659198286182
 30
0.0
  0
VERTEX
  5
260
  8
INFO
 10
-54.50260631932564
 20
137.6254029952848
 30
0.0
  0
VERTEX
  5
261
  8
INFO
 10
-54.60778701377016
 20
137.4039784952849
 30
0.0
  0
VERTEX
  5
262
  8
INFO
 10
-54.74801265265909
 20
137.2056433008404
 30
0.0
  0
VERTEX
  5
263
  8
INFO
 10
-54.91922276377015
 20
137.0343979119515
 30
0.0
  0
VERTEX
  5
264
  8
INFO
 10
-55.11736040265906
 20
136.8942428286182
 30
0.0
  0
VERTEX
  5
265
  8
INFO
 10
-55.33837215265895
 20
136.7891785508404
 30
0.0
  0
VERTEX
  5
266
  8
INFO
 10
-55.57819754154796
 20
136.7232091063959
 30
0.0
  0
VERTEX
  5
267
  8
INFO
 10
-55.83278315265908
 20
136.7003279397293
 30
0.0
  0
VERTEX
  5
268
  8
INFO
 10
-56.54438179154788
 20
136.7003279397293
 30
0.0
  0
VERTEX
  5
269
  8
INFO
 10
-56.79886156932569
 20
136.7232091063958
 30
0.0
  0
VERTEX
  5
26A
  8
INFO
 10
-57.03863404154792
 20
136.7891785508404
 30
0.0
  0
VERTEX
  5
26B
  8
INFO
 10
-57.25962815265909
 20
136.8942428286182
 30
0.0
  0
VERTEX
  5
26C
  8
INFO
 10
-57.457779902659
 20
137.0343979119514
 30
0.0
  0
VERTEX
  5
26D
  8
INFO
 10
-57.62902176377018
 20
137.2056433008404
 30
0.0
  0
VERTEX
  5
26E
  8
INFO
 10
-57.76928973599233
 20
137.4039784952849
 30
0.0
  0
VERTEX
  5
26F
  8
INFO
 10
-57.87451276377014
 20
137.6254029952848
 30
0.0
  0
VERTEX
  5
270
  8
INFO
 10
-57.9406303748812
 20
137.8659198286181
 30
0.0
  0
VERTEX
  5
271
  8
INFO
 10
-57.96357504154786
 20
138.1215249675071
 30
0.0
  0
VERTEX
  5
272
  8
INFO
 10
-57.96357504154791
 20
138.8331271341737
 30
0.0
  0
VERTEX
  5
273
  8
INFO
 10
-57.96357504154786
 20
138.1215249675071
 30
0.0
  0
VERTEX
  5
274
  8
INFO
 10
-57.98651970821457
 20
137.8659198286181
 30
0.0
  0
VERTEX
  5
275
  8
INFO
 10
-58.05267965265897
 20
137.6254029952848
 30
0.0
  0
VERTEX
  5
276
  8
INFO
 10
-58.15800498599235
 20
137.4039784952849
 30
0.0
  0
VERTEX
  5
277
  8
INFO
 10
-58.2984775693257
 20
137.2056433008404
 30
0.0
  0
VERTEX
  5
278
  8
INFO
 10
-58.47005809710343
 20
137.0343979119515
 30
0.0
  0
VERTEX
  5
279
  8
INFO
 10
-58.66871079154798
 20
136.8942428286182
 30
0.0
  0
VERTEX
  5
27A
  8
INFO
 10
-58.89039987488125
 20
136.7891785508404
 30
0.0
  0
VERTEX
  5
27B
  8
INFO
 10
-59.13110368043679
 20
136.7232091063959
 30
0.0
  0
VERTEX
  5
27C
  8
INFO
 10
-59.38677937488124
 20
136.7003279397293
 30
0.0
  0
VERTEX
  5
27D
  8
INFO
 10
-59.64125562488128
 20
136.7232091063959
 30
0.0
  0
VERTEX
  5
27E
  8
INFO
 10
-59.8810280971034
 20
136.7891785508404
 30
0.0
  0
VERTEX
  5
27F
  8
INFO
 10
-60.10201868043679
 20
136.8942428286182
 30
0.0
  0
VERTEX
  5
280
  8
INFO
 10
-60.30017395821453
 20
137.0343979119515
 30
0.0
  0
VERTEX
  5
281
  8
INFO
 10
-60.47141581932566
 20
137.2056433008403
 30
0.0
  0
VERTEX
  5
282
  8
INFO
 10
-60.61168026377003
 20
137.4039784952849
 30
0.0
  0
VERTEX
  5
283
  8
INFO
 10
-60.71690681932567
 20
137.6254029952848
 30
0.0
  0
VERTEX
  5
284
  8
INFO
 10
-60.78302443043667
 20
137.8659198286182
 30
0.0
  0
VERTEX
  5
285
  8
INFO
 10
-60.80596556932566
 20
138.121524967507
 30
0.0
  0
VERTEX
  5
286
  8
INFO
 10
-60.80596556932566
 20
139.5427219952848
 30
0.0
  0
SEQEND
  5
287
  8
INFO
  0
POLYLINE
  5
288
  8
INFO
 66
     1
 10
0.0
 20
0.0
 30
0.0
  0
VERTEX
  5
289
  8
INFO
 10
-50.25065690265892
 20
136.1372628563959
 30
0.0
  0
VERTEX
  5
28A
  8
INFO
 10
-45.75405609710349
 20
139.2460676341738
 30
0.0
  0
VERTEX
  5
28B
  8
INFO
 10
-50.25065690265897
 20
142.3554580230626
 30
0.0
  0
SEQEND
  5
28C
  8
INFO
  0
LINE
  5
28D
  8
INFO
 10
-46.11591084710339
 20
139.2460676341738
 30
0.0
 11
-40.92833126377
 21
139.2460676341738
 31
0.0
  0
LINE
  5
28E
  8
INFO
 10
-45.58949584710352
 20
127.5434691897293
 30
0.0
 11
-45.58949584710352
 21
132.6404413286181
 31
0.0
  0
POLYLINE
  5
28F
  8
INFO
 66
     1
 10
0.0
 20
0.0
 30
0.0
  0
VERTEX
  5
290
  8
INFO
 10
-40.92862406932566
 20
121.9760608286182
 30
0.0
  0
VERTEX
  5
291
  8
INFO
 10
-50.25036409710343
 20
121.9760608286182
 30
0.0
  0
VERTEX
  5
292
  8
INFO
 10
-48.17743834710346
 20
124.048400967507
 30
0.0
  0
SEQEND
  5
293
  8
INFO
  0
POLYLINE
  5
294
  8
LIVELLO_01
 66
     1
 10
0.0
 20
0.0
 30
0.0
 70
     1
  0
VERTEX
  5
295
  8
LIVELLO_01
 10
103.9417021043274
 20
120.6017788008491
 30
0.0
  0
VERTEX
  5
296
  8
LIVELLO_01
 10
112.7349407597634
 20
103.0118625230714
 30
0.0
  0
VERTEX
  5
297
  8
LIVELLO_01
 10
113.2530055097634
 20
101.8745739952936
 30
0.0
  0
VERTEX
  5
298
  8
LIVELLO_01
 10
113.7757375097634
 20
100.7250088008491
 30
0.0
  0
VERTEX
  5
299
  8
LIVELLO_01
 10
114.1587624542079
 20
99.47988668973804
 30
0.0
  0
VERTEX
  5
29A
  8
LIVELLO_01
 10
114.5384042597634
 20
98.25611468973801
 30
0.0
  0
VERTEX
  5
29B
  8
LIVELLO_01
 10
114.7608271208746
 20
96.97198593973806
 30
0.0
  0
VERTEX
  5
29C
  8
LIVELLO_01
 10
114.9788226208746
 20
95.68692232862693
 30
0.0
  0
VERTEX
  5
29D
  8
LIVELLO_01
 10
115.0320920653189
 20
94.37349185640468
 30
0.0
  0
VERTEX
  5
29E
  8
LIVELLO_01
 10
115.0809976486523
 20
93.06670066196025
 30
0.0
  0
VERTEX
  5
29F
  8
LIVELLO_01
 10
114.9615470930967
 20
91.75763052307138
 30
0.0
  0
VERTEX
  5
2A0
  8
LIVELLO_01
 10
114.839560065319
 20
90.45586993973805
 30
0.0
  0
VERTEX
  5
2A1
  8
LIVELLO_01
 10
114.5526494264301
 20
89.18459641196029
 30
0.0
  0
VERTEX
  5
2A2
  8
LIVELLO_01
 10
114.2651249542078
 20
87.92074180084916
 30
0.0
  0
VERTEX
  5
2A3
  8
LIVELLO_01
 10
113.8242338708745
 20
86.71767080084916
 30
0.0
  0
VERTEX
  5
2A4
  8
LIVELLO_01
 10
113.384521065319
 20
85.52162007862694
 30
0.0
  0
VERTEX
  5
2A5
  8
LIVELLO_01
 10
112.8097543430968
 20
84.4119011341825
 30
0.0
  0
VERTEX
  5
2A6
  8
LIVELLO_01
 10
112.2376969542079
 20
83.30831699529361
 30
0.0
  0
VERTEX
  5
2A7
  8
LIVELLO_01
 10
111.5290122597634
 20
82.27894671751582
 30
0.0
  0
VERTEX
  5
2A8
  8
LIVELLO_01
 10
110.8040892042079
 20
81.22894599529357
 30
0.0
  0
VERTEX
  5
2A9
  8
LIVELLO_01
 10
109.9500388986523
 20
80.27378252307139
 30
0.0
  0
VERTEX
  5
2AA
  8
LIVELLO_01
 10
109.0875466208745
 20
79.31505246751581
 30
0.0
  0
VERTEX
  5
2AB
  8
LIVELLO_01
 10
108.1008412875412
 20
78.46364093973801
 30
0.0
  0
VERTEX
  5
2AC
  8
LIVELLO_01
 10
107.111070315319
 20
77.61555610640468
 30
0.0
  0
VERTEX
  5
2AD
  8
LIVELLO_01
 10
106.0122204542079
 20
76.89412202307136
 30
0.0
  0
VERTEX
  5
2AE
  8
LIVELLO_01
 10
104.9168242875412
 20
76.17984580084914
 30
0.0
  0
VERTEX
  5
2AF
  8
LIVELLO_01
 10
103.7328420930967
 20
75.60876560640472
 30
0.0
  0
VERTEX
  5
2B0
  8
LIVELLO_01
 10
102.553834065319
 20
75.04361913418248
 30
0.0
  0
VERTEX
  5
2B1
  8
LIVELLO_01
 10
101.3161061764301
 20
74.63557166196028
 30
0.0
  0
VERTEX
  5
2B2
  8
LIVELLO_01
 10
100.0844284264301
 20
74.23188099529361
 30
0.0
  0
VERTEX
  5
2B3
  8
LIVELLO_01
 10
98.82597131531895
 20
73.99096199529359
 30
0.0
  0
VERTEX
  5
2B4
  8
LIVELLO_01
 10
97.57412878754121
 20
73.75264649529362
 30
0.0
  0
VERTEX
  5
2B5
  8
LIVELLO_01
 10
96.95673945420788
 20
73.78901435640469
 30
0.0
  0
VERTEX
  5
2B6
  8
LIVELLO_01
 10
96.95673945420788
 20
105.8362331619603
 30
0.0
  0
VERTEX
  5
2B7
  8
LIVELLO_01
 10
93.2067398986523
 20
105.8362331619603
 30
0.0
  0
VERTEX
  5
2B8
  8
LIVELLO_01
 10
93.2067398986523
 20
73.6598130230714
 30
0.0
  0
VERTEX
  5
2B9
  8
LIVELLO_01
 10
75.08429850976341
 20
73.59731491196027
 30
0.0
  0
VERTEX
  5
2BA
  8
LIVELLO_01
 10
17.15673042643006
 20
73.59731491196027
 30
0.0
  0
VERTEX
  5
2BB
  8
LIVELLO_01
 10
16.95673364865229
 20
105.8348996619603
 30
0.0
  0
VERTEX
  5
2BC
  8
LIVELLO_01
 10
13.20673409309677
 20
105.8348996619603
 30
0.0
  0
VERTEX
  5
2BD
  8
LIVELLO_01
 10
13.20673409309678
 20
73.79118746751584
 30
0.0
  0
VERTEX
  5
2BE
  8
LIVELLO_01
 10
12.55796870420785
 20
73.75678105084916
 30
0.0
  0
VERTEX
  5
2BF
  8
LIVELLO_01
 10
11.29951864865235
 20
73.99770005084915
 30
0.0
  0
VERTEX
  5
2C0
  8
LIVELLO_01
 10
10.03366378754124
 20
74.24402360640468
 30
0.0
  0
VERTEX
  5
2C1
  8
LIVELLO_01
 10
8.795935898652388
 20
74.65207460640468
 30
0.0
  0
VERTEX
  5
2C2
  8
LIVELLO_01
 10
7.559470954207839
 20
75.06445066196028
 30
0.0
  0
VERTEX
  5
2C3
  8
LIVELLO_01
 10
6.375488759763371
 20
75.6355308564047
 30
0.0
  0
VERTEX
  5
2C4
  8
LIVELLO_01
 10
5.199429954207929
 20
76.20734130084918
 30
0.0
  0
VERTEX
  5
2C5
  8
LIVELLO_01
 10
4.100573037541167
 20
76.9287753841825
 30
0.0
  0
VERTEX
  5
2C6
  8
LIVELLO_01
 10
3.009371398652263
 20
77.6489959119603
 30
0.0
  0
VERTEX
  5
2C7
  8
LIVELLO_01
 10
2.022673120874572
 20
78.50040743973804
 30
0.0
  0
VERTEX
  5
2C8
  8
LIVELLO_01
 10
1.042815204207841
 20
79.34885916196029
 30
0.0
  0
VERTEX
  5
2C9
  8
LIVELLO_01
 10
0.18876489865238
 20
80.3040226341825
 30
0.0
  0
VERTEX
  5
2CA
  8
LIVELLO_01
 10
-0.6596656569033144
 20
81.2548575230714
 30
0.0
  0
VERTEX
  5
2CB
  8
LIVELLO_01
 10
-1.368343295792158
 20
82.28423132862693
 30
0.0
  0
VERTEX
  5
2CC
  8
LIVELLO_01
 10
-2.072886379125407
 20
83.30831699529361
 30
0.0
  0
VERTEX
  5
2CD
  8
LIVELLO_01
 10
-2.647656629125493
 20
84.41803593973805
 30
0.0
  0
VERTEX
  5
2CE
  8
LIVELLO_01
 10
-3.232989045792181
 20
85.55179668973804
 30
0.0
  0
VERTEX
  5
2CF
  8
LIVELLO_01
 10
-3.673876601347672
 20
86.7548571064047
 30
0.0
  0
VERTEX
  5
2D0
  8
LIVELLO_01
 10
-4.113935129125537
 20
87.96704388418246
 30
0.0
  0
VERTEX
  5
2D1
  8
LIVELLO_01
 10
-4.400845768014392
 20
89.23831741196028
 30
0.0
  0
VERTEX
  5
2D2
  8
LIVELLO_01
 10
-4.68338549023656
 20
90.51075157862692
 30
0.0
  0
VERTEX
  5
2D3
  8
LIVELLO_01
 10
-4.802846629125497
 20
91.81982524529357
 30
0.0
  0
VERTEX
  5
2D4
  8
LIVELLO_01
 10
-4.917598184680969
 20
93.12247835640474
 30
0.0
  0
VERTEX
  5
2D5
  8
LIVELLO_01
 10
-4.864328740236601
 20
94.43591235640474
 30
0.0
  0
VERTEX
  5
2D6
  8
LIVELLO_01
 10
-4.808162990236553
 20
95.7421743841825
 30
0.0
  0
VERTEX
  5
2D7
  8
LIVELLO_01
 10
-4.585740129125497
 20
97.0263101897381
 30
0.0
  0
VERTEX
  5
2D8
  8
LIVELLO_01
 10
-4.36232596245884
 20
98.30305177307136
 30
0.0
  0
VERTEX
  5
2D9
  8
LIVELLO_01
 10
-3.982687684680968
 20
99.52682730084913
 30
0.0
  0
VERTEX
  5
2DA
  8
LIVELLO_01
 10
-3.603864323569894
 20
100.7435472730714
 30
0.0
  0
VERTEX
  5
2DB
  8
LIVELLO_01
 10
-3.085799573569943
 20
101.8808393286269
 30
0.0
  0
VERTEX
  5
2DC
  8
LIVELLO_01
 10
-2.570133712458755
 20
103.0118625230714
 30
0.0
  0
VERTEX
  5
2DD
  8
LIVELLO_01
 10
0.7433386208745674
 20
109.6400913008492
 30
0.0
  0
VERTEX
  5
2DE
  8
LIVELLO_01
 10
4.056800370874498
 20
116.2683165508492
 30
0.0
  0
VERTEX
  5
2DF
  8
LIVELLO_01
 10
10.21037370420788
 20
128.5778691619602
 30
0.0
  0
VERTEX
  5
2E0
  8
LIVELLO_01
 10
15.18058220420784
 20
138.5202052730714
 30
0.0
  0
VERTEX
  5
2E1
  8
LIVELLO_01
 10
16.60063975976345
 20
141.3608742452936
 30
0.0
  0
VERTEX
  5
2E2
  8
LIVELLO_01
 10
18.02068673198562
 20
144.2015396897381
 30
0.0
  0
VERTEX
  5
2E3
  8
LIVELLO_01
 10
22.99089170420785
 20
154.1438722730713
 30
0.0
  0
VERTEX
  5
2E4
  8
LIVELLO_01
 10
24.41094925976347
 20
156.9845412452936
 30
0.0
  0
VERTEX
  5
2E5
  8
LIVELLO_01
 10
33.02546156531906
 20
150.1051629119602
 30
0.0
  0
VERTEX
  5
2E6
  8
LIVELLO_01
 10
35.47113231531898
 20
152.9478991619603
 30
0.0
  0
VERTEX
  5
2E7
  8
LIVELLO_01
 10
26.33526737087453
 20
160.8077069119603
 30
0.0
  0
VERTEX
  5
2E8
  8
LIVELLO_01
 10
29.38114717643009
 20
166.9268738286269
 30
0.0
  0
VERTEX
  5
2E9
  8
LIVELLO_01
 10
30.80120473198565
 20
169.7675392730713
 30
0.0
  0
VERTEX
  5
2EA
  8
LIVELLO_01
 10
35.77140617643011
 20
179.7098789119602
 30
0.0
  0
VERTEX
  5
2EB
  8
LIVELLO_01
 10
37.19146373198572
 20
182.5505443564047
 30
0.0
  0
VERTEX
  5
2EC
  8
LIVELLO_01
 10
37.44816248198561
 20
183.0308759952936
 30
0.0
  0
VERTEX
  5
2ED
  8
LIVELLO_01
 10
38.12434223198568
 20
184.1837643564047
 30
0.0
  0
VERTEX
  5
2EE
  8
LIVELLO_01
 10
38.41095653754127
 20
184.6558480508491
 30
0.0
  0
VERTEX
  5
2EF
  8
LIVELLO_01
 10
38.72047670420784
 20
185.1076434952935
 30
0.0
  0
VERTEX
  5
2F0
  8
LIVELLO_01
 10
39.05803212087449
 20
185.5464496619603
 30
0.0
  0
VERTEX
  5
2F1
  8
LIVELLO_01
 10
39.90811367643005
 20
186.6279887175158
 30
0.0
  0
VERTEX
  5
2F2
  8
LIVELLO_01
 10
40.27294587087454
 20
187.0512973564046
 30
0.0
  0
VERTEX
  5
2F3
  8
LIVELLO_01
 10
41.08399609309674
 20
187.893889439738
 30
0.0
  0
VERTEX
  5
2F4
  8
LIVELLO_01
 10
41.90534389865235
 20
188.654778189738
 30
0.0
  0
VERTEX
  5
2F5
  8
LIVELLO_01
 10
42.77209420420792
 20
189.3717214119603
 30
0.0
  0
VERTEX
  5
2F6
  8
LIVELLO_01
 10
43.6799290097635
 20
190.0403093841825
 30
0.0
  0
VERTEX
  5
2F7
  8
LIVELLO_01
 10
44.62542989865227
 20
190.6575540786269
 30
0.0
  0
VERTEX
  5
2F8
  8
LIVELLO_01
 10
45.6041589264301
 20
191.2204145508491
 30
0.0
  0
VERTEX
  5
2F9
  8
LIVELLO_01
 10
46.61136064865235
 20
191.7263472730714
 30
0.0
  0
VERTEX
  5
2FA
  8
LIVELLO_01
 10
47.6420362042079
 20
192.1733661064047
 30
0.0
  0
VERTEX
  5
2FB
  8
LIVELLO_01
 10
48.69104209309677
 20
192.5600846341824
 30
0.0
  0
VERTEX
  5
2FC
  8
LIVELLO_01
 10
49.73670364865228
 20
192.8811300508491
 30
0.0
  0
VERTEX
  5
2FD
  8
LIVELLO_01
 10
50.27170525976345
 20
193.0132664952935
 30
0.0
  0
VERTEX
  5
2FE
  8
LIVELLO_01
 10
51.61921053754122
 20
193.2900347730713
 30
0.0
  0
VERTEX
  5
2FF
  8
LIVELLO_01
 10
52.15559503754122
 20
193.3916806341824
 30
0.0
  0
VERTEX
  5
300
  8
LIVELLO_01
 10
52.6068718986524
 20
176.7888471619602
 30
0.0
  0
VERTEX
  5
301
  8
LIVELLO_01
 10
56.35650809309681
 20
176.8409136341824
 30
0.0
  0
VERTEX
  5
302
  8
LIVELLO_01
 10
56.125428065319
 20
193.481889439738
 30
0.0
  0
VERTEX
  5
303
  8
LIVELLO_01
 10
56.96038603754118
 20
193.5045765786268
 30
0.0
  0
VERTEX
  5
304
  8
LIVELLO_01
 10
57.510807565319
 20
193.4592975508491
 30
0.0
  0
VERTEX
  5
305
  8
LIVELLO_01
 10
58.05331981531901
 20
193.3844628008491
 30
0.0
  0
VERTEX
  5
306
  8
LIVELLO_01
 10
59.40082509309678
 20
193.1076945230714
 30
0.0
  0
VERTEX
  5
307
  8
LIVELLO_01
 10
59.94425809309678
 20
193.0019740786269
 30
0.0
  0
VERTEX
  5
308
  8
LIVELLO_01
 10
60.48602598198573
 20
192.8649304952935
 30
0.0
  0
VERTEX
  5
309
  8
LIVELLO_01
 10
61.60234892643007
 20
192.5162343564047
 30
0.0
  0
VERTEX
  5
30A
  8
LIVELLO_01
 10
62.65019064865231
 20
192.1218005786269
 30
0.0
  0
VERTEX
  5
30B
  8
LIVELLO_01
 10
63.67903881531902
 20
191.6670982452936
 30
0.0
  0
VERTEX
  5
30C
  8
LIVELLO_01
 10
64.68298792643014
 20
191.1540288286269
 30
0.0
  0
VERTEX
  5
30D
  8
LIVELLO_01
 10
65.65787167643009
 20
190.5843103564047
 30
0.0
  0
VERTEX
  5
30E
  8
LIVELLO_01
 10
66.59895931531901
 20
189.9605533841824
 30
0.0
  0
VERTEX
  5
30F
  8
LIVELLO_01
 10
67.50185875976342
 20
189.2858835230713
 30
0.0
  0
VERTEX
  5
310
  8
LIVELLO_01
 10
68.36256245420788
 20
188.5638673564047
 30
0.0
  0
VERTEX
  5
311
  8
LIVELLO_01
 10
69.17752850976342
 20
187.7984877452936
 30
0.0
  0
VERTEX
  5
312
  8
LIVELLO_01
 10
69.93225070420795
 20
187.006730939738
 30
0.0
  0
VERTEX
  5
313
  8
LIVELLO_01
 10
70.28966398198565
 20
186.5872746341824
 30
0.0
  0
VERTEX
  5
314
  8
LIVELLO_01
 10
71.13974906531905
 20
185.5057391064047
 30
0.0
  0
VERTEX
  5
315
  8
LIVELLO_01
 10
71.47050998198569
 20
185.0714167452936
 30
0.0
  0
VERTEX
  5
316
  8
LIVELLO_01
 10
71.77390945420791
 20
184.6246413286269
 30
0.0
  0
VERTEX
  5
317
  8
LIVELLO_01
 10
72.04951709309677
 20
184.1678470230713
 30
0.0
  0
VERTEX
  5
318
  8
LIVELLO_01
 10
72.72570037087456
 20
183.0149586619602
 30
0.0
  0
VERTEX
  5
319
  8
LIVELLO_01
 10
72.97334331531903
 20
182.5505443564047
 30
0.0
  0
VERTEX
  5
31A
  8
LIVELLO_01
 10
77.94354475976348
 20
172.6082117730713
 30
0.0
  0
VERTEX
  5
31B
  8
LIVELLO_01
 10
82.23988773198568
 20
164.0138501341825
 30
0.0
  0
VERTEX
  5
31C
  8
LIVELLO_01
 10
73.91362309309682
 20
155.5119339119603
 30
0.0
  0
VERTEX
  5
31D
  8
LIVELLO_01
 10
76.59280450976343
 20
152.8881033286269
 30
0.0
  0
VERTEX
  5
31E
  8
LIVELLO_01
 10
83.92167817643013
 20
160.3715853841825
 30
0.0
  0
VERTEX
  5
31F
  8
LIVELLO_01
 10
92.85414556531902
 20
142.7812069675159
 30
0.0
  0
VERTEX
  5
320
  8
LIVELLO_01
 10
102.7945449264301
 20
122.8965418008491
 30
0.0
  0
SEQEND
  5
321
  8
LIVELLO_01
  0
POLYLINE
  5
322
  8
LIVELLO_01
 66
     1
 10
0.0
 20
0.0
 30
0.0
 70
     1
  0
VERTEX
  5
323
  8
LIVELLO_01
 10
80.83485145420792
 20
80.60139168973802
 30
0.0
  0
VERTEX
  5
324
  8
LIVELLO_01
 10
29.33485145420788
 20
80.60139168973802
 30
0.0
  0
VERTEX
  5
325
  8
LIVELLO_01
 10
29.33485145420786
 20
116.601391689738
 30
0.0
  0
VERTEX
  5
326
  8
LIVELLO_01
 10
80.83485145420792
 20
116.601391689738
 30
0.0
  0
SEQEND
  5
327
  8
LIVELLO_01
  0
CIRCLE
  5
328
  8
LIVELLO_01
 10
45.07891726097205
 20
178.611083162188
 30
0.0
 40
1.5
  0
CIRCLE
  5
329
  8
LIVELLO_01
 10
65.07891726097205
 20
178.611083162188
 30
0.0
 40
1.5
  0
CIRCLE
  5
32A
  8
LIVELLO_01
 10
5.110558773652258
 20
93.83138882862693
 30
0.0
 40
1.5
  0
CIRCLE
  5
32B
  8
LIVELLO_01
 10
105.0565448569856
 20
93.72009625918247
 30
0.0
 40
1.5
  0
POLYLINE
  5
32C
  8
LIVELLO_01
 66
     1
 10
0.0
 20
0.0
 30
0.0
 70
     1
  0
VERTEX
  5
32D
  8
LIVELLO_01
 10
60.94278148198573
 20
136.803313439738
 30
0.0
  0
VERTEX
  5
32E
  8
LIVELLO_01
 10
67.20471403754118
 20
136.803313439738
 30
0.0
  0
VERTEX
  5
32F
  8
LIVELLO_01
 10
67.20471403754118
 20
141.3037454119602
 30
0.0
  0
VERTEX
  5
330
  8
LIVELLO_01
 10
71.70514248198566
 20
141.3037454119602
 30
0.0
  0
VERTEX
  5
331
  8
LIVELLO_01
 10
71.70514248198566
 20
143.8039803008492
 30
0.0
  0
VERTEX
  5
332
  8
LIVELLO_01
 10
67.20471403754118
 20
143.8039803008492
 30
0.0
  0
VERTEX
  5
333
  8
LIVELLO_01
 10
67.20471403754118
 20
159.8055005230714
 30
0.0
  0
VERTEX
  5
334
  8
LIVELLO_01
 10
40.77353400976347
 20
159.8055005230714
 30
0.0
  0
VERTEX
  5
335
  8
LIVELLO_01
 10
40.20597100976346
 20
159.668442828627
 30
0.0
  0
VERTEX
  5
336
  8
LIVELLO_01
 10
39.86603081531899
 20
159.1519408841825
 30
0.0
  0
VERTEX
  5
337
  8
LIVELLO_01
 10
39.4197175375412
 20
158.1308679397381
 30
0.0
  0
VERTEX
  5
338
  8
LIVELLO_01
 10
39.28036325976348
 20
157.5265490230714
 30
0.0
  0
VERTEX
  5
339
  8
LIVELLO_01
 10
39.20287562087452
 20
156.7624499952936
 30
0.0
  0
VERTEX
  5
33A
  8
LIVELLO_01
 10
39.23173989865234
 20
156.1696210508491
 30
0.0
  0
VERTEX
  5
33B
  8
LIVELLO_01
 10
39.36317078754115
 20
155.4124717452936
 30
0.0
  0
VERTEX
  5
33C
  8
LIVELLO_01
 10
39.563389815319
 20
154.818898439738
 30
0.0
  0
VERTEX
  5
33D
  8
LIVELLO_01
 10
39.91738467643012
 20
154.0943175786269
 30
0.0
  0
VERTEX
  5
33E
  8
LIVELLO_01
 10
40.39607942643016
 20
153.4607039952936
 30
0.0
  0
VERTEX
  5
33F
  8
LIVELLO_01
 10
40.8401172875412
 20
152.970381689738
 30
0.0
  0
VERTEX
  5
340
  8
LIVELLO_01
 10
41.34391217643014
 20
152.574967189738
 30
0.0
  0
VERTEX
  5
341
  8
LIVELLO_01
 10
42.036429065319
 20
152.1646196064047
 30
0.0
  0
VERTEX
  5
342
  8
LIVELLO_01
 10
42.76723645420788
 20
151.886341439738
 30
0.0
  0
VERTEX
  5
343
  8
LIVELLO_01
 10
43.34632470420786
 20
151.744958689738
 30
0.0
  0
VERTEX
  5
344
  8
LIVELLO_01
 10
44.05026100976346
 20
151.6775640230714
 30
0.0
  0
VERTEX
  5
345
  8
LIVELLO_01
 10
44.2025304819856
 20
144.2760110786269
 30
0.0
  0
VERTEX
  5
346
  8
LIVELLO_01
 10
43.66247709309675
 20
143.8039803008492
 30
0.0
  0
VERTEX
  5
347
  8
LIVELLO_01
 10
39.70209850976346
 20
143.8039803008492
 30
0.0
  0
VERTEX
  5
348
  8
LIVELLO_01
 10
39.70209850976346
 20
141.3037454119602
 30
0.0
  0
VERTEX
  5
349
  8
LIVELLO_01
 10
44.2025304819856
 20
141.3037454119602
 30
0.0
  0
VERTEX
  5
34A
  8
LIVELLO_01
 10
44.20253048198561
 20
136.803313439738
 30
0.0
  0
VERTEX
  5
34B
  8
LIVELLO_01
 10
44.31877428754121
 20
135.6180788841825
 30
0.0
  0
VERTEX
  5
34C
  8
LIVELLO_01
 10
44.31876723198571
 20
132.6029189675158
 30
0.0
  0
VERTEX
  5
34D
  8
LIVELLO_01
 10
24.5325940930968
 20
132.6029189675158
 30
0.0
  0
VERTEX
  5
34E
  8
LIVELLO_01
 10
24.5325940930968
 20
120.6017788008491
 30
0.0
  0
VERTEX
  5
34F
  8
LIVELLO_01
 10
76.47850450976347
 20
120.6017788008491
 30
0.0
  0
VERTEX
  5
350
  8
LIVELLO_01
 10
76.47850450976347
 20
132.6029189675158
 30
0.0
  0
VERTEX
  5
351
  8
LIVELLO_01
 10
59.13105239865235
 20
132.6029189675158
 30
0.0
  0
VERTEX
  5
352
  8
LIVELLO_01
 10
59.13926859309675
 20
133.3286216619603
 30
0.0
  0
VERTEX
  5
353
  8
LIVELLO_01
 10
59.13926859309675
 20
135.7532174675158
 30
0.0
  0
VERTEX
  5
354
  8
LIVELLO_01
 10
59.13105239865235
 20
136.803313439738
 30
0.0
  0
SEQEND
  5
355
  8
LIVELLO_01
  0
POLYLINE
  5
356
  8
INFO
 66
     1
 10
0.0
 20
0.0
 30
0.0
  0
VERTEX
  5
357
  8
INFO
 10
37.67569356531897
 20
144.4867746341825
 30
0.0
  0
VERTEX
  5
358
  8
INFO
 10
41.72090814865231
 20
149.1887414952936
 30
0.0
  0
VERTEX
  5
359
  8
INFO
 10
41.86665828754116
 20
147.2438388008491
 30
0.0
  0
SEQEND
  5
35A
  8
INFO
  0
POLYLINE
  5
35B
  8
INFO
 66
     1
 10
0.0
 20
0.0
 30
0.0
  0
VERTEX
  5
35C
  8
INFO
 10
51.37503539865236
 20
170.0664902175158
 30
0.0
  0
VERTEX
  5
35D
  8
INFO
 10
51.41450417643017
 20
167.2243678008491
 30
0.0
  0
VERTEX
  5
35E
  8
INFO
 10
55.60589575976348
 20
169.9092889119602
 30
0.0
  0
VERTEX
  5
35F
  8
INFO
 10
55.6097410375412
 20
169.9124815508491
 30
0.0
  0
VERTEX
  5
360
  8
INFO
 10
55.61361806531897
 20
169.915547189738
 30
0.0
  0
VERTEX
  5
361
  8
INFO
 10
55.61755506531898
 20
169.9185069952935
 30
0.0
  0
VERTEX
  5
362
  8
INFO
 10
55.62160495420784
 20
169.9213750786269
 30
0.0
  0
VERTEX
  5
363
  8
INFO
 10
55.62578184309672
 20
169.9241761341824
 30
0.0
  0
VERTEX
  5
364
  8
INFO
 10
55.63012453754118
 20
169.9269313286269
 30
0.0
  0
VERTEX
  5
365
  8
INFO
 10
55.63466478754123
 20
169.9296583008492
 30
0.0
  0
VERTEX
  5
366
  8
INFO
 10
55.63943787087453
 20
169.9323782175158
 30
0.0
  0
VERTEX
  5
367
  8
INFO
 10
55.64447553754121
 20
169.9351122452936
 30
0.0
  0
VERTEX
  5
368
  8
INFO
 10
55.87578839865233
 20
170.0467805230713
 30
0.0
  0
VERTEX
  5
369
  8
INFO
 10
56.11624878754122
 20
170.1134802175158
 30
0.0
  0
VERTEX
  5
36A
  8
INFO
 10
56.36037806531903
 20
170.1366824119602
 30
0.0
  0
VERTEX
  5
36B
  8
INFO
 10
56.60270464865238
 20
170.1178652452936
 30
0.0
  0
VERTEX
  5
36C
  8
INFO
 10
56.83774637087453
 20
170.0585103841825
 30
0.0
  0
VERTEX
  5
36D
  8
INFO
 10
57.06003517643012
 20
169.960092439738
 30
0.0
  0
VERTEX
  5
36E
  8
INFO
 10
57.2640959542079
 20
169.8240824952936
 30
0.0
  0
VERTEX
  5
36F
  8
INFO
 10
57.4444535930968
 20
169.6519657452935
 30
0.0
  0
VERTEX
  5
370
  8
INFO
 10
57.59562945420782
 20
169.4452132730713
 30
0.0
  0
VERTEX
  5
371
  8
INFO
 10
57.7057631486523
 20
169.2132266064046
 30
0.0
  0
VERTEX
  5
372
  8
INFO
 10
57.77148917643012
 20
168.9723852175158
 30
0.0
  0
VERTEX
  5
373
  8
INFO
 10
57.79413750976346
 20
168.7281077730713
 30
0.0
  0
VERTEX
  5
374
  8
INFO
 10
57.77502753754123
 20
168.485812939738
 30
0.0
  0
VERTEX
  5
375
  8
INFO
 10
57.71549628754116
 20
168.2509334952936
 30
0.0
  0
VERTEX
  5
376
  8
INFO
 10
57.61687020420788
 20
168.0288881064047
 30
0.0
  0
VERTEX
  5
377
  8
INFO
 10
57.48047573198562
 20
167.825095439738
 30
0.0
  0
VERTEX
  5
378
  8
INFO
 10
57.30764637087452
 20
167.6449847452935
 30
0.0
  0
VERTEX
  5
379
  8
INFO
 10
57.09970856531896
 20
167.4939782175158
 30
0.0
  0
VERTEX
  5
37A
  8
INFO
 10
56.7443237597634
 20
167.302395189738
 30
0.0
  0
SEQEND
  5
37B
  8
INFO
  0
POLYLINE
  5
37C
  8
INFO
 66
     1
 10
0.0
 20
0.0
 30
0.0
  0
VERTEX
  5
37D
  8
INFO
 10
68.2246686764301
 20
150.5984309119603
 30
0.0
  0
VERTEX
  5
37E
  8
INFO
 10
69.00206389865235
 20
151.3922267730713
 30
0.0
  0
VERTEX
  5
37F
  8
INFO
 10
69.15468967643011
 20
151.5224511619602
 30
0.0
  0
VERTEX
  5
380
  8
INFO
 10
69.32316575976347
 20
151.6206398008491
 30
0.0
  0
VERTEX
  5
381
  8
INFO
 10
69.50303656531901
 20
151.6867821064047
 30
0.0
  0
VERTEX
  5
382
  8
INFO
 10
69.68984650976341
 20
151.7208569119603
 30
0.0
  0
VERTEX
  5
383
  8
INFO
 10
69.87914353754121
 20
151.7228501064047
 30
0.0
  0
VERTEX
  5
384
  8
INFO
 10
70.06647912087453
 20
151.6927546341825
 30
0.0
  0
VERTEX
  5
385
  8
INFO
 10
70.24739062087457
 20
151.6305422730714
 30
0.0
  0
VERTEX
  5
386
  8
INFO
 10
70.41743303754117
 20
151.536202439738
 30
0.0
  0
VERTEX
  5
387
  8
INFO
 10
70.57214373198565
 20
151.4097245508491
 30
0.0
  0
VERTEX
  5
388
  8
INFO
 10
70.96960081531898
 20
151.0204766064047
 30
0.0
  0
VERTEX
  5
389
  8
INFO
 10
71.09922548198568
 20
150.8684964119602
 30
0.0
  0
VERTEX
  5
38A
  8
INFO
 10
71.197057815319
 20
150.7004930508491
 30
0.0
  0
VERTEX
  5
38B
  8
INFO
 10
71.2630237319857
 20
150.5209256341824
 30
0.0
  0
VERTEX
  5
38C
  8
INFO
 10
71.29703856531899
 20
150.3342532730714
 30
0.0
  0
VERTEX
  5
38D
  8
INFO
 10
71.29901059309674
 20
150.1449350786269
 30
0.0
  0
VERTEX
  5
38E
  8
INFO
 10
71.26886573198561
 20
149.9574301619603
 30
0.0
  0
VERTEX
  5
38F
  8
INFO
 10
71.2065157875412
 20
149.7761976341824
 30
0.0
  0
VERTEX
  5
390
  8
INFO
 10
71.11188314865234
 20
149.6056930786269
 30
0.0
  0
VERTEX
  5
391
  8
INFO
 10
70.98488314865239
 20
149.4503756064047
 30
0.0
  0
VERTEX
  5
392
  8
INFO
 10
70.5956352042079
 20
149.0529149952936
 30
0.0
  0
VERTEX
  5
393
  8
INFO
 10
70.98488314865239
 20
149.4503756064047
 30
0.0
  0
VERTEX
  5
394
  8
INFO
 10
71.13751598198564
 20
149.5805894119603
 30
0.0
  0
VERTEX
  5
395
  8
INFO
 10
71.30603087087451
 20
149.6787427730713
 30
0.0
  0
VERTEX
  5
396
  8
INFO
 10
71.48598281531906
 20
149.7448004119603
 30
0.0
  0
VERTEX
  5
397
  8
INFO
 10
71.67293034309682
 20
149.7787411619602
 30
0.0
  0
VERTEX
  5
398
  8
INFO
 10
71.86243550976343
 20
149.7805368008492
 30
0.0
  0
VERTEX
  5
399
  8
INFO
 10
72.05005684309674
 20
149.750155578627
 30
0.0
  0
VERTEX
  5
39A
  8
INFO
 10
72.23135287087462
 20
149.6875692730714
 30
0.0
  0
VERTEX
  5
39B
  8
INFO
 10
72.4018785930968
 20
149.5927531897381
 30
0.0
  0
VERTEX
  5
39C
  8
INFO
 10
72.55719959309675
 20
149.4656791064047
 30
0.0
  0
VERTEX
  5
39D
  8
INFO
 10
72.68682425976345
 20
149.3136953841825
 30
0.0
  0
VERTEX
  5
39E
  8
INFO
 10
72.78465659309677
 20
149.1456955508492
 30
0.0
  0
VERTEX
  5
39F
  8
INFO
 10
72.85062250976347
 20
148.9661281341825
 30
0.0
  0
VERTEX
  5
3A0
  8
INFO
 10
72.88463381531898
 20
148.7794557730713
 30
0.0
  0
VERTEX
  5
3A1
  8
INFO
 10
72.88660584309673
 20
148.5901411064047
 30
0.0
  0
VERTEX
  5
3A2
  8
INFO
 10
72.85646098198572
 20
148.4026326619602
 30
0.0
  0
VERTEX
  5
3A3
  8
INFO
 10
72.79411456531903
 20
148.2214001341825
 30
0.0
  0
VERTEX
  5
3A4
  8
INFO
 10
72.69948192643017
 20
148.0508955786269
 30
0.0
  0
VERTEX
  5
3A5
  8
INFO
 10
72.57247839865232
 20
147.8955781064047
 30
0.0
  0
VERTEX
  5
3A6
  8
INFO
 10
71.79507964865229
 20
147.1017822452936
 30
0.0
  0
SEQEND
  5
3A7
  8
INFO
  0
POLYLINE
  5
3A8
  8
INFO
 66
     1
 10
0.0
 20
0.0
 30
0.0
  0
VERTEX
  5
3A9
  8
INFO
 10
18.28179167643003
 20
112.5395048286269
 30
0.0
  0
VERTEX
  5
3AA
  8
INFO
 10
18.28179167643003
 20
115.3818988841825
 30
0.0
  0
VERTEX
  5
3AB
  8
INFO
 10
14.05351717643003
 20
112.7554330508491
 30
0.0
  0
VERTEX
  5
3AC
  8
INFO
 10
14.04963309309682
 20
112.7522933286269
 30
0.0
  0
VERTEX
  5
3AD
  8
INFO
 10
14.04571373198564
 20
112.7492876619602
 30
0.0
  0
VERTEX
  5
3AE
  8
INFO
 10
14.04173087087457
 20
112.7463807730713
 30
0.0
  0
VERTEX
  5
3AF
  8
INFO
 10
14.03764923198565
 20
112.7435691341825
 30
0.0
  0
VERTEX
  5
3B0
  8
INFO
 10
14.03343000976338
 20
112.7408245230714
 30
0.0
  0
VERTEX
  5
3B1
  8
INFO
 10
14.02904850976341
 20
112.7381328286269
 30
0.0
  0
VERTEX
  5
3B2
  8
INFO
 10
14.0244729819857
 20
112.7354693564047
 30
0.0
  0
VERTEX
  5
3B3
  8
INFO
 10
14.01966109309672
 20
112.732812939738
 30
0.0
  0
VERTEX
  5
3B4
  8
INFO
 10
14.01458814865236
 20
112.7301494675158
 30
0.0
  0
VERTEX
  5
3B5
  8
INFO
 10
13.78174423198561
 20
112.6217055786269
 30
0.0
  0
VERTEX
  5
3B6
  8
INFO
 10
13.54038073198569
 20
112.5583537452936
 30
0.0
  0
VERTEX
  5
3B7
  8
INFO
 10
13.29595159309679
 20
112.5385382175158
 30
0.0
  0
VERTEX
  5
3B8
  8
INFO
 10
13.0539142875412
 20
112.5607138286269
 30
0.0
  0
VERTEX
  5
3B9
  8
INFO
 10
12.81972275976347
 20
112.6233283564047
 30
0.0
  0
VERTEX
  5
3BA
  8
INFO
 10
12.59881684309676
 20
112.7248260508492
 30
0.0
  0
VERTEX
  5
3BB
  8
INFO
 10
12.39666459309677
 20
112.8636582175158
 30
0.0
  0
VERTEX
  5
3BC
  8
INFO
 10
12.21871289865237
 20
113.0382585230714
 30
0.0
  0
VERTEX
  5
3BD
  8
INFO
 10
12.07042628754124
 20
113.2470923841825
 30
0.0
  0
VERTEX
  5
3BE
  8
INFO
 10
11.96352050976344
 20
113.4805818841825
 30
0.0
  0
VERTEX
  5
3BF
  8
INFO
 10
11.90114234309675
 20
113.7223158008491
 30
0.0
  0
VERTEX
  5
3C0
  8
INFO
 10
11.88189125976339
 20
113.9668860508492
 30
0.0
  0
VERTEX
  5
3C1
  8
INFO
 10
11.90435967643015
 20
114.208888078627
 30
0.0
  0
VERTEX
  5
3C2
  8
INFO
 10
11.96714706531895
 20
114.4429208564047
 30
0.0
  0
VERTEX
  5
3C3
  8
INFO
 10
12.06885289865227
 20
114.663579828627
 30
0.0
  0
VERTEX
  5
3C4
  8
INFO
 10
12.2080554819857
 20
114.8654569119603
 30
0.0
  0
VERTEX
  5
3C5
  8
INFO
 10
12.38336839865229
 20
115.0431475508492
 30
0.0
  0
VERTEX
  5
3C6
  8
INFO
 10
12.59339112087446
 20
115.1912542452936
 30
0.0
  0
VERTEX
  5
3C7
  8
INFO
 10
12.95140059309676
 20
115.3778842730714
 30
0.0
  0
SEQEND
  5
3C8
  8
INFO
  0
POLYLINE
  5
3C9
  8
INFO
 66
     1
 10
0.0
 20
0.0
 30
0.0
  0
VERTEX
  5
3CA
  8
INFO
 10
98.28173750976345
 20
113.250433189738
 30
0.0
  0
VERTEX
  5
3CB
  8
INFO
 10
91.88173831531901
 20
113.250433189738
 30
0.0
  0
VERTEX
  5
3CC
  8
INFO
 10
93.30494264865234
 20
114.6732388841825
 30
0.0
  0
SEQEND
  5
3CD
  8
INFO
  0
POLYLINE
  5
3CE
  8
INFO
 66
     1
 10
0.0
 20
0.0
 30
0.0
  0
VERTEX
  5
3CF
  8
INFO
 10
91.3270325793145
 20
88.05082507862693
 30
0.0
  0
VERTEX
  5
3D0
  8
INFO
 10
91.3270325793145
 20
91.88880388418252
 30
0.0
  0
VERTEX
  5
3D1
  8
INFO
 10
85.61775110709232
 20
88.3423782730714
 30
0.0
  0
VERTEX
  5
3D2
  8
INFO
 10
85.61250882931449
 20
88.33814846751585
 30
0.0
  0
VERTEX
  5
3D3
  8
INFO
 10
85.60721716264783
 20
88.33407741196024
 30
0.0
  0
VERTEX
  5
3D4
  8
INFO
 10
85.6018373015367
 20
88.33015805084918
 30
0.0
  0
VERTEX
  5
3D5
  8
INFO
 10
85.59632338487006
 20
88.3263586341825
 30
0.0
  0
VERTEX
  5
3D6
  8
INFO
 10
85.59062955153672
 20
88.32265446751583
 30
0.0
  0
VERTEX
  5
3D7
  8
INFO
 10
85.5847134682034
 20
88.31901732862696
 30
0.0
  0
VERTEX
  5
3D8
  8
INFO
 10
85.57853280153665
 20
88.31541899529361
 30
0.0
  0
VERTEX
  5
3D9
  8
INFO
 10
85.57203816264786
 20
88.31183477307141
 30
0.0
  0
VERTEX
  5
3DA
  8
INFO
 10
85.56518721820339
 20
88.30823996751582
 30
0.0
  0
VERTEX
  5
3DB
  8
INFO
 10
85.25078813486999
 20
88.16181249529359
 30
0.0
  0
VERTEX
  5
3DC
  8
INFO
 10
84.9248849682034
 20
88.07626741196029
 30
0.0
  0
VERTEX
  5
3DD
  8
INFO
 10
84.59484371820338
 20
88.04951274529361
 30
0.0
  0
VERTEX
  5
3DE
  8
INFO
 10
84.26802685709231
 20
88.07946357862696
 30
0.0
  0
VERTEX
  5
3DF
  8
INFO
 10
83.95179685709223
 20
88.1640067730714
 30
0.0
  0
VERTEX
  5
3E0
  8
INFO
 10
83.65351971820343
 20
88.30105741196027
 30
0.0
  0
VERTEX
  5
3E1
  8
INFO
 10
83.38056496820337
 20
88.48851293973806
 30
0.0
  0
VERTEX
  5
3E2
  8
INFO
 10
83.14028802375896
 20
88.72427785640474
 30
0.0
  0
VERTEX
  5
3E3
  8
INFO
 10
82.94005488487005
 20
89.00624607862693
 30
0.0
  0
VERTEX
  5
3E4
  8
INFO
 10
82.79570527375898
 20
89.32152710640472
 30
0.0
  0
VERTEX
  5
3E5
  8
INFO
 10
82.71147957931447
 20
89.64792768973805
 30
0.0
  0
VERTEX
  5
3E6
  8
INFO
 10
82.68548691264783
 20
89.9781629675158
 30
0.0
  0
VERTEX
  5
3E7
  8
INFO
 10
82.71582932931454
 20
90.30493043973803
 30
0.0
  0
VERTEX
  5
3E8
  8
INFO
 10
82.80060535709225
 20
90.62093113418248
 30
0.0
  0
VERTEX
  5
3E9
  8
INFO
 10
82.93792763487005
 20
90.91888018973802
 30
0.0
  0
VERTEX
  5
3EA
  8
INFO
 10
83.12589469042558
 20
91.19147157862696
 30
0.0
  0
VERTEX
  5
3EB
  8
INFO
 10
83.36261916264783
 20
91.43140280084918
 30
0.0
  0
VERTEX
  5
3EC
  8
INFO
 10
83.64619605153672
 20
91.6313784119603
 30
0.0
  0
VERTEX
  5
3ED
  8
INFO
 10
84.12960038487
 20
91.88338521751581
 30
0.0
  0
SEQEND
  5
3EE
  8
INFO
  0
LINE
  5
3EF
  8
INFO
 10
87.00611863487006
 20
95.12926885640474
 30
0.0
 11
87.00611863487006
 21
99.85440263418252
 31
0.0
  0
POLYLINE
  5
3F0
  8
INFO
 66
     1
 10
0.0
 20
0.0
 30
0.0
  0
VERTEX
  5
3F1
  8
INFO
 10
91.32696202375894
 20
103.0958377452936
 30
0.0
  0
VERTEX
  5
3F2
  8
INFO
 10
91.32696202375894
 20
107.8941305786269
 30
0.0
  0
VERTEX
  5
3F3
  8
INFO
 10
82.68527524598113
 20
103.0958377452936
 30
0.0
  0
VERTEX
  5
3F4
  8
INFO
 10
82.68527524598113
 20
107.8941305786269
 30
0.0
  0
SEQEND
  5
3F5
  8
INFO
  0
POLYLINE
  5
3F6
  8
INFO
 66
     1
 10
0.0
 20
0.0
 30
0.0
  0
VERTEX
  5
3F7
  8
INFO
 10
103.9730815276049
 20
23.9051073478864
 30
0.0
  0
VERTEX
  5
3F8
  8
INFO
 10
98.98535055538265
 20
23.9051073478864
 30
0.0
  0
VERTEX
  5
3F9
  8
INFO
 10
100.094501527605
 20
25.01394434788637
 30
0.0
  0
SEQEND
  5
3FA
  8
INFO
  0
LINE
  5
3FB
  8
INFO
 10
101.4792178053827
 20
26.88402640344194
 30
0.0
 11
101.4792178053827
 21
29.61123145899748
 31
0.0
  0
LINE
  5
3FC
  8
INFO
 10
101.1975494442716
 20
33.14566968121972
 30
0.0
 11
103.9732367498272
 21
33.14566968121972
 31
0.0
  0
POLYLINE
  5
3FD
  8
INFO
 66
     1
 10
0.0
 20
0.0
 30
0.0
  0
VERTEX
  5
3FE
  8
INFO
 10
98.98519533316052
 20
31.48225895899742
 30
0.0
  0
VERTEX
  5
3FF
  8
INFO
 10
101.3911679998272
 20
33.14566968121966
 30
0.0
  0
VERTEX
  5
400
  8
INFO
 10
98.98519533316052
 20
34.80939084788636
 30
0.0
  0
SEQEND
  5
401
  8
INFO
  0
POLYLINE
  5
402
  8
INFO
 66
     1
 10
0.0
 20
0.0
 30
0.0
  0
VERTEX
  5
403
  8
INFO
 10
86.5392835276049
 20
33.28143973677527
 30
0.0
  0
VERTEX
  5
404
  8
INFO
 10
86.5392835276049
 20
31.86945373677531
 30
0.0
  0
VERTEX
  5
405
  8
INFO
 10
86.51650113871598
 20
31.61550312566411
 30
0.0
  0
VERTEX
  5
406
  8
INFO
 10
86.45084566649378
 20
31.37654557010862
 30
0.0
  0
VERTEX
  5
407
  8
INFO
 10
86.34634583316047
 20
31.15655334788633
 30
0.0
  0
VERTEX
  5
408
  8
INFO
 10
86.20703036093819
 20
30.95950226455307
 30
0.0
  0
VERTEX
  5
409
  8
INFO
 10
86.03693149982708
 20
30.78936812566417
 30
0.0
  0
VERTEX
  5
40A
  8
INFO
 10
85.8400744442716
 20
30.65012320899746
 30
0.0
  0
VERTEX
  5
40B
  8
INFO
 10
85.62049849982715
 20
30.54573979233083
 30
0.0
  0
VERTEX
  5
40C
  8
INFO
 10
85.38222533316049
 20
30.48019720899751
 30
0.0
  0
VERTEX
  5
40D
  8
INFO
 10
85.1292907220493
 20
30.45746420899752
 30
0.0
  0
VERTEX
  5
40E
  8
INFO
 10
84.42229936093828
 20
30.45746420899752
 30
0.0
  0
VERTEX
  5
40F
  8
INFO
 10
84.16947058316045
 20
30.48019720899751
 30
0.0
  0
VERTEX
  5
410
  8
INFO
 10
83.9312503331604
 20
30.54573979233083
 30
0.0
  0
VERTEX
  5
411
  8
INFO
 10
83.71168849982713
 20
30.65012320899746
 30
0.0
  0
VERTEX
  5
412
  8
INFO
 10
83.51482438871604
 20
30.78936812566417
 30
0.0
  0
VERTEX
  5
413
  8
INFO
 10
83.34469024982714
 20
30.95950226455307
 30
0.0
  0
VERTEX
  5
414
  8
INFO
 10
83.20533244427158
 20
31.15655334788633
 30
0.0
  0
VERTEX
  5
415
  8
INFO
 10
83.1007867498271
 20
31.37654557010862
 30
0.0
  0
VERTEX
  5
416
  8
INFO
 10
83.03509952760494
 20
31.61550312566411
 30
0.0
  0
VERTEX
  5
417
  8
INFO
 10
83.01230302760491
 20
31.86945373677531
 30
0.0
  0
VERTEX
  5
418
  8
INFO
 10
83.01230302760491
 20
32.57644157010864
 30
0.0
  0
VERTEX
  5
419
  8
INFO
 10
83.01230302760491
 20
31.86945373677531
 30
0.0
  0
VERTEX
  5
41A
  8
INFO
 10
82.98950652760483
 20
31.61550312566411
 30
0.0
  0
VERTEX
  5
41B
  8
INFO
 10
82.92378049982717
 20
31.37654557010862
 30
0.0
  0
VERTEX
  5
41C
  8
INFO
 10
82.81913249982712
 20
31.15655334788633
 30
0.0
  0
VERTEX
  5
41D
  8
INFO
 10
82.67957008316047
 20
30.95950226455307
 30
0.0
  0
VERTEX
  5
41E
  8
INFO
 10
82.50910433316041
 20
30.78936812566417
 30
0.0
  0
VERTEX
  5
41F
  8
INFO
 10
82.31173927760496
 20
30.65012320899746
 30
0.0
  0
VERTEX
  5
420
  8
INFO
 10
82.0914824720494
 20
30.54573979233083
 30
0.0
  0
VERTEX
  5
421
  8
INFO
 10
81.85234147204939
 20
30.48019720899751
 30
0.0
  0
VERTEX
  5
422
  8
INFO
 10
81.59832383316048
 20
30.45746420899752
 30
0.0
  0
VERTEX
  5
423
  8
INFO
 10
81.34549152760486
 20
30.48019720899751
 30
0.0
  0
VERTEX
  5
424
  8
INFO
 10
81.1072783331605
 20
30.54573979233083
 30
0.0
  0
VERTEX
  5
425
  8
INFO
 10
80.88771297204933
 20
30.65012320899746
 30
0.0
  0
VERTEX
  5
426
  8
INFO
 10
80.69084886093823
 20
30.78936812566417
 30
0.0
  0
VERTEX
  5
427
  8
INFO
 10
80.52071472204933
 20
30.95950226455307
 30
0.0
  0
VERTEX
  5
428
  8
INFO
 10
80.38135691649377
 20
31.15655334788633
 30
0.0
  0
VERTEX
  5
429
  8
INFO
 10
80.2768112220494
 20
31.37654557010862
 30
0.0
  0
VERTEX
  5
42A
  8
INFO
 10
80.21112399982714
 20
31.61550312566411
 30
0.0
  0
VERTEX
  5
42B
  8
INFO
 10
80.18833102760483
 20
31.86945373677531
 30
0.0
  0
VERTEX
  5
42C
  8
INFO
 10
80.18833102760483
 20
33.28143973677527
 30
0.0
  0
SEQEND
  5
42D
  8
INFO
  0
POLYLINE
  5
42E
  8
INFO
 66
     1
 10
0.0
 20
0.0
 30
0.0
  0
VERTEX
  5
42F
  8
INFO
 10
96.56122041649384
 20
22.45362434788638
 30
0.0
  0
VERTEX
  5
430
  8
INFO
 10
96.56122041649384
 20
25.29601840344199
 30
0.0
  0
VERTEX
  5
431
  8
INFO
 10
92.33294944427162
 20
22.66955257010855
 30
0.0
  0
VERTEX
  5
432
  8
INFO
 10
92.32906536093823
 20
22.66641637566414
 30
0.0
  0
VERTEX
  5
433
  8
INFO
 10
92.32514599982711
 20
22.66340365344197
 30
0.0
  0
VERTEX
  5
434
  8
INFO
 10
92.32115961093827
 20
22.66050382010866
 30
0.0
  0
VERTEX
  5
435
  8
INFO
 10
92.31707797204935
 20
22.65768865344191
 30
0.0
  0
VERTEX
  5
436
  8
INFO
 10
92.31286227760496
 20
22.65494404233087
 30
0.0
  0
VERTEX
  5
437
  8
INFO
 10
92.30848077760488
 20
22.65224882010861
 30
0.0
  0
VERTEX
  5
438
  8
INFO
 10
92.30390172204939
 20
22.64958887566414
 30
0.0
  0
VERTEX
  5
439
  8
INFO
 10
92.2990933609383
 20
22.6469324589975
 30
0.0
  0
VERTEX
  5
43A
  8
INFO
 10
92.29401688871606
 20
22.64426898677533
 30
0.0
  0
VERTEX
  5
43B
  8
INFO
 10
92.0611764998272
 20
22.5358215701086
 30
0.0
  0
VERTEX
  5
43C
  8
INFO
 10
91.8198129998271
 20
22.47246973677525
 30
0.0
  0
VERTEX
  5
43D
  8
INFO
 10
91.57538738871598
 20
22.45265773677522
 30
0.0
  0
VERTEX
  5
43E
  8
INFO
 10
91.33334655538268
 20
22.47483687566421
 30
0.0
  0
VERTEX
  5
43F
  8
INFO
 10
91.09914797204938
 20
22.53745140344193
 30
0.0
  0
VERTEX
  5
440
  8
INFO
 10
90.87824911093823
 20
22.63894557010858
 30
0.0
  0
VERTEX
  5
441
  8
INFO
 10
90.67609686093819
 20
22.77777420899753
 30
0.0
  0
VERTEX
  5
442
  8
INFO
 10
90.49814869427156
 20
22.95238157010863
 30
0.0
  0
VERTEX
  5
443
  8
INFO
 10
90.34985502760493
 20
23.16121543121972
 30
0.0
  0
VERTEX
  5
444
  8
INFO
 10
90.24295277760491
 20
23.39470493121971
 30
0.0
  0
VERTEX
  5
445
  8
INFO
 10
90.18057461093822
 20
23.6364353201086
 30
0.0
  0
VERTEX
  5
446
  8
INFO
 10
90.16132352760498
 20
23.88100557010858
 30
0.0
  0
VERTEX
  5
447
  8
INFO
 10
90.18379547204934
 20
24.12301112566411
 30
0.0
  0
VERTEX
  5
448
  8
INFO
 10
90.24658286093826
 20
24.35704390344199
 30
0.0
  0
VERTEX
  5
449
  8
INFO
 10
90.34828163871596
 20
24.57769934788635
 30
0.0
  0
VERTEX
  5
44A
  8
INFO
 10
90.48749127760489
 20
24.77957643121968
 30
0.0
  0
VERTEX
  5
44B
  8
INFO
 10
90.6628041942716
 20
24.95727059788635
 30
0.0
  0
VERTEX
  5
44C
  8
INFO
 10
90.87282338871604
 20
25.10537729233079
 30
0.0
  0
VERTEX
  5
44D
  8
INFO
 10
91.23082933316046
 20
25.29200732010855
 30
0.0
  0
SEQEND
  5
44E
  8
INFO
  0
POLYLINE
  5
44F
  8
INFO
 66
     1
 10
0.0
 20
0.0
 30
0.0
  0
VERTEX
  5
450
  8
INFO
 10
106.562117638716
 20
28.76387334788637
 30
0.0
  0
VERTEX
  5
451
  8
INFO
 10
100.1621184442717
 20
28.76387334788637
 30
0.0
  0
VERTEX
  5
452
  8
INFO
 10
101.5853227776049
 20
30.18667551455309
 30
0.0
  0
SEQEND
  5
453
  8
INFO
  0
POLYLINE
  5
454
  8
LIVELLO_01
 66
     1
 10
0.0
 20
0.0
 30
0.0
 70
     1
  0
VERTEX
  5
455
  8
LIVELLO_01
 10
100.2204608331604
 20
54.7914438478864
 30
0.0
  0
VERTEX
  5
456
  8
LIVELLO_01
 10
101.2871161942715
 20
54.7914438478864
 30
0.0
  0
VERTEX
  5
457
  8
LIVELLO_01
 10
101.4871164998272
 20
37.59967257010857
 30
0.0
  0
VERTEX
  5
458
  8
LIVELLO_01
 10
105.2371195831605
 20
37.59967257010857
 30
0.0
  0
VERTEX
  5
459
  8
LIVELLO_01
 10
105.2371195831605
 20
54.72894220899752
 30
0.0
  0
VERTEX
  5
45A
  8
LIVELLO_01
 10
108.3625931109383
 20
54.7914438478864
 30
0.0
  0
VERTEX
  5
45B
  8
LIVELLO_01
 10
108.3625931109383
 20
20.15790179233085
 30
0.0
  0
VERTEX
  5
45C
  8
LIVELLO_01
 10
88.36069283316051
 20
20.15790179233085
 30
0.0
  0
VERTEX
  5
45D
  8
LIVELLO_01
 10
87.2958260553827
 20
21.25606726455308
 30
0.0
  0
VERTEX
  5
45E
  8
LIVELLO_01
 10
86.36372013871598
 20
22.21732320899747
 30
0.0
  0
VERTEX
  5
45F
  8
LIVELLO_01
 10
85.86045794427152
 20
22.73632282010857
 30
0.0
  0
VERTEX
  5
460
  8
LIVELLO_01
 10
83.93059063871608
 20
24.7265398201086
 30
0.0
  0
VERTEX
  5
461
  8
LIVELLO_01
 10
83.36021952760491
 20
25.31474384788638
 30
0.0
  0
VERTEX
  5
462
  8
LIVELLO_01
 10
81.49915094427162
 20
27.23401018121976
 30
0.0
  0
VERTEX
  5
463
  8
LIVELLO_01
 10
80.8599811109382
 20
27.89316487566416
 30
0.0
  0
VERTEX
  5
464
  8
LIVELLO_01
 10
78.70530969427155
 20
30.11521332010858
 30
0.0
  0
VERTEX
  5
465
  8
LIVELLO_01
 10
78.35974269427159
 20
31.36677715344192
 30
0.0
  0
VERTEX
  5
466
  8
LIVELLO_01
 10
78.35974269427159
 20
54.7914438478864
 30
0.0
  0
VERTEX
  5
467
  8
LIVELLO_01
 10
81.2852194442715
 20
54.7914438478864
 30
0.0
  0
VERTEX
  5
468
  8
LIVELLO_01
 10
81.48521622204943
 20
39.94181715344197
 30
0.0
  0
VERTEX
  5
469
  8
LIVELLO_01
 10
85.23521930538267
 20
39.94181715344197
 30
0.0
  0
VERTEX
  5
46A
  8
LIVELLO_01
 10
85.23521930538267
 20
54.72894220899752
 30
0.0
  0
VERTEX
  5
46B
  8
LIVELLO_01
 10
88.03716033316051
 20
54.7914438478864
 30
0.0
  0
VERTEX
  5
46C
  8
LIVELLO_01
 10
87.86064797204934
 20
52.26322309788634
 30
0.0
  0
VERTEX
  5
46D
  8
LIVELLO_01
 10
87.86064797204934
 20
44.09630465344193
 30
0.0
  0
VERTEX
  5
46E
  8
LIVELLO_01
 10
91.28616958316049
 20
43.59013909788644
 30
0.0
  0
VERTEX
  5
46F
  8
LIVELLO_01
 10
91.48616988871596
 20
31.99902195899753
 30
0.0
  0
VERTEX
  5
470
  8
LIVELLO_01
 10
95.23616944427165
 20
31.99902195899753
 30
0.0
  0
VERTEX
  5
471
  8
LIVELLO_01
 10
95.23616944427165
 20
43.52763745899742
 30
0.0
  0
VERTEX
  5
472
  8
LIVELLO_01
 10
99.00362797204936
 20
43.59013909788644
 30
0.0
  0
VERTEX
  5
473
  8
LIVELLO_01
 10
100.3618329998271
 20
43.59013909788644
 30
0.0
  0
VERTEX
  5
474
  8
LIVELLO_01
 10
100.3618329998271
 20
54.32438370899752
 30
0.0
  0
SEQEND
  5
475
  8
LIVELLO_01
  0
POLYLINE
  5
476
  8
LIVELLO_01
 66
     1
 10
0.0
 20
0.0
 30
0.0000000000000009
  0
VERTEX
  5
477
  8
LIVELLO_01
 10
27.26404601524219
 20
44.76162565262457
 30
0.0000000000000009
  0
VERTEX
  5
478
  8
LIVELLO_01
 10
-12.49377277802573
 20
-34.76948899562062
 30
0.0000000000000009
 42
0.56619037901415
  0
VERTEX
  5
479
  8
LIVELLO_01
 10
5.153286043519174
 20
-64.1812537043326
 30
0.0000000000000009
  0
VERTEX
  5
47A
  8
LIVELLO_01
 10
85.15328604351926
 20
-64.18125370433262
 30
0.0000000000000009
 42
0.566190378978581
  0
VERTEX
  5
47B
  8
LIVELLO_01
 10
102.8003448674761
 20
-34.76948899836047
 30
0.0000000000000009
  0
VERTEX
  5
47C
  8
LIVELLO_01
 10
63.04252607115456
 20
44.76162565587619
 30
0.0000000000000009
 42
0.618087779253762
  0
VERTEX
  5
47D
  8
LIVELLO_01
 10
27.26404601524226
 20
44.76162565262463
 30
0.0000000000000009
  0
SEQEND
  5
47E
  8
LIVELLO_01
  0
CIRCLE
  5
47F
  8
LIVELLO_01
 10
35.14565844798086
 20
40.80973319867304
 30
0.0
 40
1.5
  0
CIRCLE
  5
480
  8
LIVELLO_01
 10
55.14565844798086
 20
40.80973319867304
 30
0.0
 40
1.5
  0
CIRCLE
  5
481
  8
LIVELLO_01
 10
-4.82270003933904
 20
-44.08125370433254
 30
0.0
 40
1.5
  0
CIRCLE
  5
482
  8
LIVELLO_01
 10
95.12328604399441
 20
-44.08125370433251
 30
0.0
 40
1.5
  0
POLYLINE
  5
483
  8
LIVELLO_01
 66
     1
 10
0.0
 20
0.0
 30
0.0
 70
     1
  0
VERTEX
  5
484
  8
LIVELLO_01
 10
-39.02653694007118
 20
11.14301736982971
 30
0.0
  0
VERTEX
  5
485
  8
LIVELLO_01
 10
-39.02653694007118
 20
7.76716334205193
 30
0.0
  0
VERTEX
  5
486
  8
LIVELLO_01
 10
-43.27680360673786
 20
7.767159814274123
 30
0.0
  0
VERTEX
  5
487
  8
LIVELLO_01
 10
-59.02843721784903
 20
7.767159814274123
 30
0.0
  0
VERTEX
  5
488
  8
LIVELLO_01
 10
-61.13374796784898
 20
9.99428825871857
 30
0.0
  0
VERTEX
  5
489
  8
LIVELLO_01
 10
-61.52867210673791
 20
10.41205828649635
 30
0.0
  0
VERTEX
  5
48A
  8
LIVELLO_01
 10
-64.02891052340452
 20
13.05696028649632
 30
0.0
  0
VERTEX
  5
48B
  8
LIVELLO_01
 10
-66.52914894007124
 20
15.70185875871861
 30
0.0
  0
VERTEX
  5
48C
  8
LIVELLO_01
 10
-66.98887130118236
 20
16.18818056427412
 30
0.0
  0
VERTEX
  5
48D
  8
LIVELLO_01
 10
-67.682439467849
 20
16.92188073094084
 30
0.0
  0
VERTEX
  5
48E
  8
LIVELLO_01
 10
-69.02938735673784
 20
18.34675723094077
 30
0.0
  0
VERTEX
  5
48F
  8
LIVELLO_01
 10
-69.02938735673784
 20
43.04440489760746
 30
0.0
  0
VERTEX
  5
490
  8
LIVELLO_01
 10
-66.10391060673793
 20
43.04440489760746
 30
0.0
  0
VERTEX
  5
491
  8
LIVELLO_01
 10
-65.90391382896006
 20
27.85219217538521
 30
0.0
  0
VERTEX
  5
492
  8
LIVELLO_01
 10
-62.15391074562676
 20
27.85219217538521
 30
0.0
  0
VERTEX
  5
493
  8
LIVELLO_01
 10
-62.15391074562676
 20
42.9819032587186
 30
0.0
  0
VERTEX
  5
494
  8
LIVELLO_01
 10
-59.5284820789601
 20
43.04440489760746
 30
0.0
  0
VERTEX
  5
495
  8
LIVELLO_01
 10
-59.5284820789601
 20
30.52312564760743
 30
0.0
  0
VERTEX
  5
496
  8
LIVELLO_01
 10
-56.10296046784894
 20
30.52312564760743
 30
0.0
  0
VERTEX
  5
497
  8
LIVELLO_01
 10
-55.90296016229347
 20
19.27014600871861
 30
0.0
  0
VERTEX
  5
498
  8
LIVELLO_01
 10
-52.15296060673784
 20
19.27014600871861
 30
0.0
  0
VERTEX
  5
499
  8
LIVELLO_01
 10
-52.15296060673784
 20
30.46062753649632
 30
0.0
  0
VERTEX
  5
49A
  8
LIVELLO_01
 10
-50.72584044007117
 20
30.52312564760743
 30
0.0
  0
VERTEX
  5
49B
  8
LIVELLO_01
 10
-47.02729705118229
 20
30.52312564760743
 30
0.0
  0
VERTEX
  5
49C
  8
LIVELLO_01
 10
-47.02729705118229
 20
43.04440489760746
 30
0.0
  0
VERTEX
  5
49D
  8
LIVELLO_01
 10
-46.10201385673791
 20
43.04440489760746
 30
0.0
  0
VERTEX
  5
49E
  8
LIVELLO_01
 10
-45.90201355118232
 20
25.5307838698297
 30
0.0
  0
VERTEX
  5
49F
  8
LIVELLO_01
 10
-42.15201046784897
 20
25.5307838698297
 30
0.0
  0
VERTEX
  5
4A0
  8
LIVELLO_01
 10
-42.15201046784897
 20
42.9819032587186
 30
0.0
  0
VERTEX
  5
4A1
  8
LIVELLO_01
 10
-39.02653694007118
 20
43.04440489760746
 30
0.0
  0
SEQEND
  5
4A2
  8
LIVELLO_01
  0
POLYLINE
  5
4A3
  8
INFO
 66
     1
 10
0.0
 20
0.0
 30
0.0
  0
VERTEX
  5
4A4
  8
INFO
 10
-43.85399038451565
 20
14.24201139760751
 30
0.0
  0
VERTEX
  5
4A5
  8
INFO
 10
-43.85399038451565
 20
13.39588448094081
 30
0.0
  0
VERTEX
  5
4A6
  8
INFO
 10
-43.86763935673785
 20
13.24370673094077
 30
0.0
  0
VERTEX
  5
4A7
  8
INFO
 10
-43.90698466229337
 20
13.10051070316302
 30
0.0
  0
VERTEX
  5
4A8
  8
INFO
 10
-43.96960624562682
 20
12.96868470316309
 30
0.0
  0
VERTEX
  5
4A9
  8
INFO
 10
-44.05309110673782
 20
12.85059939760747
 30
0.0
  0
VERTEX
  5
4AA
  8
INFO
 10
-44.15502271784901
 20
12.74864661982971
 30
0.0
  0
VERTEX
  5
4AB
  8
INFO
 10
-44.2729880789601
 20
12.66520409205189
 30
0.0
  0
VERTEX
  5
4AC
  8
INFO
 10
-44.40456713451566
 20
12.60265659205186
 30
0.0
  0
VERTEX
  5
4AD
  8
INFO
 10
-44.54735041229343
 20
12.56337831427413
 30
0.0
  0
VERTEX
  5
4AE
  8
INFO
 10
-44.69892138451569
 20
12.5497575642741
 30
0.0
  0
VERTEX
  5
4AF
  8
INFO
 10
-45.1225828011823
 20
12.5497575642741
 30
0.0
  0
VERTEX
  5
4B0
  8
INFO
 10
-45.27409027340455
 20
12.56337831427413
 30
0.0
  0
VERTEX
  5
4B1
  8
INFO
 10
-45.41684180118231
 20
12.60265659205186
 30
0.0
  0
VERTEX
  5
4B2
  8
INFO
 10
-45.54841380118232
 20
12.66520409205189
 30
0.0
  0
VERTEX
  5
4B3
  8
INFO
 10
-45.66638621784902
 20
12.74864661982971
 30
0.0
  0
VERTEX
  5
4B4
  8
INFO
 10
-45.76833546784898
 20
12.85059939760747
 30
0.0
  0
VERTEX
  5
4B5
  8
INFO
 10
-45.85184502340455
 20
12.96868470316309
 30
0.0
  0
VERTEX
  5
4B6
  8
INFO
 10
-45.91449482896012
 20
13.10051070316302
 30
0.0
  0
VERTEX
  5
4B7
  8
INFO
 10
-45.95385777340452
 20
13.24370673094077
 30
0.0
  0
VERTEX
  5
4B8
  8
INFO
 10
-45.96751732896011
 20
13.39588448094081
 30
0.0
  0
VERTEX
  5
4B9
  8
INFO
 10
-45.96751732896011
 20
13.81954589760743
 30
0.0
  0
VERTEX
  5
4BA
  8
INFO
 10
-45.96751732896011
 20
13.39588448094081
 30
0.0
  0
VERTEX
  5
4BB
  8
INFO
 10
-45.98118041229343
 20
13.24370673094077
 30
0.0
  0
VERTEX
  5
4BC
  8
INFO
 10
-46.0205645234045
 20
13.10051070316302
 30
0.0
  0
VERTEX
  5
4BD
  8
INFO
 10
-46.08327430118236
 20
12.96868470316309
 30
0.0
  0
VERTEX
  5
4BE
  8
INFO
 10
-46.16690732896011
 20
12.85059939760747
 30
0.0
  0
VERTEX
  5
4BF
  8
INFO
 10
-46.26905766229343
 20
12.74864661982971
 30
0.0
  0
VERTEX
  5
4C0
  8
INFO
 10
-46.3873264122934
 20
12.66520409205189
 30
0.0
  0
VERTEX
  5
4C1
  8
INFO
 10
-46.51931469007125
 20
12.60265659205186
 30
0.0
  0
VERTEX
  5
4C2
  8
INFO
 10
-46.6626200789601
 20
12.56337831427413
 30
0.0
  0
VERTEX
  5
4C3
  8
INFO
 10
-46.81484016229346
 20
12.5497575642741
 30
0.0
  0
VERTEX
  5
4C4
  8
INFO
 10
-46.96634763451571
 20
12.56337831427413
 30
0.0
  0
VERTEX
  5
4C5
  8
INFO
 10
-47.10909563451564
 20
12.60265659205186
 30
0.0
  0
VERTEX
  5
4C6
  8
INFO
 10
-47.24066763451559
 20
12.66520409205189
 30
0.0
  0
VERTEX
  5
4C7
  8
INFO
 10
-47.35864005118229
 20
12.74864661982971
 30
0.0
  0
VERTEX
  5
4C8
  8
INFO
 10
-47.46059282896015
 20
12.85059939760747
 30
0.0
  0
VERTEX
  5
4C9
  8
INFO
 10
-47.54410238451571
 20
12.96868470316309
 30
0.0
  0
VERTEX
  5
4CA
  8
INFO
 10
-47.60674866229344
 20
13.10051070316302
 30
0.0
  0
VERTEX
  5
4CB
  8
INFO
 10
-47.64611513451568
 20
13.24370673094077
 30
0.0
  0
VERTEX
  5
4CC
  8
INFO
 10
-47.65977116229344
 20
13.39588448094081
 30
0.0
  0
VERTEX
  5
4CD
  8
INFO
 10
-47.65977116229344
 20
14.24201139760751
 30
0.0
  0
SEQEND
  5
4CE
  8
INFO
  0
LINE
  5
4CF
  8
INFO
 10
-45.75903271784897
 20
15.67052503649631
 30
0.0
 11
-45.75903271784897
 21
17.75394592538522
 31
0.0
  0
LINE
  5
4D0
  8
INFO
 10
-45.97420599562672
 20
20.45404000871859
 30
0.0
 11
-43.85375049562673
 21
20.45404000871859
 31
0.0
  0
POLYLINE
  5
4D1
  8
INFO
 66
     1
 10
0.0
 20
0.0
 30
0.0
  0
VERTEX
  5
4D2
  8
INFO
 10
-47.66431141229337
 20
19.18329564760744
 30
0.0
  0
VERTEX
  5
4D3
  8
INFO
 10
-45.82629685673787
 20
20.45404000871859
 30
0.0
  0
VERTEX
  5
4D4
  8
INFO
 10
-47.66431141229349
 20
21.72502073094077
 30
0.0
  0
SEQEND
  5
4D5
  8
INFO
  0
POLYLINE
  5
4D6
  8
INFO
 66
     1
 10
0.0
 20
0.0
 30
0.0
  0
VERTEX
  5
4D7
  8
INFO
 10
-60.83740052340458
 20
21.16622778649639
 30
0.0
  0
VERTEX
  5
4D8
  8
INFO
 10
-60.83740052340458
 20
19.74871375871861
 30
0.0
  0
VERTEX
  5
4D9
  8
INFO
 10
-60.86027110673784
 20
19.49376831427412
 30
0.0
  0
VERTEX
  5
4DA
  8
INFO
 10
-60.92618410673786
 20
19.2538758976075
 30
0.0
  0
VERTEX
  5
4DB
  8
INFO
 10
-61.0310931622934
 20
19.03302289760749
 30
0.0
  0
VERTEX
  5
4DC
  8
INFO
 10
-61.17095544007121
 20
18.83520275871857
 30
0.0
  0
VERTEX
  5
4DD
  8
INFO
 10
-61.34172105118232
 20
18.66440186982967
 30
0.0
  0
VERTEX
  5
4DE
  8
INFO
 10
-61.53934716229342
 20
18.52460661982964
 30
0.0
  0
VERTEX
  5
4DF
  8
INFO
 10
-61.75978388451567
 20
18.41981750871857
 30
0.0
  0
VERTEX
  5
4E0
  8
INFO
 10
-61.99898838451558
 20
18.35401739760752
 30
0.0
  0
VERTEX
  5
4E1
  8
INFO
 10
-62.25291430118232
 20
18.33119973094075
 30
0.0
  0
VERTEX
  5
4E2
  8
INFO
 10
-62.96267144007116
 20
18.33119973094075
 30
0.0
  0
VERTEX
  5
4E3
  8
INFO
 10
-63.21649152340454
 20
18.35401739760752
 30
0.0
  0
VERTEX
  5
4E4
  8
INFO
 10
-63.45564310673784
 20
18.41981750871857
 30
0.0
  0
VERTEX
  5
4E5
  8
INFO
 10
-63.67606219007114
 20
18.52460661982964
 30
0.0
  0
VERTEX
  5
4E6
  8
INFO
 10
-63.87370241229347
 20
18.66440186982967
 30
0.0
  0
VERTEX
  5
4E7
  8
INFO
 10
-64.04449977340447
 20
18.83520275871857
 30
0.0
  0
VERTEX
  5
4E8
  8
INFO
 10
-64.18440438451567
 20
19.03302289760749
 30
0.0
  0
VERTEX
  5
4E9
  8
INFO
 10
-64.28935930118227
 20
19.2538758976075
 30
0.0
  0
VERTEX
  5
4EA
  8
INFO
 10
-64.3553040511823
 20
19.49376831427412
 30
0.0
  0
VERTEX
  5
4EB
  8
INFO
 10
-64.37818874562679
 20
19.74871375871861
 30
0.0
  0
VERTEX
  5
4EC
  8
INFO
 10
-64.37818874562679
 20
20.45847089760746
 30
0.0
  0
VERTEX
  5
4ED
  8
INFO
 10
-64.37818874562679
 20
19.74871375871861
 30
0.0
  0
VERTEX
  5
4EE
  8
INFO
 10
-64.401076967849
 20
19.49376831427412
 30
0.0
  0
VERTEX
  5
4EF
  8
INFO
 10
-64.46706052340453
 20
19.2538758976075
 30
0.0
  0
VERTEX
  5
4F0
  8
INFO
 10
-64.57211774562681
 20
19.03302289760749
 30
0.0
  0
VERTEX
  5
4F1
  8
INFO
 10
-64.71222344007116
 20
18.83520275871857
 30
0.0
  0
VERTEX
  5
4F2
  8
INFO
 10
-64.88335946784899
 20
18.66440186982967
 30
0.0
  0
VERTEX
  5
4F3
  8
INFO
 10
-65.0814971067379
 20
18.52460661982964
 30
0.0
  0
VERTEX
  5
4F4
  8
INFO
 10
-65.30261469007114
 20
18.41981750871857
 30
0.0
  0
VERTEX
  5
4F5
  8
INFO
 10
-65.5426905511823
 20
18.35401739760752
 30
0.0
  0
VERTEX
  5
4F6
  8
INFO
 10
-65.79770302340448
 20
18.33119973094075
 30
0.0
  0
VERTEX
  5
4F7
  8
INFO
 10
-66.05152310673786
 20
18.35401739760752
 30
0.0
  0
VERTEX
  5
4F8
  8
INFO
 10
-66.29067116229344
 20
18.41981750871857
 30
0.0
  0
VERTEX
  5
4F9
  8
INFO
 10
-66.51109377340451
 20
18.52460661982964
 30
0.0
  0
VERTEX
  5
4FA
  8
INFO
 10
-66.70873399562679
 20
18.66440186982967
 30
0.0
  0
VERTEX
  5
4FB
  8
INFO
 10
-66.87953135673784
 20
18.83520275871857
 30
0.0
  0
VERTEX
  5
4FC
  8
INFO
 10
-67.01943596784899
 20
19.03302289760749
 30
0.0
  0
VERTEX
  5
4FD
  8
INFO
 10
-67.12438735673787
 20
19.2538758976075
 30
0.0
  0
VERTEX
  5
4FE
  8
INFO
 10
-67.19033563451562
 20
19.49376831427412
 30
0.0
  0
VERTEX
  5
4FF
  8
INFO
 10
-67.21321680118238
 20
19.74871375871861
 30
0.0
  0
VERTEX
  5
500
  8
INFO
 10
-67.21321680118238
 20
21.16622778649639
 30
0.0
  0
SEQEND
  5
501
  8
INFO
  0
POLYLINE
  5
502
  8
INFO
 66
     1
 10
0.0
 20
0.0
 30
0.0
  0
VERTEX
  5
503
  8
INFO
 10
-50.82790963451565
 20
9.72474839760747
 30
0.0
  0
VERTEX
  5
504
  8
INFO
 10
-50.82790963451565
 20
12.56714598094082
 30
0.0
  0
VERTEX
  5
505
  8
INFO
 10
-55.05618060673781
 20
9.940680147607466
 30
0.0
  0
VERTEX
  5
506
  8
INFO
 10
-55.0600646900712
 20
9.937540425385237
 30
0.0
  0
VERTEX
  5
507
  8
INFO
 10
-55.06398405118232
 20
9.93452770316307
 30
0.0
  0
VERTEX
  5
508
  8
INFO
 10
-55.06797044007116
 20
9.931627869829683
 30
0.0
  0
VERTEX
  5
509
  8
INFO
 10
-55.07205207896008
 20
9.928816230940825
 30
0.0
  0
VERTEX
  5
50A
  8
INFO
 10
-55.07626777340447
 20
9.926068092051892
 30
0.0
  0
VERTEX
  5
50B
  8
INFO
 10
-55.08064927340455
 20
9.923376397607527
 30
0.0
  0
VERTEX
  5
50C
  8
INFO
 10
-55.08522832896004
 20
9.920712925385232
 30
0.0
  0
VERTEX
  5
50D
  8
INFO
 10
-55.09003669007119
 20
9.918056508718578
 30
0.0
  0
VERTEX
  5
50E
  8
INFO
 10
-55.09511316229343
 20
9.915396564274104
 30
0.0
  0
VERTEX
  5
50F
  8
INFO
 10
-55.32795355118229
 20
9.80694561982969
 30
0.0
  0
VERTEX
  5
510
  8
INFO
 10
-55.56931705118232
 20
9.743593786496348
 30
0.0
  0
VERTEX
  5
511
  8
INFO
 10
-55.81374266229345
 20
9.723781786496318
 30
0.0
  0
VERTEX
  5
512
  8
INFO
 10
-56.05578349562676
 20
9.745960925385234
 30
0.0
  0
VERTEX
  5
513
  8
INFO
 10
-56.28998207896005
 20
9.808575453163016
 30
0.0
  0
VERTEX
  5
514
  8
INFO
 10
-56.5108809400712
 20
9.910069619829727
 30
0.0
  0
VERTEX
  5
515
  8
INFO
 10
-56.71303319007124
 20
10.04890178649636
 30
0.0
  0
VERTEX
  5
516
  8
INFO
 10
-56.89098135673787
 20
10.22350561982972
 30
0.0
  0
VERTEX
  5
517
  8
INFO
 10
-57.0392750234045
 20
10.43233948094081
 30
0.0
  0
VERTEX
  5
518
  8
INFO
 10
-57.14617727340452
 20
10.6658289809408
 30
0.0
  0
VERTEX
  5
519
  8
INFO
 10
-57.20855544007121
 20
10.9075593698297
 30
0.0
  0
VERTEX
  5
51A
  8
INFO
 10
-57.22780652340451
 20
11.15212961982974
 30
0.0
  0
VERTEX
  5
51B
  8
INFO
 10
-57.20533457896009
 20
11.39413517538526
 30
0.0
  0
VERTEX
  5
51C
  8
INFO
 10
-57.14254719007117
 20
11.62816442538518
 30
0.0
  0
VERTEX
  5
51D
  8
INFO
 10
-57.04084841229347
 20
11.84882339760745
 30
0.0
  0
VERTEX
  5
51E
  8
INFO
 10
-56.90163877340454
 20
12.05070048094076
 30
0.0
  0
VERTEX
  5
51F
  8
INFO
 10
-56.72632585673783
 20
12.22839464760743
 30
0.0
  0
VERTEX
  5
520
  8
INFO
 10
-56.51630666229345
 20
12.37650134205194
 30
0.0
  0
VERTEX
  5
521
  8
INFO
 10
-56.15830071784897
 20
12.5631278420519
 30
0.0
  0
SEQEND
  5
522
  8
INFO
  0
POLYLINE
  5
523
  8
INFO
 66
     1
 10
0.0
 20
0.0
 30
0.0
  0
VERTEX
  5
524
  8
INFO
 10
-40.82701241229346
 20
16.69498464760747
 30
0.0
  0
VERTEX
  5
525
  8
INFO
 10
-47.22701160673795
 20
16.69498464760747
 30
0.0
  0
VERTEX
  5
526
  8
INFO
 10
-45.80380727340456
 20
18.1177868142741
 30
0.0
  0
SEQEND
  5
527
  8
INFO
  0
LINE
  5
528
  8
LIVELLO_01
 10
-45.89083473858396
 20
-41.95920435904921
 30
0.0
 11
-45.50142451636178
 21
-42.73497680349362
 31
0.0
  0
POLYLINE
  5
529
  8
LIVELLO_01
 66
     1
 10
0.0
 20
0.0
 30
0.0
 70
     1
  0
VERTEX
  5
52A
  8
LIVELLO_01
 10
-82.69267874709509
 20
96.07108430761761
 30
0.0
  0
VERTEX
  5
52B
  8
LIVELLO_01
 10
-82.69267874709509
 20
108.0722244742843
 30
0.0
  0
VERTEX
  5
52C
  8
LIVELLO_01
 10
-134.6976229970952
 20
108.0722244742843
 30
0.0
  0
VERTEX
  5
52D
  8
LIVELLO_01
 10
-134.6976229970952
 20
96.07108430761761
 30
0.0
  0
SEQEND
  5
52E
  8
LIVELLO_01
  0
POLYLINE
  5
52F
  8
LIVELLO_01
 66
     1
 10
0.0
 20
0.0
 30
0.0
 70
     1
  0
VERTEX
  5
530
  8
LIVELLO_01
 10
-152.9782684367412
 20
96.07108430761775
 30
0.0
  0
VERTEX
  5
531
  8
LIVELLO_01
 10
-149.9377006082063
 20
102.1534000576176
 30
0.0
  0
VERTEX
  5
532
  8
LIVELLO_01
 10
-148.2809679693174
 20
105.4675109187287
 30
0.0
  0
VERTEX
  5
533
  8
LIVELLO_01
 10
-144.020805885984
 20
113.9895107798399
 30
0.0
  0
VERTEX
  5
534
  8
LIVELLO_01
 10
-139.7606332193174
 20
122.5115141687287
 30
0.0
  0
VERTEX
  5
535
  8
LIVELLO_01
 10
-138.1038970526507
 20
125.8256215020621
 30
0.0
  0
VERTEX
  5
536
  8
LIVELLO_01
 10
-134.696719885984
 20
132.6412916965065
 30
0.0
  0
VERTEX
  5
537
  8
LIVELLO_01
 10
-121.9302671359841
 20
121.9218249465065
 30
0.0
  0
VERTEX
  5
538
  8
LIVELLO_01
 10
-119.4845928582063
 20
124.764568252062
 30
0.0
  0
VERTEX
  5
539
  8
LIVELLO_01
 10
-132.8661066082062
 20
136.2770124187287
 30
0.0
  0
VERTEX
  5
53A
  8
LIVELLO_01
 10
-132.1869882193173
 20
137.6617357520621
 30
0.0
  0
VERTEX
  5
53B
  8
LIVELLO_01
 10
-127.9268155526507
 20
146.1837356131732
 30
0.0
  0
VERTEX
  5
53C
  8
LIVELLO_01
 10
-126.2700864415396
 20
149.4978500020621
 30
0.0
  0
VERTEX
  5
53D
  8
LIVELLO_01
 10
-122.0099173026506
 20
158.0198498631731
 30
0.0
  0
VERTEX
  5
53E
  8
LIVELLO_01
 10
-121.7532150248729
 20
158.500181502062
 30
0.0
  0
VERTEX
  5
53F
  8
LIVELLO_01
 10
-121.4965162748729
 20
158.9805096131732
 30
0.0
  0
VERTEX
  5
540
  8
LIVELLO_01
 10
-120.9232806082062
 20
159.9246770020621
 30
0.0
  0
VERTEX
  5
541
  8
LIVELLO_01
 10
-120.3042438026506
 20
160.8282678909509
 30
0.0
  0
VERTEX
  5
542
  8
LIVELLO_01
 10
-119.6291294415396
 20
161.7058837520621
 30
0.0
  0
VERTEX
  5
543
  8
LIVELLO_01
 10
-118.899475635984
 20
162.5525010298398
 30
0.0
  0
VERTEX
  5
544
  8
LIVELLO_01
 10
-118.1173778859839
 20
163.3631949465065
 30
0.0
  0
VERTEX
  5
545
  8
LIVELLO_01
 10
-117.2960300804285
 20
164.1240836965065
 30
0.0
  0
VERTEX
  5
546
  8
LIVELLO_01
 10
-116.4292833026507
 20
164.8410269187287
 30
0.0
  0
VERTEX
  5
547
  8
LIVELLO_01
 10
-114.5759440804284
 20
166.1268595853954
 30
0.0
  0
VERTEX
  5
548
  8
LIVELLO_01
 10
-113.5972185804285
 20
166.6897200576176
 30
0.0
  0
VERTEX
  5
549
  8
LIVELLO_01
 10
-112.590020385984
 20
167.1956527798398
 30
0.0
  0
VERTEX
  5
54A
  8
LIVELLO_01
 10
-111.559337774873
 20
167.6426716131732
 30
0.0
  0
VERTEX
  5
54B
  8
LIVELLO_01
 10
-110.5103354137618
 20
168.0293901409509
 30
0.0
  0
VERTEX
  5
54C
  8
LIVELLO_01
 10
-109.4482273582063
 20
168.3550005020621
 30
0.0
  0
VERTEX
  5
54D
  8
LIVELLO_01
 10
-108.378224135984
 20
168.6192769187287
 30
0.0
  0
VERTEX
  5
54E
  8
LIVELLO_01
 10
-107.3054586637618
 20
168.8225721687287
 30
0.0
  0
VERTEX
  5
54F
  8
LIVELLO_01
 10
-106.4460249693173
 20
141.5654088353954
 30
0.0
  0
VERTEX
  5
550
  8
LIVELLO_01
 10
-102.6963887748728
 20
141.6174788353954
 30
0.0
  0
VERTEX
  5
551
  8
LIVELLO_01
 10
-103.0762175526506
 20
168.9705024742843
 30
0.0
  0
VERTEX
  5
552
  8
LIVELLO_01
 10
-101.929291135984
 20
168.9578060020621
 30
0.0
  0
VERTEX
  5
553
  8
LIVELLO_01
 10
-100.844266635984
 20
168.8081329742843
 30
0.0
  0
VERTEX
  5
554
  8
LIVELLO_01
 10
-99.75740416376173
 20
168.5966885576176
 30
0.0
  0
VERTEX
  5
555
  8
LIVELLO_01
 10
-98.67387544153961
 20
168.322601390951
 30
0.0
  0
VERTEX
  5
556
  8
LIVELLO_01
 10
-97.59902505265062
 20
167.9855398631732
 30
0.0
  0
VERTEX
  5
557
  8
LIVELLO_01
 10
-96.55118333042849
 20
167.5911060853954
 30
0.0
  0
VERTEX
  5
558
  8
LIVELLO_01
 10
-95.52234221931734
 20
167.1364037520621
 30
0.0
  0
VERTEX
  5
559
  8
LIVELLO_01
 10
-93.54350230265065
 20
166.0536158631732
 30
0.0
  0
VERTEX
  5
55A
  8
LIVELLO_01
 10
-92.60241466376179
 20
165.4298588909509
 30
0.0
  0
VERTEX
  5
55B
  8
LIVELLO_01
 10
-91.69951874709515
 20
164.7551890298398
 30
0.0
  0
VERTEX
  5
55C
  8
LIVELLO_01
 10
-90.83881152487292
 20
164.0331728631732
 30
0.0
  0
VERTEX
  5
55D
  8
LIVELLO_01
 10
-90.02384899709516
 20
163.2677932520621
 30
0.0
  0
VERTEX
  5
55E
  8
LIVELLO_01
 10
-89.25769327487295
 20
162.4633717242843
 30
0.0
  0
VERTEX
  5
55F
  8
LIVELLO_01
 10
-88.54286319153958
 20
161.6244591131732
 30
0.0
  0
VERTEX
  5
560
  8
LIVELLO_01
 10
-87.88133783042842
 20
160.7558143909509
 30
0.0
  0
VERTEX
  5
561
  8
LIVELLO_01
 10
-87.27453888598403
 20
159.8622706131732
 30
0.0
  0
VERTEX
  5
562
  8
LIVELLO_01
 10
-86.7233236082062
 20
158.9486784742843
 30
0.0
  0
VERTEX
  5
563
  8
LIVELLO_01
 10
-86.22803419153955
 20
158.0198498631731
 30
0.0
  0
VERTEX
  5
564
  8
LIVELLO_01
 10
-76.9614897748729
 20
139.483155640951
 30
0.0
  0
VERTEX
  5
565
  8
LIVELLO_01
 10
-89.66824899709512
 20
126.5083382242843
 30
0.0
  0
VERTEX
  5
566
  8
LIVELLO_01
 10
-86.98906405265068
 20
123.884507640951
 30
0.0
  0
VERTEX
  5
567
  8
LIVELLO_01
 10
-75.27969580265072
 20
135.8408908909509
 30
0.0
  0
VERTEX
  5
568
  8
LIVELLO_01
 10
-66.34723194153956
 20
118.2505124742843
 30
0.0
  0
VERTEX
  5
569
  8
LIVELLO_01
 10
-56.40683258042849
 20
98.36584025206207
 30
0.0
  0
VERTEX
  5
56A
  8
LIVELLO_01
 10
-55.25967852258178
 20
96.07108430761761
 30
0.0
  0
VERTEX
  5
56B
  8
LIVELLO_01
 10
-46.46643674709507
 20
78.48116802984
 30
0.0
  0
VERTEX
  5
56C
  8
LIVELLO_01
 10
-45.9390374970951
 20
77.31933322428446
 30
0.0
  0
VERTEX
  5
56D
  8
LIVELLO_01
 10
-45.41630549709508
 20
76.16976802983999
 30
0.0
  0
VERTEX
  5
56E
  8
LIVELLO_01
 10
-45.03328055265062
 20
74.92465650206219
 30
0.0
  0
VERTEX
  5
56F
  8
LIVELLO_01
 10
-44.65492285820612
 20
73.69181811317335
 30
0.0
  0
VERTEX
  5
570
  8
LIVELLO_01
 10
-44.43692735820615
 20
72.40675450206226
 30
0.0
  0
VERTEX
  5
571
  8
LIVELLO_01
 10
-44.2189283304284
 20
71.1216908909511
 30
0.0
  0
VERTEX
  5
572
  8
LIVELLO_01
 10
-44.17002627487282
 20
69.81490322428445
 30
0.0
  0
VERTEX
  5
573
  8
LIVELLO_01
 10
-44.12112069153953
 20
68.50812261317333
 30
0.0
  0
VERTEX
  5
574
  8
LIVELLO_01
 10
-44.24310771931725
 20
67.20636202984002
 30
0.0
  0
VERTEX
  5
575
  8
LIVELLO_01
 10
-44.36509121931725
 20
65.90461202983998
 30
0.0
  0
VERTEX
  5
576
  8
LIVELLO_01
 10
-44.94014016376171
 20
63.37690280761777
 30
0.0
  0
VERTEX
  5
577
  8
LIVELLO_01
 10
-45.3798529693173
 20
62.18084150206224
 30
0.0
  0
VERTEX
  5
578
  8
LIVELLO_01
 10
-45.81956224709505
 20
60.98477666872891
 30
0.0
  0
VERTEX
  5
579
  8
LIVELLO_01
 10
-46.39162316376171
 20
59.88120664095112
 30
0.0
  0
VERTEX
  5
57A
  8
LIVELLO_01
 10
-46.96368055265059
 20
58.77762250206227
 30
0.0
  0
VERTEX
  5
57B
  8
LIVELLO_01
 10
-47.68860360820615
 20
57.72762177984002
 30
0.0
  0
VERTEX
  5
57C
  8
LIVELLO_01
 10
-48.41352313598394
 20
56.67762105761777
 30
0.0
  0
VERTEX
  5
57D
  8
LIVELLO_01
 10
-49.27601541376173
 20
55.71888394650666
 30
0.0
  0
VERTEX
  5
57E
  8
LIVELLO_01
 10
-50.13851121931724
 20
54.76015741872888
 30
0.0
  0
VERTEX
  5
57F
  8
LIVELLO_01
 10
-51.12828219153953
 20
53.91207258539555
 30
0.0
  0
VERTEX
  5
580
  8
LIVELLO_01
 10
-52.1180531637617
 20
53.06398775206225
 30
0.0
  0
VERTEX
  5
581
  8
LIVELLO_01
 10
-53.21344933042842
 20
52.34971152983998
 30
0.0
  0
VERTEX
  5
582
  8
LIVELLO_01
 10
-54.30884902487286
 20
51.6354458909511
 30
0.0
  0
VERTEX
  5
583
  8
LIVELLO_01
 10
-55.4878570526506
 20
51.07029941872891
 30
0.0
  0
VERTEX
  5
584
  8
LIVELLO_01
 10
-56.66686508042839
 20
50.50515294650666
 30
0.0
  0
VERTEX
  5
585
  8
LIVELLO_01
 10
-57.89854283042841
 20
50.10145169650666
 30
0.0
  0
VERTEX
  5
586
  8
LIVELLO_01
 10
-59.13022410820615
 20
49.69776102984002
 30
0.0
  0
VERTEX
  5
587
  8
LIVELLO_01
 10
-60.38206663598395
 20
49.45943847428444
 30
0.0
  0
VERTEX
  5
588
  8
LIVELLO_01
 10
-61.63390916376169
 20
49.22111239095112
 30
0.0
  0
VERTEX
  5
589
  8
LIVELLO_01
 10
-62.24463805265059
 20
49.2580376409511
 30
0.0
  0
VERTEX
  5
58A
  8
LIVELLO_01
 10
-62.24463805265059
 20
81.30553866872887
 30
0.0
  0
VERTEX
  5
58B
  8
LIVELLO_01
 10
-65.99463760820616
 20
81.30553866872887
 30
0.0
  0
VERTEX
  5
58C
  8
LIVELLO_01
 10
-65.99463760820616
 20
49.12911852983999
 30
0.0
  0
VERTEX
  5
58D
  8
LIVELLO_01
 10
-69.82999880265059
 20
49.06662041872887
 30
0.0
  0
VERTEX
  5
58E
  8
LIVELLO_01
 10
-142.0446435526507
 20
49.06662041872886
 30
0.0
  0
VERTEX
  5
58F
  8
LIVELLO_01
 10
-142.2446438582061
 20
81.30420516872888
 30
0.0
  0
VERTEX
  5
590
  8
LIVELLO_01
 10
-145.9946398859839
 20
81.30420516872888
 30
0.0
  0
VERTEX
  5
591
  8
LIVELLO_01
 10
-145.9946398859839
 20
49.26154777983997
 30
0.0
  0
VERTEX
  5
592
  8
LIVELLO_01
 10
-146.6694473304285
 20
49.22940266872889
 30
0.0
  0
VERTEX
  5
593
  8
LIVELLO_01
 10
-149.2011641082062
 20
49.72204977983996
 30
0.0
  0
VERTEX
  5
594
  8
LIVELLO_01
 10
-150.4376184693172
 20
50.13442936317331
 30
0.0
  0
VERTEX
  5
595
  8
LIVELLO_01
 10
-151.6740834137618
 20
50.54680541872885
 30
0.0
  0
VERTEX
  5
596
  8
LIVELLO_01
 10
-154.0262010248728
 20
51.69042630761778
 30
0.0
  0
VERTEX
  5
597
  8
LIVELLO_01
 10
-155.1174132470951
 20
52.41064683539553
 30
0.0
  0
VERTEX
  5
598
  8
LIVELLO_01
 10
-156.208614885984
 20
53.13086383539557
 30
0.0
  0
VERTEX
  5
599
  8
LIVELLO_01
 10
-157.1884763304284
 20
53.9793261409511
 30
0.0
  0
VERTEX
  5
59A
  8
LIVELLO_01
 10
-158.1683377748728
 20
54.82778844650666
 30
0.0
  0
VERTEX
  5
59B
  8
LIVELLO_01
 10
-159.0167577470951
 20
55.77861275206219
 30
0.0
  0
VERTEX
  5
59C
  8
LIVELLO_01
 10
-159.8651847748729
 20
56.72944058539551
 30
0.0
  0
VERTEX
  5
59D
  8
LIVELLO_01
 10
-160.5697208026506
 20
57.75353683539558
 30
0.0
  0
VERTEX
  5
59E
  8
LIVELLO_01
 10
-161.274263885984
 20
58.77762250206226
 30
0.0
  0
VERTEX
  5
59F
  8
LIVELLO_01
 10
-161.8595963026506
 20
59.91138325206224
 30
0.0
  0
VERTEX
  5
5A0
  8
LIVELLO_01
 10
-162.4449287193173
 20
61.04513341872887
 30
0.0
  0
VERTEX
  5
5A1
  8
LIVELLO_01
 10
-162.8849837193173
 20
62.25732019650663
 30
0.0
  0
VERTEX
  5
5A2
  8
LIVELLO_01
 10
-163.325042247095
 20
63.46951050206219
 30
0.0
  0
VERTEX
  5
5A3
  8
LIVELLO_01
 10
-163.6075819693173
 20
64.74193408539557
 30
0.0
  0
VERTEX
  5
5A4
  8
LIVELLO_01
 10
-163.8901358026507
 20
66.01436825206223
 30
0.0
  0
VERTEX
  5
5A5
  8
LIVELLO_01
 10
-164.0048873582062
 20
67.31702489095112
 30
0.0
  0
VERTEX
  5
5A6
  8
LIVELLO_01
 10
-164.1196424415396
 20
68.61968152984
 30
0.0
  0
VERTEX
  5
5A7
  8
LIVELLO_01
 10
-164.0634766915395
 20
69.92592944650669
 30
0.0
  0
VERTEX
  5
5A8
  8
LIVELLO_01
 10
-164.0073003582062
 20
71.23219147428445
 30
0.0
  0
VERTEX
  5
5A9
  8
LIVELLO_01
 10
-163.7838967748728
 20
72.50893305761777
 30
0.0
  0
VERTEX
  5
5AA
  8
LIVELLO_01
 10
-163.5604826082062
 20
73.78568522428444
 30
0.0
  0
VERTEX
  5
5AB
  8
LIVELLO_01
 10
-163.1816627748728
 20
75.00240872428449
 30
0.0
  0
VERTEX
  5
5AC
  8
LIVELLO_01
 10
-162.8028394137617
 20
76.21911811317338
 30
0.0
  0
VERTEX
  5
5AD
  8
LIVELLO_01
 10
-162.2871735526506
 20
77.35014483539558
 30
0.0
  0
VERTEX
  5
5AE
  8
LIVELLO_01
 10
-161.7715076915395
 20
78.48116802984
 30
0.0
  0
VERTEX
  5
5AF
  8
LIVELLO_01
 10
-158.9313925804285
 20
84.16250244650669
 30
0.0
  0
VERTEX
  5
5B0
  8
LIVELLO_01
 10
-156.0912880526506
 20
89.84383686317335
 30
0.0
  0
SEQEND
  5
5B1
  8
LIVELLO_01
  0
CIRCLE
  5
5B2
  8
LIVELLO_01
 10
-114.1232010792198
 20
154.0524998217344
 30
0.0
 40
1.5
  0
CIRCLE
  5
5B3
  8
LIVELLO_01
 10
-94.12320107921975
 20
154.0524998217344
 30
0.0
 40
1.5
  0
CIRCLE
  5
5B4
  8
LIVELLO_01
 10
-154.0915595665397
 20
69.16151291872887
 30
0.0
 40
1.5
  0
CIRCLE
  5
5B5
  8
LIVELLO_01
 10
-54.14557348320618
 20
69.16151291872889
 30
0.0
 40
1.5
  0
POLYLINE
  5
5B6
  8
INFO
 66
     1
 10
0.0
 20
0.0
 30
0.0
  0
VERTEX
  5
5B7
  8
INFO
 10
-117.1739724970951
 20
116.0819945298398
 30
0.0
  0
VERTEX
  5
5B8
  8
INFO
 10
-113.0000116637618
 20
120.9336061965064
 30
0.0
  0
VERTEX
  5
5B9
  8
INFO
 10
-112.8496224970951
 20
118.9268015853954
 30
0.0
  0
SEQEND
  5
5BA
  8
INFO
  0
POLYLINE
  5
5BB
  8
INFO
 66
     1
 10
0.0
 20
0.0
 30
0.0
  0
VERTEX
  5
5BC
  8
INFO
 10
-107.6778579415396
 20
134.843051890951
 30
0.0
  0
VERTEX
  5
5BD
  8
INFO
 10
-107.6383891637617
 20
132.0009330020621
 30
0.0
  0
VERTEX
  5
5BE
  8
INFO
 10
-103.4469940526507
 20
134.6858505853954
 30
0.0
  0
VERTEX
  5
5BF
  8
INFO
 10
-103.4431558304285
 20
134.689046752062
 30
0.0
  0
VERTEX
  5
5C0
  8
INFO
 10
-103.4392823304285
 20
134.6921123909509
 30
0.0
  0
VERTEX
  5
5C1
  8
INFO
 10
-103.4353347470952
 20
134.6950651409509
 30
0.0
  0
VERTEX
  5
5C2
  8
INFO
 10
-103.4312919137618
 20
134.697936752062
 30
0.0
  0
VERTEX
  5
5C3
  8
INFO
 10
-103.4271150248729
 20
134.7007378076177
 30
0.0
  0
VERTEX
  5
5C4
  8
INFO
 10
-103.4227723304284
 20
134.7034930020621
 30
0.0
  0
VERTEX
  5
5C5
  8
INFO
 10
-103.4182285526507
 20
134.7062199742843
 30
0.0
  0
VERTEX
  5
5C6
  8
INFO
 10
-103.4134589970952
 20
134.7089398909509
 30
0.0
  0
VERTEX
  5
5C7
  8
INFO
 10
-103.4084213304285
 20
134.7116774465065
 30
0.0
  0
VERTEX
  5
5C8
  8
INFO
 10
-103.1771049415396
 20
134.8233457242843
 30
0.0
  0
VERTEX
  5
5C9
  8
INFO
 10
-102.9366480804285
 20
134.890041890951
 30
0.0
  0
VERTEX
  5
5CA
  8
INFO
 10
-102.6925188026506
 20
134.9132476131732
 30
0.0
  0
VERTEX
  5
5CB
  8
INFO
 10
-102.4501922193173
 20
134.8944304465065
 30
0.0
  0
VERTEX
  5
5CC
  8
INFO
 10
-102.2151469693174
 20
134.8350755853954
 30
0.0
  0
VERTEX
  5
5CD
  8
INFO
 10
-101.9928581637618
 20
134.7366541131732
 30
0.0
  0
VERTEX
  5
5CE
  8
INFO
 10
-101.7888009137617
 20
134.6006476965065
 30
0.0
  0
VERTEX
  5
5CF
  8
INFO
 10
-101.6084432748729
 20
134.4285309465065
 30
0.0
  0
VERTEX
  5
5D0
  8
INFO
 10
-101.4572674137619
 20
134.2217749465065
 30
0.0
  0
VERTEX
  5
5D1
  8
INFO
 10
-101.3471337193173
 20
133.9897918076176
 30
0.0
  0
VERTEX
  5
5D2
  8
INFO
 10
-101.281400635984
 20
133.7489504187288
 30
0.0
  0
VERTEX
  5
5D3
  8
INFO
 10
-101.258762885984
 20
133.5046694465065
 30
0.0
  0
VERTEX
  5
5D4
  8
INFO
 10
-101.2778658026507
 20
133.2623781409509
 30
0.0
  0
VERTEX
  5
5D5
  8
INFO
 10
-101.3373970526507
 20
133.0274986965065
 30
0.0
  0
VERTEX
  5
5D6
  8
INFO
 10
-101.436023135984
 20
132.8054497798398
 30
0.0
  0
VERTEX
  5
5D7
  8
INFO
 10
-101.5724140804285
 20
132.6016606409509
 30
0.0
  0
VERTEX
  5
5D8
  8
INFO
 10
-101.7452469693173
 20
132.4215499465065
 30
0.0
  0
VERTEX
  5
5D9
  8
INFO
 10
-101.9531918304285
 20
132.270539890951
 30
0.0
  0
VERTEX
  5
5DA
  8
INFO
 10
-102.3085695804285
 20
132.0789568631731
 30
0.0
  0
SEQEND
  5
5DB
  8
INFO
  0
POLYLINE
  5
5DC
  8
INFO
 66
     1
 10
0.0
 20
0.0
 30
0.0
  0
VERTEX
  5
5DD
  8
INFO
 10
-97.29466602487291
 20
120.6144446131731
 30
0.0
  0
VERTEX
  5
5DE
  8
INFO
 10
-96.30027366376179
 20
121.6298166687287
 30
0.0
  0
VERTEX
  5
5DF
  8
INFO
 10
-96.10504996931734
 20
121.7963877520621
 30
0.0
  0
VERTEX
  5
5E0
  8
INFO
 10
-95.88954860820625
 20
121.9219872242843
 30
0.0
  0
VERTEX
  5
5E1
  8
INFO
 10
-95.6594739970951
 20
122.0065903909509
 30
0.0
  0
VERTEX
  5
5E2
  8
INFO
 10
-95.42051291376178
 20
122.0501760853954
 30
0.0
  0
VERTEX
  5
5E3
  8
INFO
 10
-95.17837683042846
 20
122.0527301965065
 30
0.0
  0
VERTEX
  5
5E4
  8
INFO
 10
-94.93875605265065
 20
122.0142315576176
 30
0.0
  0
VERTEX
  5
5E5
  8
INFO
 10
-94.70734088598401
 20
121.9346519465066
 30
0.0
  0
VERTEX
  5
5E6
  8
INFO
 10
-94.48983927487295
 20
121.8139843076176
 30
0.0
  0
VERTEX
  5
5E7
  8
INFO
 10
-94.29194505265063
 20
121.6522004187287
 30
0.0
  0
VERTEX
  5
5E8
  8
INFO
 10
-93.78353935820626
 20
121.1542969187288
 30
0.0
  0
VERTEX
  5
5E9
  8
INFO
 10
-93.61773733042843
 20
120.9598951965065
 30
0.0
  0
VERTEX
  5
5EA
  8
INFO
 10
-93.49258941376182
 20
120.7449970853954
 30
0.0
  0
VERTEX
  5
5EB
  8
INFO
 10
-93.40821908042845
 20
120.5153105298398
 30
0.0
  0
VERTEX
  5
5EC
  8
INFO
 10
-93.36471099709517
 20
120.276532890951
 30
0.0
  0
VERTEX
  5
5ED
  8
INFO
 10
-93.36218158042844
 20
120.0343721131732
 30
0.0
  0
VERTEX
  5
5EE
  8
INFO
 10
-93.40074724709517
 20
119.7945290853954
 30
0.0
  0
VERTEX
  5
5EF
  8
INFO
 10
-93.48049619153959
 20
119.5627046965065
 30
0.0
  0
VERTEX
  5
5F0
  8
INFO
 10
-93.60154835820627
 20
119.3446033631731
 30
0.0
  0
VERTEX
  5
5F1
  8
INFO
 10
-93.76399899709519
 20
119.1459365576176
 30
0.0
  0
VERTEX
  5
5F2
  8
INFO
 10
-94.26189544153964
 20
118.6375343909509
 30
0.0
  0
VERTEX
  5
5F3
  8
INFO
 10
-93.76399899709519
 20
119.1459365576176
 30
0.0
  0
VERTEX
  5
5F4
  8
INFO
 10
-93.56875766376184
 20
119.3124935298398
 30
0.0
  0
VERTEX
  5
5F5
  8
INFO
 10
-93.35320338598397
 20
119.4380471409509
 30
0.0
  0
VERTEX
  5
5F6
  8
INFO
 10
-93.12302294153959
 20
119.5225444742843
 30
0.0
  0
VERTEX
  5
5F7
  8
INFO
 10
-92.88388899709513
 20
119.5659573076176
 30
0.0
  0
VERTEX
  5
5F8
  8
INFO
 10
-92.64149185820627
 20
119.5682538909509
 30
0.0
  0
VERTEX
  5
5F9
  8
INFO
 10
-92.40150066376178
 20
119.529391890951
 30
0.0
  0
VERTEX
  5
5FA
  8
INFO
 10
-92.16959866376179
 20
119.4493395576176
 30
0.0
  0
VERTEX
  5
5FB
  8
INFO
 10
-91.95146910820624
 20
119.3280580853954
 30
0.0
  0
VERTEX
  5
5FC
  8
INFO
 10
-91.75279524709514
 20
119.1655086687287
 30
0.0
  0
VERTEX
  5
5FD
  8
INFO
 10
-91.58699321931736
 20
118.9711069465065
 30
0.0
  0
VERTEX
  5
5FE
  8
INFO
 10
-91.4618523582062
 20
118.7562088353954
 30
0.0
  0
VERTEX
  5
5FF
  8
INFO
 10
-91.37747496931733
 20
118.5265222798399
 30
0.0
  0
VERTEX
  5
600
  8
INFO
 10
-91.33397041376183
 20
118.287744640951
 30
0.0
  0
VERTEX
  5
601
  8
INFO
 10
-91.33143746931732
 20
118.0455838631732
 30
0.0
  0
VERTEX
  5
602
  8
INFO
 10
-91.37000313598405
 20
117.8057373076176
 30
0.0
  0
VERTEX
  5
603
  8
INFO
 10
-91.44975208042841
 20
117.5739164465065
 30
0.0
  0
VERTEX
  5
604
  8
INFO
 10
-91.5708042470951
 20
117.355818640951
 30
0.0
  0
VERTEX
  5
605
  8
INFO
 10
-91.73325488598401
 20
117.1571447798399
 30
0.0
  0
VERTEX
  5
606
  8
INFO
 10
-92.72765077487291
 20
116.1417727242843
 30
0.0
  0
SEQEND
  5
607
  8
INFO
  0
POLYLINE
  5
608
  8
INFO
 66
     1
 10
0.0
 20
0.0
 30
0.0
  0
VERTEX
  5
609
  8
INFO
 10
-95.76375510820621
 20
79.6889450853954
 30
0.0
  0
VERTEX
  5
60A
  8
INFO
 10
-95.76375510820621
 20
86.88637375206204
 30
0.0
  0
VERTEX
  5
60B
  8
INFO
 10
-108.7262817470951
 20
79.6889450853954
 30
0.0
  0
VERTEX
  5
60C
  8
INFO
 10
-108.7262817470951
 20
86.88637375206204
 30
0.0
  0
SEQEND
  5
60D
  8
INFO
  0
LINE
  5
60E
  8
INFO
 10
-102.2450166637617
 20
67.73908116872875
 30
0.0
 11
-102.2450166637617
 21
74.82677477983984
 31
0.0
  0
POLYLINE
  5
60F
  8
INFO
 66
     1
 10
0.0
 20
0.0
 30
0.0
  0
VERTEX
  5
610
  8
INFO
 10
-95.76375510820621
 20
59.99722114095096
 30
0.0
  0
VERTEX
  5
611
  8
INFO
 10
-108.7262817470951
 20
59.99722114095096
 30
0.0
  0
VERTEX
  5
612
  8
INFO
 10
-105.8437309970951
 20
62.87895697428428
 30
0.0
  0
SEQEND
  5
613
  8
INFO
  0
POLYLINE
  5
614
  8
INFO
 66
     1
 10
0.0
 20
0.0
 30
0.0
  0
VERTEX
  5
615
  8
INFO
 10
-102.6484850804285
 20
14.15453561317321
 30
0.0
  0
VERTEX
  5
616
  8
INFO
 10
-102.6090198304284
 20
11.31241319650648
 30
0.0
  0
VERTEX
  5
617
  8
INFO
 10
-98.41762471931735
 20
13.99733430761761
 30
0.0
  0
VERTEX
  5
618
  8
INFO
 10
-98.41378649709519
 20
14.00052694650651
 30
0.0
  0
VERTEX
  5
619
  8
INFO
 10
-98.4099094693173
 20
14.00359258539538
 30
0.0
  0
VERTEX
  5
61A
  8
INFO
 10
-98.40596541376179
 20
14.00655239095094
 30
0.0
  0
VERTEX
  5
61B
  8
INFO
 10
-98.40192258042843
 20
14.0094204742843
 30
0.0
  0
VERTEX
  5
61C
  8
INFO
 10
-98.39774569153955
 20
14.01222152983983
 30
0.0
  0
VERTEX
  5
61D
  8
INFO
 10
-98.39339946931737
 20
14.01497672428427
 30
0.0
  0
VERTEX
  5
61E
  8
INFO
 10
-98.38885569153955
 20
14.01770369650649
 30
0.0
  0
VERTEX
  5
61F
  8
INFO
 10
-98.38408613598402
 20
14.02042361317314
 30
0.0
  0
VERTEX
  5
620
  8
INFO
 10
-98.3790484693174
 20
14.02315764095093
 30
0.0
  0
VERTEX
  5
621
  8
INFO
 10
-98.14773208042844
 20
14.13482591872871
 30
0.0
  0
VERTEX
  5
622
  8
INFO
 10
-97.90727521931733
 20
14.20152561317316
 30
0.0
  0
VERTEX
  5
623
  8
INFO
 10
-97.66314594153958
 20
14.22472780761758
 30
0.0
  0
VERTEX
  5
624
  8
INFO
 10
-97.42082288598401
 20
14.20591064095092
 30
0.0
  0
VERTEX
  5
625
  8
INFO
 10
-97.18577410820619
 20
14.14655577983979
 30
0.0
  0
VERTEX
  5
626
  8
INFO
 10
-96.96349235820627
 20
14.04813783539538
 30
0.0
  0
VERTEX
  5
627
  8
INFO
 10
-96.7594280526507
 20
13.91212789095093
 30
0.0
  0
VERTEX
  5
628
  8
INFO
 10
-96.57907394153959
 20
13.74001114095094
 30
0.0
  0
VERTEX
  5
629
  8
INFO
 10
-96.42789808042845
 20
13.53325866872869
 30
0.0
  0
VERTEX
  5
62A
  8
INFO
 10
-96.31776085820626
 20
13.30127200206203
 30
0.0
  0
VERTEX
  5
62B
  8
INFO
 10
-96.25203483042843
 20
13.06043061317315
 30
0.0
  0
VERTEX
  5
62C
  8
INFO
 10
-96.22939002487293
 20
12.8161531687287
 30
0.0
  0
VERTEX
  5
62D
  8
INFO
 10
-96.2484929415396
 20
12.57385833539537
 30
0.0
  0
VERTEX
  5
62E
  8
INFO
 10
-96.30803124709512
 20
12.33897889095094
 30
0.0
  0
VERTEX
  5
62F
  8
INFO
 10
-96.40665733042839
 20
12.11693350206204
 30
0.0
  0
VERTEX
  5
630
  8
INFO
 10
-96.54305180265065
 20
11.91314083539538
 30
0.0
  0
VERTEX
  5
631
  8
INFO
 10
-96.71587410820625
 20
11.7330301409509
 30
0.0
  0
VERTEX
  5
632
  8
INFO
 10
-96.92381896931737
 20
11.58202361317315
 30
0.0
  0
VERTEX
  5
633
  8
INFO
 10
-97.27920377487293
 20
11.39044058539537
 30
0.0
  0
SEQEND
  5
634
  8
INFO
  0
LINE
  5
635
  8
INFO
 10
-100.8437621637618
 20
3.752537113173133
 30
0.0
 11
-100.8437621637618
 21
8.083907390950941
 31
0.0
  0
POLYLINE
  5
636
  8
INFO
 66
     1
 10
0.0
 20
0.0
 30
0.0
  0
VERTEX
  5
637
  8
INFO
 10
-96.88323541376182
 20
0.7826985576175645
 30
0.0
  0
VERTEX
  5
638
  8
INFO
 10
-96.88323541376182
 20
-0.9763749146046479
 30
0.0
  0
VERTEX
  5
639
  8
INFO
 10
-96.911616385984
 20
-1.292746025715743
 30
0.0
  0
VERTEX
  5
63A
  8
INFO
 10
-96.99341144153958
 20
-1.590444609049058
 30
0.0
  0
VERTEX
  5
63B
  8
INFO
 10
-97.12360408042842
 20
-1.86451413682687
 30
0.0
  0
VERTEX
  5
63C
  8
INFO
 10
-97.29716016376175
 20
-2.110005136826885
 30
0.0
  0
VERTEX
  5
63D
  8
INFO
 10
-97.50907730265065
 20
-2.32195755349349
 30
0.0
  0
VERTEX
  5
63E
  8
INFO
 10
-97.75431783042852
 20
-2.495436025715748
 30
0.0
  0
VERTEX
  5
63F
  8
INFO
 10
-98.02786877487289
 20
-2.625476970160221
 30
0.0
  0
VERTEX
  5
640
  8
INFO
 10
-98.32471363598403
 20
-2.707130914604647
 30
0.0
  0
VERTEX
  5
641
  8
INFO
 10
-98.63982533042848
 20
-2.735448386826818
 30
0.0
  0
VERTEX
  5
642
  8
INFO
 10
-99.52060913598403
 20
-2.735448386826818
 30
0.0
  0
VERTEX
  5
643
  8
INFO
 10
-99.83558677487285
 20
-2.707130914604647
 30
0.0
  0
VERTEX
  5
644
  8
INFO
 10
-100.1323610804285
 20
-2.625476970160221
 30
0.0
  0
VERTEX
  5
645
  8
INFO
 10
-100.4058943859841
 20
-2.495436025715748
 30
0.0
  0
VERTEX
  5
646
  8
INFO
 10
-100.6511525526507
 20
-2.32195755349349
 30
0.0
  0
VERTEX
  5
647
  8
INFO
 10
-100.8631084970951
 20
-2.110005136826885
 30
0.0
  0
VERTEX
  5
648
  8
INFO
 10
-101.0367245526507
 20
-1.86451413682687
 30
0.0
  0
VERTEX
  5
649
  8
INFO
 10
-101.1669665804285
 20
-1.590444609049058
 30
0.0
  0
VERTEX
  5
64A
  8
INFO
 10
-101.2488039693173
 20
-1.292746025715743
 30
0.0
  0
VERTEX
  5
64B
  8
INFO
 10
-101.2771990526507
 20
-0.9763749146046479
 30
0.0
  0
VERTEX
  5
64C
  8
INFO
 10
-101.2771990526507
 20
-0.0955981646046382
 30
0.0
  0
VERTEX
  5
64D
  8
INFO
 10
-101.2771990526507
 20
-0.9763749146046479
 30
0.0
  0
VERTEX
  5
64E
  8
INFO
 10
-101.3056047193173
 20
-1.292746025715743
 30
0.0
  0
VERTEX
  5
64F
  8
INFO
 10
-101.3874844415395
 20
-1.590444609049058
 30
0.0
  0
VERTEX
  5
650
  8
INFO
 10
-101.5178605248728
 20
-1.86451413682687
 30
0.0
  0
VERTEX
  5
651
  8
INFO
 10
-101.6917235248729
 20
-2.110005136826885
 30
0.0
  0
VERTEX
  5
652
  8
INFO
 10
-101.9040922193173
 20
-2.32195755349349
 30
0.0
  0
VERTEX
  5
653
  8
INFO
 10
-102.1499748026507
 20
-2.495436025715748
 30
0.0
  0
VERTEX
  5
654
  8
INFO
 10
-102.4243724137618
 20
-2.625476970160221
 30
0.0
  0
VERTEX
  5
655
  8
INFO
 10
-102.7222967748729
 20
-2.707130914604647
 30
0.0
  0
VERTEX
  5
656
  8
INFO
 10
-103.0387560804285
 20
-2.735448386826818
 30
0.0
  0
VERTEX
  5
657
  8
INFO
 10
-103.3537407748729
 20
-2.707130914604647
 30
0.0
  0
VERTEX
  5
658
  8
INFO
 10
-103.6505150804285
 20
-2.625476970160221
 30
0.0
  0
VERTEX
  5
659
  8
INFO
 10
-103.9240448582062
 20
-2.495436025715748
 30
0.0
  0
VERTEX
  5
65A
  8
INFO
 10
-104.1693065526507
 20
-2.32195755349349
 30
0.0
  0
VERTEX
  5
65B
  8
INFO
 10
-104.3812624970952
 20
-2.110005136826885
 30
0.0
  0
VERTEX
  5
65C
  8
INFO
 10
-104.5548714970952
 20
-1.86451413682687
 30
0.0
  0
VERTEX
  5
65D
  8
INFO
 10
-104.6851135248729
 20
-1.590444609049058
 30
0.0
  0
VERTEX
  5
65E
  8
INFO
 10
-104.7669509137618
 20
-1.292746025715743
 30
0.0
  0
VERTEX
  5
65F
  8
INFO
 10
-104.7953495248729
 20
-0.9763749146046479
 30
0.0
  0
VERTEX
  5
660
  8
INFO
 10
-104.7953495248729
 20
0.7826985576175645
 30
0.0
  0
SEQEND
  5
661
  8
INFO
  0
POLYLINE
  5
662
  8
INFO
 66
     1
 10
0.0
 20
0.0
 30
0.0
  0
VERTEX
  5
663
  8
INFO
 10
-114.2139474420883
 20
-3.63153922016015
 30
0.0
  0
VERTEX
  5
664
  8
INFO
 10
-110.0399936643105
 20
1.220065390950921
 30
0.0
  0
VERTEX
  5
665
  8
INFO
 10
-109.8896044976438
 20
-0.7867356923824502
 30
0.0
  0
SEQEND
  5
666
  8
INFO
  0
POLYLINE
  5
667
  8
INFO
 66
     1
 10
0.0
 20
0.0
 30
0.0
  0
VERTEX
  5
668
  8
INFO
 10
-87.41539688388939
 20
0.7698821409509122
 30
0.0
  0
VERTEX
  5
669
  8
INFO
 10
-86.42100452277826
 20
1.785254196506457
 30
0.0
  0
VERTEX
  5
66A
  8
INFO
 10
-86.22578082833381
 20
1.951828807617588
 30
0.0
  0
VERTEX
  5
66B
  8
INFO
 10
-86.01027946722273
 20
2.077424752062058
 30
0.0
  0
VERTEX
  5
66C
  8
INFO
 10
-85.78020485611158
 20
2.162027918728739
 30
0.0
  0
VERTEX
  5
66D
  8
INFO
 10
-85.54124377277826
 20
2.205617140950935
 30
0.0
  0
VERTEX
  5
66E
  8
INFO
 10
-85.29910768944494
 20
2.208167724284237
 30
0.0
  0
VERTEX
  5
66F
  8
INFO
 10
-85.05948691166712
 20
2.169665557617577
 30
0.0
  0
VERTEX
  5
670
  8
INFO
 10
-84.82807174500049
 20
2.090089474284255
 30
0.0
  0
VERTEX
  5
671
  8
INFO
 10
-84.61056660611159
 20
1.969418307617616
 30
0.0
  0
VERTEX
  5
672
  8
INFO
 10
-84.41267591166716
 20
1.807634418728696
 30
0.0
  0
VERTEX
  5
673
  8
INFO
 10
-83.90427021722273
 20
1.309737974284246
 30
0.0
  0
VERTEX
  5
674
  8
INFO
 10
-83.73846466166718
 20
1.115336252062065
 30
0.0
  0
VERTEX
  5
675
  8
INFO
 10
-83.6133202727783
 20
0.900438140950925
 30
0.0
  0
VERTEX
  5
676
  8
INFO
 10
-83.52894288388943
 20
0.6707480576175868
 30
0.0
  0
VERTEX
  5
677
  8
INFO
 10
-83.48543832833381
 20
0.4319704187286817
 30
0.0
  0
VERTEX
  5
678
  8
INFO
 10
-83.48291243944492
 20
0.1898061131731765
 30
0.0
  0
VERTEX
  5
679
  8
INFO
 10
-83.52147105055603
 20
-0.0500369146046324
 30
0.0
  0
VERTEX
  5
67A
  8
INFO
 10
-83.60122352277834
 20
-0.2818577757157357
 30
0.0
  0
VERTEX
  5
67B
  8
INFO
 10
-83.72227216166719
 20
-0.4999555812713083
 30
0.0
  0
VERTEX
  5
67C
  8
INFO
 10
-83.88472280055605
 20
-0.6986223868268269
 30
0.0
  0
VERTEX
  5
67D
  8
INFO
 10
-84.38262630055611
 20
-1.207028081271318
 30
0.0
  0
VERTEX
  5
67E
  8
INFO
 10
-83.88472280055605
 20
-0.6986223868268269
 30
0.0
  0
VERTEX
  5
67F
  8
INFO
 10
-83.68948852277832
 20
-0.5320654146046593
 30
0.0
  0
VERTEX
  5
680
  8
INFO
 10
-83.47393424500045
 20
-0.4065153312712937
 30
0.0
  0
VERTEX
  5
681
  8
INFO
 10
-83.24375380055606
 20
-0.3220144701601839
 30
0.0
  0
VERTEX
  5
682
  8
INFO
 10
-83.0046198561116
 20
-0.2786016368268633
 30
0.0
  0
VERTEX
  5
683
  8
INFO
 10
-82.7622191894449
 20
-0.2763085812712944
 30
0.0
  0
VERTEX
  5
684
  8
INFO
 10
-82.52222799500053
 20
-0.3151670534935107
 30
0.0
  0
VERTEX
  5
685
  8
INFO
 10
-82.29032952277826
 20
-0.3952229146046591
 30
0.0
  0
VERTEX
  5
686
  8
INFO
 10
-82.07219996722272
 20
-0.5165079146046452
 30
0.0
  0
VERTEX
  5
687
  8
INFO
 10
-81.87352610611161
 20
-0.6790502757157384
 30
0.0
  0
VERTEX
  5
688
  8
INFO
 10
-81.70772407833384
 20
-0.8734519979379627
 30
0.0
  0
VERTEX
  5
689
  8
INFO
 10
-81.58257968944496
 20
-1.08835010904906
 30
0.0
  0
VERTEX
  5
68A
  8
INFO
 10
-81.49820230055603
 20
-1.318040192382426
 30
0.0
  0
VERTEX
  5
68B
  8
INFO
 10
-81.45469774500047
 20
-1.556817831271331
 30
0.0
  0
VERTEX
  5
68C
  8
INFO
 10
-81.45217185611163
 20
-1.798982136826851
 30
0.0
  0
VERTEX
  5
68D
  8
INFO
 10
-81.49073046722269
 20
-2.038825164604646
 30
0.0
  0
VERTEX
  5
68E
  8
INFO
 10
-81.57047941166716
 20
-2.270646025715735
 30
0.0
  0
VERTEX
  5
68F
  8
INFO
 10
-81.69153157833385
 20
-2.488743831271307
 30
0.0
  0
VERTEX
  5
690
  8
INFO
 10
-81.85398221722271
 20
-2.687414164604618
 30
0.0
  0
VERTEX
  5
691
  8
INFO
 10
-82.84837457833383
 20
-3.702782692382414
 30
0.0
  0
SEQEND
  5
692
  8
INFO
  0
POLYLINE
  5
693
  8
INFO
 66
     1
 10
0.0
 20
0.0
 30
0.0
  0
VERTEX
  5
694
  8
INFO
 10
-107.3607482694372
 20
22.16801021431024
 30
0.0
  0
VERTEX
  5
695
  8
INFO
 10
-107.3607482694372
 20
26.56644354764359
 30
0.0
  0
VERTEX
  5
696
  8
INFO
 10
-115.2822991861038
 20
22.16801021431024
 30
0.0
  0
VERTEX
  5
697
  8
INFO
 10
-115.2822991861038
 20
26.56644354764359
 30
0.0
  0
SEQEND
  5
698
  8
INFO
  0
POLYLINE
  5
699
  8
INFO
 66
     1
 10
0.0
 20
0.0
 30
0.0
  0
VERTEX
  5
69A
  8
INFO
 10
-135.9027126830285
 20
-31.34867538682695
 30
0.0
  0
VERTEX
  5
69B
  8
INFO
 10
-135.9027126830285
 20
-28.5062778034936
 30
0.0
  0
VERTEX
  5
69C
  8
INFO
 10
-140.1309765996951
 20
-31.13274363682696
 30
0.0
  0
VERTEX
  5
69D
  8
INFO
 10
-140.1348642108062
 20
-31.13588335904919
 30
0.0
  0
VERTEX
  5
69E
  8
INFO
 10
-140.1387835719173
 20
-31.13889608127143
 30
0.0
  0
VERTEX
  5
69F
  8
INFO
 10
-140.1427664330284
 20
-31.14179944238249
 30
0.0
  0
VERTEX
  5
6A0
  8
INFO
 10
-140.146855127473
 20
-31.1446075534936
 30
0.0
  0
VERTEX
  5
6A1
  8
INFO
 10
-140.1510672941396
 20
-31.14735216460471
 30
0.0
  0
VERTEX
  5
6A2
  8
INFO
 10
-140.1554487941396
 20
-31.15005091460472
 30
0.0
  0
VERTEX
  5
6A3
  8
INFO
 10
-140.1600349052507
 20
-31.15271085904919
 30
0.0
  0
VERTEX
  5
6A4
  8
INFO
 10
-140.1648362108063
 20
-31.15536727571585
 30
0.0
  0
VERTEX
  5
6A5
  8
INFO
 10
-140.1699162108063
 20
-31.15802722016025
 30
0.0
  0
VERTEX
  5
6A6
  8
INFO
 10
-140.4027530719174
 20
-31.26647816460473
 30
0.0
  0
VERTEX
  5
6A7
  8
INFO
 10
-140.6441236274729
 20
-31.32982999793808
 30
0.0
  0
VERTEX
  5
6A8
  8
INFO
 10
-140.8885421830284
 20
-31.34963847016029
 30
0.0
  0
VERTEX
  5
6A9
  8
INFO
 10
-141.1305830163618
 20
-31.32746285904919
 30
0.0
  0
VERTEX
  5
6AA
  8
INFO
 10
-141.3647851274729
 20
-31.26484833127134
 30
0.0
  0
VERTEX
  5
6AB
  8
INFO
 10
-141.5856804608062
 20
-31.16335063682695
 30
0.0
  0
VERTEX
  5
6AC
  8
INFO
 10
-141.7878291830285
 20
-31.02452552571582
 30
0.0
  0
VERTEX
  5
6AD
  8
INFO
 10
-141.9657808774729
 20
-30.8499181646047
 30
0.0
  0
VERTEX
  5
6AE
  8
INFO
 10
-142.1140710163618
 20
-30.64108430349361
 30
0.0
  0
VERTEX
  5
6AF
  8
INFO
 10
-142.2209767941396
 20
-30.40759480349362
 30
0.0
  0
VERTEX
  5
6B0
  8
INFO
 10
-142.2833549608063
 20
-30.16586088682691
 30
0.0
  0
VERTEX
  5
6B1
  8
INFO
 10
-142.3026025163617
 20
-29.92129416460469
 30
0.0
  0
VERTEX
  5
6B2
  8
INFO
 10
-142.2801340996951
 20
-29.67929213682699
 30
0.0
  0
VERTEX
  5
6B3
  8
INFO
 10
-142.2173467108062
 20
-29.44525583127142
 30
0.0
  0
VERTEX
  5
6B4
  8
INFO
 10
-142.115654988584
 20
-29.22460391460473
 30
0.0
  0
VERTEX
  5
6B5
  8
INFO
 10
-141.9764382941395
 20
-29.02272683127141
 30
0.0
  0
VERTEX
  5
6B6
  8
INFO
 10
-141.8011253774728
 20
-28.84502913682692
 30
0.0
  0
VERTEX
  5
6B7
  8
INFO
 10
-141.5911061830284
 20
-28.69692244238249
 30
0.0
  0
VERTEX
  5
6B8
  8
INFO
 10
-141.2331072941396
 20
-28.51029594238246
 30
0.0
  0
SEQEND
  5
6B9
  8
INFO
  0
POLYLINE
  5
6BA
  8
INFO
 66
     1
 10
0.0
 20
0.0
 30
0.0
  0
VERTEX
  5
6BB
  8
INFO
 10
-55.90276332191733
 20
-30.63774702571583
 30
0.0
  0
VERTEX
  5
6BC
  8
INFO
 10
-62.30276251636182
 20
-30.63774702571583
 30
0.0
  0
VERTEX
  5
6BD
  8
INFO
 10
-60.87955818302844
 20
-29.21494485904913
 30
0.0
  0
SEQEND
  5
6BE
  8
INFO
  0
POLYLINE
  5
6BF
  8
INFO
 66
     1
 10
0.0
 20
0.0
 30
0.0
  0
VERTEX
  5
6C0
  8
INFO
 10
-140.9195823026506
 20
88.0088103353956
 30
0.0
  0
VERTEX
  5
6C1
  8
INFO
 10
-140.9195823026506
 20
90.85120439095112
 30
0.0
  0
VERTEX
  5
6C2
  8
INFO
 10
-145.1478568026506
 20
88.22473855761777
 30
0.0
  0
VERTEX
  5
6C3
  8
INFO
 10
-145.1517444137617
 20
88.22159883539555
 30
0.0
  0
VERTEX
  5
6C4
  8
INFO
 10
-145.1556637748728
 20
88.21859316872894
 30
0.0
  0
VERTEX
  5
6C5
  8
INFO
 10
-145.1596466359839
 20
88.21568627984007
 30
0.0
  0
VERTEX
  5
6C6
  8
INFO
 10
-145.163724747095
 20
88.21287464095113
 30
0.0
  0
VERTEX
  5
6C7
  8
INFO
 10
-145.1679474970951
 20
88.21013002984003
 30
0.0
  0
VERTEX
  5
6C8
  8
INFO
 10
-145.1723289970951
 20
88.20743833539558
 30
0.0
  0
VERTEX
  5
6C9
  8
INFO
 10
-145.1769045248728
 20
88.20477486317336
 30
0.0
  0
VERTEX
  5
6CA
  8
INFO
 10
-145.1817164137618
 20
88.20211844650663
 30
0.0
  0
VERTEX
  5
6CB
  8
INFO
 10
-145.1867858304283
 20
88.19945497428449
 30
0.0
  0
VERTEX
  5
6CC
  8
INFO
 10
-145.4196332748729
 20
88.09101108539556
 30
0.0
  0
VERTEX
  5
6CD
  8
INFO
 10
-145.660993247095
 20
88.02765925206222
 30
0.0
  0
VERTEX
  5
6CE
  8
INFO
 10
-145.9054223859839
 20
88.00784372428444
 30
0.0
  0
VERTEX
  5
6CF
  8
INFO
 10
-146.1474632193173
 20
88.03001933539562
 30
0.0
  0
VERTEX
  5
6D0
  8
INFO
 10
-146.3816653304284
 20
88.09263386317332
 30
0.0
  0
VERTEX
  5
6D1
  8
INFO
 10
-146.6025606637617
 20
88.1941315576178
 30
0.0
  0
VERTEX
  5
6D2
  8
INFO
 10
-146.804709385984
 20
88.3329637242845
 30
0.0
  0
VERTEX
  5
6D3
  8
INFO
 10
-146.9826610804283
 20
88.50756402984004
 30
0.0
  0
VERTEX
  5
6D4
  8
INFO
 10
-147.1309512193174
 20
88.71639789095113
 30
0.0
  0
VERTEX
  5
6D5
  8
INFO
 10
-147.237856997095
 20
88.94988739095112
 30
0.0
  0
VERTEX
  5
6D6
  8
INFO
 10
-147.3002351637617
 20
89.19162130761782
 30
0.0
  0
VERTEX
  5
6D7
  8
INFO
 10
-147.3194827193173
 20
89.4361915576178
 30
0.0
  0
VERTEX
  5
6D8
  8
INFO
 10
-147.2970143026506
 20
89.67819358539558
 30
0.0
  0
VERTEX
  5
6D9
  8
INFO
 10
-147.2342269137617
 20
89.91222636317337
 30
0.0
  0
VERTEX
  5
6DA
  8
INFO
 10
-147.1325210804284
 20
90.13288533539557
 30
0.0
  0
VERTEX
  5
6DB
  8
INFO
 10
-146.993318497095
 20
90.3347624187289
 30
0.0
  0
VERTEX
  5
6DC
  8
INFO
 10
-146.8180055804285
 20
90.51245305761782
 30
0.0
  0
VERTEX
  5
6DD
  8
INFO
 10
-146.607986385984
 20
90.66055975206226
 30
0.0
  0
VERTEX
  5
6DE
  8
INFO
 10
-146.2499769137617
 20
90.84718977984002
 30
0.0
  0
SEQEND
  5
6DF
  8
INFO
  0
POLYLINE
  5
6E0
  8
INFO
 66
     1
 10
0.0
 20
0.0
 30
0.0
  0
VERTEX
  5
6E1
  8
INFO
 10
-60.9196364693173
 20
88.71973869650674
 30
0.0
  0
VERTEX
  5
6E2
  8
INFO
 10
-67.31963566376167
 20
88.71973869650674
 30
0.0
  0
VERTEX
  5
6E3
  8
INFO
 10
-65.89643485820612
 20
90.14254439095112
 30
0.0
  0
SEQEND
  5
6E4
  8
INFO
  0
LINE
  5
6E6
  8
LIVELLO_02
 10
40.54969473843893
 20
-64.18125370433259
 30
0.0
 11
40.54969473843892
 21
55.28170957505205
 31
0.0
  0
LINE
  5
6E7
  8
LIVELLO_02
 10
91.10908014100313
 20
-11.38240832933282
 30
0.0
 11
-0.8025080529396149
 21
-11.38240832933283
 31
0.0
  0
POLYLINE
  5
6E8
  8
LIVELLO_02
 66
     1
 10
0.0
 20
0.0
 30
0.0
 70
     1
  0
VERTEX
  5
6E9
  8
LIVELLO_02
 10
66.55216686343893
 20
-17.38297488488838
 30
0.0
  0
VERTEX
  5
6EA
  8
LIVELLO_02
 10
66.55216686343893
 20
-5.381834718221697
 30
0.0
  0
VERTEX
  5
6EB
  8
LIVELLO_02
 10
14.54722261343893
 20
-5.381834718221711
 30
0.0
  0
VERTEX
  5
6EC
  8
LIVELLO_02
 10
14.54722261343893
 20
-17.3829748848884
 30
0.0
  0
SEQEND
  5
6ED
  8
LIVELLO_02
  0
POLYLINE
  5
6EF
  8
DEFAULT
 66
     1
 10
0.0
 20
0.0
 30
0.0
 70
     1
  0
VERTEX
  5
6F0
  8
DEFAULT
 10
-140.9777596830285
 20
-51.86393858127138
 30
0.0
  0
VERTEX
  5
6F1
  8
DEFAULT
 10
-140.9777596830285
 20
-33.86393858127138
 30
0.0
  0
VERTEX
  5
6F2
  8
DEFAULT
 10
-155.3213832963861
 20
-33.86393858127138
 30
0.0
  0
VERTEX
  5
6F3
  8
DEFAULT
 10
-155.3213832963861
 20
-51.86393858127138
 30
0.0
  0
SEQEND
  5
6F4
  8
DEFAULT
  0
ENDSEC
  0
EOF
